<?xml version="1.0" encoding="UTF-8"?>
<svg width="24px" height="24px" viewBox="0 0 24 24" version="1.1" xmlns="http://www.w3.org/2000/svg" xmlns:xlink="http://www.w3.org/1999/xlink">
    <title>delete</title>
    <g id="Design" stroke="none" stroke-width="1" fill="none" fill-rule="evenodd">
        <g id="2-Category-overview" transform="translate(-417.000000, -258.000000)" fill="#08091E" fill-rule="nonzero">
            <g id="Group-16">
                <g id="Group-15" transform="translate(353.000000, 205.000000)">
                    <g id="Group-6" transform="translate(63.000000, 40.000000)">
                        <g id="delete" transform="translate(1.000000, 13.000000)">
                            <path d="M23.1444585,4.71823496 L15.8864871,11.9769628 L23.1444585,19.2353467 C24.2240458,20.3153467 24.2240458,22.0648023 23.1444585,23.1448023 C22.605043,23.6842178 21.8978338,23.9541318 21.1909685,23.9541318 C20.4829341,23.9541318 19.7756562,23.6846304 19.2366533,23.1448023 L11.9771003,15.8855931 L4.71809742,23.1447335 C4.17875072,23.684149 3.47147278,23.9541318 2.76398854,23.9541318 C2.0567106,23.9541318 1.34991404,23.6845616 0.81008596,23.1447335 C-0.269501433,22.0652149 -0.269501433,20.3156905 0.81008596,19.2352779 L8.067851,11.976894 L0.809673352,4.71823496 C-0.26991404,3.63864756 -0.26991404,1.88877937 0.809673352,0.809191977 C1.88905444,-0.269570201 3.63789112,-0.269570201 4.71768481,0.809191977 L11.9770315,8.06791977 L19.2358281,0.809191977 C20.3158281,-0.269570201 22.0648711,-0.269570201 23.1440458,0.809191977 C24.2240458,1.88877937 24.2240458,3.63864756 23.1444585,4.71823496 Z" id="Path"></path>
                        </g>
                    </g>
                </g>
            </g>
        </g>
    </g>
</svg>