<?xml version="1.0" encoding="UTF-8"?>
<svg width="48px" height="48px" viewBox="0 0 48 48" version="1.1" xmlns="http://www.w3.org/2000/svg" xmlns:xlink="http://www.w3.org/1999/xlink">
    <title>contract</title>
    <g id="Design" stroke="none" stroke-width="1" fill="none" fill-rule="evenodd">
        <g id="9-Settings" transform="translate(-570.000000, -544.000000)" fill="#EB2A74" fill-rule="nonzero">
            <g id="Group-11" transform="translate(208.000000, 125.000000)">
                <g id="Group-15-Copy-4" transform="translate(41.000000, 392.000000)">
                    <g id="contract" transform="translate(321.000000, 27.000000)">
                        <path d="M46.7616563,15.1056563 C45.1168125,13.4607188 42.4403437,13.4608125 40.7949375,15.1060313 C40.288875,15.6125625 37.0577812,18.8462812 36.5641875,19.3403437 L36.5641875,8.1961875 C36.5641875,7.0693125 36.1253438,6.0099375 35.3284688,5.21315625 L31.351125,1.235625 C30.5543437,0.43875 29.494875,0 28.368,0 L4.2204375,0 C1.89421875,0 0.0016875,1.89253125 0.0016875,4.21875 L0.0016875,43.78125 C0.0016875,46.1074687 1.89421875,48 4.2204375,48 L32.3454375,48 C34.6716562,48 36.5641875,46.1074687 36.5641875,43.78125 L36.5641875,31.2779062 L46.7615625,21.0719062 C48.4103437,19.4232188 48.4107187,16.7545312 46.7616563,15.1056563 Z M28.1267812,2.8125 C28.3924687,2.8125 28.9044375,2.76646875 29.3624062,3.22434375 L33.3398437,7.201875 C33.7860937,7.64821875 33.7517812,8.1373125 33.7517812,8.4375 L28.1267812,8.4375 L28.1267812,2.8125 Z M33.7516875,43.78125 C33.7516875,44.5566563 33.1209375,45.1875 32.3454375,45.1875 L4.2204375,45.1875 C3.44503125,45.1875 2.8141875,44.5566563 2.8141875,43.78125 L2.8141875,4.21875 C2.8141875,3.44334375 3.44503125,2.8125 4.2204375,2.8125 L25.3141875,2.8125 L25.3141875,9.84375 C25.3141875,10.620375 25.9438125,11.25 26.7204375,11.25 L33.7516875,11.25 L33.7516875,22.1552812 C33.7516875,22.1552812 29.602875,26.3076562 29.6026875,26.30775 L27.6149062,28.295625 C27.4605937,28.4499375 27.3441562,28.6381875 27.2751562,28.8452812 L25.2863437,34.8115313 C25.117875,35.3168437 25.2494062,35.874 25.6260937,36.2505938 C26.00325,36.62775 26.5605937,36.758625 27.0651562,36.5903438 L33.0314063,34.601625 C33.2385,34.532625 33.42675,34.4162813 33.5810625,34.261875 L33.7516875,34.09125 L33.7516875,43.78125 Z M30.5979375,29.2900312 L32.5866562,31.27875 L31.827,32.0384063 L28.8439687,33.0327188 L29.8382812,30.0495938 L30.5979375,29.2900312 Z M34.575,29.2895625 L32.5862812,27.3008437 C33.6452812,26.241 38.348625,21.533625 39.346125,20.5352813 L41.3348437,22.524 L34.575,29.2895625 Z M44.7724687,19.0835625 L43.3228125,20.5344375 L41.3340937,18.5457188 L42.7842187,17.094375 C43.3328437,16.5460313 44.2247812,16.546125 44.7730312,17.094375 C45.3211875,17.6428125 45.3240937,18.5318438 44.7724687,19.0835625 Z" id="Shape"></path>
                        <path d="M26.7204375,14.0625 L7.0329375,14.0625 C6.2563125,14.0625 5.6266875,14.692125 5.6266875,15.46875 C5.6266875,16.245375 6.2563125,16.875 7.0329375,16.875 L26.7204375,16.875 C27.4970625,16.875 28.1266875,16.245375 28.1266875,15.46875 C28.1266875,14.692125 27.4970625,14.0625 26.7204375,14.0625 Z" id="Path"></path>
                        <path d="M21.0954375,19.6875 L7.0329375,19.6875 C6.2563125,19.6875 5.6266875,20.317125 5.6266875,21.09375 C5.6266875,21.870375 6.2563125,22.5 7.0329375,22.5 L21.0954375,22.5 C21.8720625,22.5 22.5016875,21.870375 22.5016875,21.09375 C22.5016875,20.317125 21.8720625,19.6875 21.0954375,19.6875 Z" id="Path"></path>
                        <path d="M21.0954375,25.3125 L7.0329375,25.3125 C6.2563125,25.3125 5.6266875,25.942125 5.6266875,26.71875 C5.6266875,27.495375 6.2563125,28.125 7.0329375,28.125 L21.0954375,28.125 C21.8720625,28.125 22.5016875,27.495375 22.5016875,26.71875 C22.5016875,25.942125 21.8720625,25.3125 21.0954375,25.3125 Z" id="Path"></path>
                        <path d="M21.0954375,30.9375 L7.0329375,30.9375 C6.2563125,30.9375 5.6266875,31.567125 5.6266875,32.34375 C5.6266875,33.120375 6.2563125,33.75 7.0329375,33.75 L21.0954375,33.75 C21.8720625,33.75 22.5016875,33.120375 22.5016875,32.34375 C22.5016875,31.567125 21.8720625,30.9375 21.0954375,30.9375 Z" id="Path"></path>
                        <path d="M26.7204375,39.5625 L18.2829375,39.5625 C17.5063125,39.5625 16.8766875,40.192125 16.8766875,40.96875 C16.8766875,41.745375 17.5063125,42.375 18.2829375,42.375 L26.7204375,42.375 C27.4970625,42.375 28.1266875,41.745375 28.1266875,40.96875 C28.1266875,40.192125 27.4970625,39.5625 26.7204375,39.5625 Z" id="Path"></path>
                    </g>
                </g>
            </g>
        </g>
    </g>
</svg>