<?xml version="1.0" encoding="UTF-8"?>
<svg width="54px" height="36px" viewBox="0 0 54 36" version="1.1" xmlns="http://www.w3.org/2000/svg" xmlns:xlink="http://www.w3.org/1999/xlink">
    <title>credit-card</title>
    <g id="Design" stroke="none" stroke-width="1" fill="none" fill-rule="evenodd">
        <g id="9-Settings" transform="translate(-567.000000, -158.000000)" fill="#EB2A74" fill-rule="nonzero">
            <g id="Group-11" transform="translate(208.000000, 125.000000)">
                <g id="Group-15" transform="translate(41.000000, 0.000000)">
                    <g id="credit-card" transform="translate(318.000000, 33.000000)">
                        <path d="M48.2807368,0.0350526316 L5.614,0.0350526316 C2.51957895,0.0350526316 0,2.55463158 0,5.64915789 L0,30.3509474 C0,33.4453684 2.51957895,35.9649474 5.614,35.9649474 L48.2806316,35.9649474 C51.3750526,35.9649474 53.8946316,33.4453684 53.8946316,30.3509474 L53.8946316,5.64915789 C53.8946316,2.55463158 51.3751579,0.0350526316 48.2807368,0.0350526316 Z M51.6491579,30.3508421 C51.6491579,32.208 50.1378947,33.7192632 48.2807368,33.7192632 L5.614,33.7192632 C3.75684211,33.7192632 2.24557895,32.208 2.24557895,30.3508421 L2.24557895,5.64915789 C2.24557895,3.792 3.75684211,2.28073684 5.614,2.28073684 L48.2806316,2.28073684 C50.1377895,2.28073684 51.6491579,3.792 51.6491579,5.64915789 L51.6491579,30.3508421 L51.6491579,30.3508421 Z" id="Shape"></path>
                        <path d="M52.7718947,6.77189474 L1.12284211,6.77189474 C0.503052632,6.77189474 0,7.27494737 0,7.89473684 L0,14.6315789 C0,15.2513684 0.503052632,15.7544211 1.12284211,15.7544211 L52.772,15.7544211 C53.3917895,15.7544211 53.8948421,15.2513684 53.8948421,14.6315789 L53.8948421,7.89473684 C53.8948421,7.27494737 53.3916842,6.77189474 52.7718947,6.77189474 Z M51.6491579,13.5087368 L2.24557895,13.5087368 L2.24557895,9.01747368 L51.6491579,9.01747368 L51.6491579,13.5087368 L51.6491579,13.5087368 Z" id="Shape"></path>
                        <path d="M21.3333684,22.4912632 L7.85968421,22.4912632 C7.23989474,22.4912632 6.73684211,22.9943158 6.73684211,23.6141053 C6.73684211,24.2338947 7.23989474,24.7368421 7.85968421,24.7368421 L21.3333684,24.7368421 C21.9531579,24.7368421 22.4562105,24.2337895 22.4562105,23.614 C22.4562105,22.9942105 21.9531579,22.4912632 21.3333684,22.4912632 Z" id="Path"></path>
                        <path d="M21.3333684,26.9824211 L7.85968421,26.9824211 C7.23989474,26.9824211 6.73684211,27.4854737 6.73684211,28.1052632 C6.73684211,28.7250526 7.23989474,29.2281053 7.85968421,29.2281053 L21.3333684,29.2281053 C21.9531579,29.2281053 22.4562105,28.7250526 22.4562105,28.1052632 C22.4562105,27.4854737 21.9531579,26.9824211 21.3333684,26.9824211 Z" id="Path"></path>
                        <path d="M43.7894737,20.2455789 L41.5438947,20.2455789 C39.6867368,20.2455789 38.1754737,21.7568421 38.1754737,23.614 L38.1754737,25.8595789 C38.1754737,27.7167368 39.6867368,29.228 41.5438947,29.228 L43.7894737,29.228 C45.6466316,29.228 47.1578947,27.7167368 47.1578947,25.8595789 L47.1578947,23.614 C47.1578947,21.7569474 45.6466316,20.2455789 43.7894737,20.2455789 Z M44.9123158,25.8596842 C44.9123158,26.4794737 44.4092632,26.9825263 43.7894737,26.9825263 L41.5438947,26.9825263 C40.9241053,26.9825263 40.4210526,26.4794737 40.4210526,25.8596842 L40.4210526,23.6141053 C40.4210526,22.9943158 40.9241053,22.4912632 41.5438947,22.4912632 L43.7894737,22.4912632 C44.4092632,22.4912632 44.9123158,22.9943158 44.9123158,23.6141053 L44.9123158,25.8596842 Z" id="Shape"></path>
                    </g>
                </g>
            </g>
        </g>
    </g>
</svg>