<?xml version="1.0" encoding="UTF-8"?>
<svg width="20px" height="24px" viewBox="0 0 20 24" version="1.1" xmlns="http://www.w3.org/2000/svg" xmlns:xlink="http://www.w3.org/1999/xlink">
    <title>down-arrow</title>
    <g id="Design" stroke="none" stroke-width="1" fill="none" fill-rule="evenodd">
        <g id="15-Booking-request" transform="translate(-878.000000, -1062.000000)" fill="#2B83FF" fill-rule="nonzero">
            <g id="Group-8" transform="translate(353.000000, 320.000000)">
                <g id="Group-Copy" transform="translate(378.000000, 724.000000)">
                    <g id="down-arrow" transform="translate(147.000000, 18.000000)">
                        <path d="M9.293,18.707 C9.488,18.9025 9.744,19 10,19 C10.256,19 10.5115,18.9025 10.707,18.707 L15.707,13.707 C16.0975,13.3165 16.0975,12.6835 15.707,12.293 C15.3165,11.9025 14.6835,11.9025 14.293,12.293 L11,15.586 L11,1 C11,0.448 10.552,0 10,0 C9.448,0 9,0.448 9,1 L9,15.586 L5.707,12.293 C5.317,11.9025 4.683,11.9025 4.293,12.293 C3.9025,12.6835 3.9025,13.3165 4.293,13.707 L9.293,18.707 Z" id="Path" transform="translate(10.000000, 9.500000) rotate(-180.000000) translate(-10.000000, -9.500000) "></path>
                        <path d="M3,24 L17,24 C18.6545,24 20,22.6545 20,21 L20,17 C20,16.448 19.552,16 19,16 C18.448,16 18,16.448 18,17 L18,21 C18,21.5515 17.5515,22 17,22 L3,22 C2.4485,22 2,21.5515 2,21 L2,17 C2,16.448 1.552,16 1,16 C0.448,16 0,16.448 0,17 L0,21 C0,22.6545 1.3455,24 3,24 Z" id="Path"></path>
                    </g>
                </g>
            </g>
        </g>
    </g>
</svg>