<svg id="favourite_copy" data-name="favourite copy" xmlns="http://www.w3.org/2000/svg" width="41.796" height="39.985" viewBox="0 0 41.796 39.985">
  <path id="Path" d="M41.685,15.1A2.956,2.956,0,0,0,39.1,13.267L28.282,11.695l-4.838-9.8A2.956,2.956,0,0,0,20.9,0a2.956,2.956,0,0,0-2.546,1.893l-4.837,9.8L2.7,13.267A2.955,2.955,0,0,0,.111,15.1a2.956,2.956,0,0,0,1.013,3.006l7.828,7.63L7.1,36.512a3.113,3.113,0,0,0,.546,2.654,2.341,2.341,0,0,0,1.828.819,3.774,3.774,0,0,0,1.745-.48L20.9,34.418l9.676,5.087a3.771,3.771,0,0,0,1.745.48h0a2.342,2.342,0,0,0,1.828-.819,3.113,3.113,0,0,0,.546-2.654L32.845,25.739l7.827-7.63A2.956,2.956,0,0,0,41.685,15.1Z" transform="translate(0)" fill="#f0672a"/>
</svg>
