<?xml version="1.0" encoding="UTF-8"?>
<svg width="26px" height="24px" viewBox="0 0 26 24" version="1.1" xmlns="http://www.w3.org/2000/svg" xmlns:xlink="http://www.w3.org/1999/xlink">
    <title>filter</title>
    <g id="design" stroke="none" stroke-width="1" fill="none" fill-rule="evenodd">
        <g id="2-Category-overview" transform="translate(-127.000000, -153.000000)" fill="#EB2A74" fill-rule="nonzero">
            <g id="Group-7-Copy" transform="translate(110.000000, 135.000000)">
                <g id="filter" transform="translate(17.000000, 18.000000)">
                    <path d="M25.8596332,0.522340611 C25.7298865,0.247126638 25.4528908,0.071580786 25.1486463,0.071580786 L0.786026201,0.071580786 C0.481781659,0.071580786 0.20489083,0.247126638 0.0750393013,0.522340611 C-0.0547074236,0.797554585 -0.0140436681,1.12286463 0.179528384,1.35762445 L9.54487336,12.7166463 L9.54487336,23.1907074 C9.54487336,23.4626725 9.68541485,23.7152489 9.91640175,23.8586201 C10.0430044,23.9371179 10.18669,23.9767336 10.3308996,23.9767336 C10.4500611,23.9767336 10.5696419,23.9495895 10.6798952,23.8949869 L15.941869,21.286952 C16.2092227,21.1544803 16.3783755,20.8820961 16.3787948,20.5837205 L16.3890655,12.7169607 L25.7549345,1.35751965 C25.9486114,1.12286463 25.9893799,0.797449782 25.8596332,0.522340611 Z M14.9970655,11.9342882 C14.8812576,12.0747249 14.8177467,12.2511092 14.8175371,12.4332576 L14.807476,20.0947074 L11.1170306,21.9238428 L11.1170306,12.4343057 C11.1170306,12.2518428 11.0536245,12.0750393 10.9375022,11.9342882 L2.45282096,1.64352838 L23.4817467,1.64352838 L14.9970655,11.9342882 Z" id="Shape"></path>
                </g>
            </g>
        </g>
    </g>
</svg>