<?xml version="1.0" encoding="UTF-8"?>
<svg width="55px" height="48px" viewBox="0 0 55 48" version="1.1" xmlns="http://www.w3.org/2000/svg" xmlns:xlink="http://www.w3.org/1999/xlink">
    <title>employees</title>
    <g id="Design" stroke="none" stroke-width="1" fill="none" fill-rule="evenodd">
        <g id="9-Settings" transform="translate(-567.000000, -348.000000)" fill="#EB2A74" fill-rule="nonzero">
            <g id="Group-11" transform="translate(208.000000, 125.000000)">
                <g id="Group-15-Copy-2" transform="translate(41.000000, 196.000000)">
                    <g id="employees" transform="translate(318.000000, 27.000000)">
                        <path d="M33.5452706,35.1040994 L30.5567702,35.1040994 C30.1157409,35.1040994 29.7581899,35.4616504 29.7581899,35.9026797 C29.7581899,36.3438154 30.1157409,36.70126 30.5567702,36.70126 L33.5452706,36.70126 C33.9862999,36.70126 34.3438509,36.3438154 34.3438509,35.9026797 C34.3438509,35.4616504 33.9862999,35.1040994 33.5452706,35.1040994 Z" id="Path"></path>
                        <path d="M51.1355457,26.5548181 L46.7869033,24.87748 L44.5697249,22.6603017 C44.4273647,22.5179414 44.2439042,22.4408518 44.056504,22.4288199 L44.056504,20.6645963 C45.1014729,19.550417 45.8453239,18.1394854 46.1454836,16.5499911 C46.331819,16.5584028 46.5199645,16.5433895 46.7055546,16.5054836 C47.7680923,16.2879503 48.5393079,15.3020763 48.5393079,14.1614907 L48.5393079,13.5791659 C48.5393079,12.9193256 48.2717303,12.3136823 47.8360248,11.8806389 C48.5412245,8.04532387 47.9603904,4.91978705 46.1487844,2.82782609 C44.3964862,0.804436557 41.5733452,-0.162697427 37.9849512,0.0314108252 C34.6696717,0.210612245 32.5294765,1.7360071 31.8514286,2.29405501 C31.4802484,2.33813665 30.8479858,2.46846495 30.2080568,2.85242236 C29.3211003,3.38459627 28.2638864,4.50250222 28.2638864,6.80592724 C28.2638864,8.81536823 28.5850222,10.4930257 28.8175688,11.444827 C28.0381544,11.8245253 27.5167347,12.6473824 27.5167347,13.58811 L27.5167347,14.1613842 C27.5167347,15.3019698 28.2879503,16.2878438 29.350488,16.5053771 C29.5360781,16.5433895 29.7243301,16.5582964 29.910559,16.5498846 C30.2107187,18.1393789 30.9546761,19.5503106 31.9995386,20.6644898 L31.9995386,22.4287134 C31.8121384,22.4407453 31.6285714,22.517835 31.4863177,22.6601952 L29.2691393,24.8773736 L24.9204969,26.5547116 C24.5443123,26.6997338 24.1849512,26.8878793 23.8525288,27.1137178 C23.4877374,27.3615972 23.3929725,27.8582076 23.6407453,28.2229991 C23.795244,28.4504348 24.0464241,28.5728838 24.3019698,28.5728838 C24.4564685,28.5728838 24.6125643,28.5280568 24.7500266,28.4347826 C24.9818279,28.2773026 25.2325821,28.1461224 25.4952618,28.044756 L29.5310736,26.4880568 L32.6167879,31.1167347 C32.9992547,31.6905413 33.6123514,32.0586335 34.298598,32.1265661 C34.3749423,32.134126 34.4512866,32.1378527 34.5270985,32.1378527 C34.9243656,32.1378527 35.3098137,32.0333984 35.6509672,31.8403549 L34.9887844,46.8609051 C34.969299,47.3015084 35.310772,47.6744987 35.7514818,47.6938776 C35.7634073,47.6948358 35.7753327,47.6948358 35.7872582,47.6948358 C36.2121029,47.6948358 36.5656078,47.3597516 36.5844543,46.9311801 L37.1990417,32.9889264 L38.8568944,32.9889264 L39.4714818,46.9311801 C39.4903283,47.359858 39.8438332,47.6948358 40.2686779,47.6948358 C40.2806034,47.6948358 40.2925288,47.6948358 40.3044543,47.6938776 C40.7450577,47.6744987 41.0865306,47.3015084 41.0671517,46.8609051 L40.4049689,31.8403549 C40.7461224,32.0333984 41.1314641,32.1378527 41.5288376,32.1378527 C41.6046495,32.1378527 41.6809938,32.134126 41.7573381,32.1265661 C42.4435847,32.0586335 43.056575,31.6905413 43.4391482,31.1167347 L46.5248625,26.4880568 L50.5606744,28.044756 C51.1267081,28.2630346 51.6139485,28.6113221 51.9970541,29.0458563 L49.2359894,31.806921 C48.2384028,32.8045075 47.6890861,34.1307897 47.6890861,35.541402 L47.6890861,46.8961491 C47.6890861,47.3371783 48.0466371,47.6948358 48.4876664,47.6948358 C48.9286957,47.6948358 49.2862467,47.3371783 49.2862467,46.8961491 L49.2862467,35.541402 C49.2862467,34.5574445 49.6694587,33.6321562 50.3652884,32.9363265 L52.7885004,30.5131145 C52.8858208,30.8701331 52.9312866,31.2454658 52.9159539,31.6292103 L52.2974268,46.8637799 C52.2795386,47.3044898 52.6222893,47.6762023 53.0628926,47.694197 C53.0739663,47.6948358 53.0849335,47.6948358 53.0959006,47.6948358 C53.5219166,47.6948358 53.8758474,47.3582609 53.8932032,46.9287311 L54.5119432,31.6937356 C54.6025555,29.4338598 53.2457143,27.3687311 51.1355457,26.5548181 Z M31.4738598,16.2206566 C31.3329902,15.453913 30.6229991,14.8966105 29.8566815,14.9533629 C29.7960958,14.9577285 29.7337001,14.9534694 29.6708784,14.9406921 C29.3533629,14.8757409 29.1138953,14.5406566 29.1138953,14.1614907 L29.1138953,13.5880035 C29.1138953,13.2175688 29.3614552,12.8838687 29.6773736,12.828394 C29.9439929,12.7815439 30.1993256,12.8793966 30.3608518,13.0901154 C30.5074712,13.2812422 30.7030701,13.4179592 30.9263531,13.4852529 C31.2534516,13.5840639 31.6140905,13.5260337 31.8913576,13.3303283 C32.3907365,12.9777817 32.8313398,12.5470807 33.2009228,12.0500444 C33.4641349,11.6961136 33.3904525,11.1958829 33.0366282,10.9327773 C32.6825909,10.6695652 32.1824667,10.7431411 31.9192547,11.0970719 C31.7349423,11.3449512 31.5266726,11.5699379 31.2974268,11.7690506 C31.0442236,11.5524756 30.7484295,11.3959539 30.4314463,11.3066193 C30.2262644,10.5206034 29.861047,8.83666371 29.861047,6.80571429 C29.861047,5.5826087 30.2380834,4.72322981 30.9816149,4.25153505 C31.5618101,3.88344277 32.1758651,3.86874889 32.1754392,3.86864241 C32.3795563,3.86864241 32.5782431,3.788252 32.7264596,3.6480213 C32.745945,3.62970719 34.7090683,1.80787933 38.0709849,1.62612245 C41.148394,1.46001775 43.5241171,2.23687666 44.9412245,3.87322094 C46.369512,5.52255546 46.8451464,8.05469388 46.3291571,11.2239929 C46.115244,11.216433 45.8811003,11.2326176 45.6480213,11.2714818 L44.8977817,9.46967169 C44.7446673,9.1021118 44.3436735,8.90363798 43.9584383,9.00404614 C43.8842236,9.02342502 36.5094942,10.8929547 33.4172848,7.04315883 C33.141189,6.69934339 32.6386158,6.64440106 32.2945874,6.92060337 C31.950772,7.19680568 31.8958296,7.69937888 32.1721384,8.0433008 C35.3298314,11.9746584 41.595386,11.1194321 43.6810648,10.7023602 L44.26126,12.0956167 C44.5107365,12.6945519 45.1489618,13.0216504 45.7780302,12.8733274 C46.0362378,12.8125288 46.2829459,12.8111446 46.3755812,12.8294587 C46.6985271,12.8937711 46.9420408,13.2158651 46.9420408,13.578953 L46.9420408,14.1613842 C46.9420408,14.5406566 46.7025732,14.8756344 46.3850577,14.9405856 C46.3223425,14.9534694 46.2596273,14.9577285 46.1992547,14.9532564 C45.4330435,14.8974623 44.7230524,15.4537001 44.5820763,16.2206566 C44.0011358,19.3834605 41.244756,21.6791127 38.0279681,21.6791127 C34.8111801,21.6791127 32.0548004,19.3834605 31.4738598,16.2206566 Z M35.0164685,30.3370009 C34.8139485,30.5395209 34.5785271,30.5494232 34.4560781,30.5372848 C34.3337356,30.5252529 34.1047028,30.4692458 33.9458385,30.2309494 L30.8372316,25.5680923 L32.0873824,24.3179414 L36.8596983,28.4937711 L35.0164685,30.3370009 Z M37.2694232,31.3918722 L37.317764,30.2943035 L38.0278616,29.5842059 L38.7379592,30.2943035 L38.7862999,31.3918722 L37.2694232,31.3918722 Z M38.0279681,27.3936469 L33.5966992,23.5162733 L33.5966992,21.9878971 C34.8850754,22.8072405 36.4094055,23.2762733 38.0279681,23.2762733 C39.6465306,23.2762733 41.1709672,22.8072405 42.4593434,21.9878971 L42.4593434,23.5162733 L38.0279681,27.3936469 Z M42.1103106,30.2309494 C41.9513398,30.4693523 41.722307,30.5252529 41.600071,30.5372848 C41.4775155,30.5494232 41.2420941,30.5395209 41.0395741,30.3368944 L39.1963443,28.4936646 L43.9686602,24.317835 L45.218811,25.5679858 L42.1103106,30.2309494 Z" id="Shape"></path>
                        <path d="M25.3251109,30.7399113 L21.4256965,29.0378705 L19.294126,26.9062999 C19.1513398,26.7634073 18.9677728,26.6867436 18.7809051,26.6748181 L18.7809051,25.4184916 C20.6026264,24.2213665 21.9357232,22.3174445 22.3640816,20.0487311 C22.5738421,20.0581012 22.7856256,20.0379769 22.9943212,19.9886779 C24.0161846,19.7468678 24.7577995,18.7675954 24.7577995,17.6602307 L24.7577995,17.0780124 C24.7577995,16.2689973 24.3563798,15.5412245 23.7344454,15.1142502 C23.9173736,14.3895652 24.0106477,13.6481633 24.0106477,12.9018634 C24.0106477,9.5933984 22.2222538,6.67932564 19.5265661,5.0061402 C19.4978172,2.24486247 17.1409406,0.00670807453 14.2465661,0.00670807453 C11.3521917,0.00670807453 8.995315,2.24486247 8.9665661,5.0061402 C6.27098492,6.67932564 4.48259095,9.59350488 4.48259095,12.9018634 C4.48259095,13.6459272 4.57522626,14.3851996 4.75708962,15.1078616 C4.13547471,15.5327063 3.73543922,16.2638864 3.73543922,17.0867436 L3.73543922,17.6602307 C3.73543922,18.7675954 4.47705413,19.7468678 5.49891748,19.9886779 C5.70761313,20.0380834 5.91929015,20.0581012 6.12915705,20.0487311 C6.55751553,22.3174445 7.89071872,24.2213665 9.71244011,25.4184916 L9.71244011,26.6748181 C9.52557232,26.6867436 9.34200532,26.7634073 9.19921917,26.9062999 L7.06764862,29.0378705 L3.16834073,30.7399113 C1.18434783,31.6059982 -0.0869920142,33.6409938 0.00468500444,35.8038687 L0.476273292,46.9300089 C0.494480923,47.3591127 0.84809228,47.6949423 1.27357587,47.6949423 C1.28496894,47.6949423 1.2964685,47.6949423 1.30796806,47.6940905 C1.74867791,47.675457 2.09068323,47.3031056 2.07204969,46.8623957 L1.60035492,35.7361491 C1.57000887,35.0192369 1.75634428,34.3236202 2.10665484,33.724898 L4.20266193,36.2401065 C4.86505768,37.0349601 5.22974268,38.042449 5.22974268,39.0769831 L5.22974268,46.8962555 C5.22974268,47.3372848 5.5872937,47.6949423 6.02832298,47.6949423 C6.46935226,47.6949423 6.82690328,47.3372848 6.82690328,46.8962555 L6.82690328,39.0769831 C6.82690328,37.6695652 6.33061224,36.2989885 5.42960071,35.2177107 L3.20134871,32.5437445 C3.39077196,32.4132032 3.59212067,32.2975688 3.80731145,32.2036557 L7.2056433,30.720213 L9.60713398,34.6182431 C9.84425909,35.0031588 10.2363088,35.2641349 10.6828749,35.3344099 C10.7631588,35.3470807 10.8436557,35.3532564 10.9238332,35.3532564 C11.2889441,35.3532564 11.6445785,35.2238864 11.9265306,34.9832476 L13.4483052,33.684756 L13.4483052,46.8961491 C13.4483052,47.3371783 13.8058563,47.6949423 14.2468855,47.6949423 C14.6879148,47.6949423 15.0454658,47.3371783 15.0454658,46.8961491 L15.0454658,33.6849689 L16.567134,34.9834605 C16.8490861,35.2240994 17.2047205,35.3534694 17.5698314,35.3534694 C17.6499024,35.3534694 17.7305058,35.3471872 17.8107897,35.3346229 C18.2573558,35.2643478 18.6494055,35.0033718 18.8865306,34.6184561 L21.2880213,30.7203194 L24.6863531,32.2037622 C24.9014374,32.2976752 25.1028926,32.4133097 25.2923159,32.5438509 L23.0640639,35.2178172 C22.1630524,36.2989885 21.6667613,37.6696717 21.6667613,39.0770896 L21.6667613,46.896362 C21.6667613,47.3373913 22.0243123,47.6949423 22.4653416,47.6949423 C22.9063709,47.6949423 23.2639219,47.3373913 23.2639219,46.896362 L23.2639219,39.0770896 C23.2639219,38.0425555 23.6287134,37.0350665 24.2910027,36.240213 L26.3870098,33.7250044 C26.7373203,34.3237267 26.9236557,35.0193434 26.8933097,35.7362555 L26.4217214,46.8625022 C26.4030878,47.3031056 26.7450932,47.675457 27.185803,47.694197 C27.1973026,47.6949423 27.2086957,47.6949423 27.2201952,47.6949423 C27.6456788,47.6949423 27.9992902,47.3593256 28.0174978,46.9301154 L28.4890861,35.8039752 C28.5806566,33.6411003 27.3092103,31.6059982 25.3251109,30.7399113 Z M14.2467791,1.60386868 C15.945732,1.60386868 17.3791304,2.68770186 17.8030169,4.1562378 C16.7005501,3.74012422 15.500976,3.51130435 14.2467791,3.51130435 C12.9925821,3.51130435 11.793008,3.74012422 10.6905413,4.1562378 C11.1144277,2.68770186 12.5477196,1.60386868 14.2467791,1.60386868 Z M7.69256433,19.7196096 C7.55180124,18.9526531 6.84063886,18.3955634 6.07549246,18.4522094 C6.00766637,18.4570009 5.93760426,18.4512511 5.86690328,18.4344277 C5.56237799,18.3623425 5.3327063,18.0294942 5.3327063,17.6602307 L5.3327063,17.0867436 C5.3327063,16.7163088 5.58026619,16.3826087 5.89618456,16.327134 C6.1628039,16.2802839 6.41803017,16.3782431 6.57944987,16.5887489 C6.72606921,16.7799823 6.92166815,16.9166992 7.14516415,16.9842059 C7.47215617,17.0830169 7.83300799,17.0249867 8.11006211,16.8291748 C8.6018811,16.4820586 9.03673469,16.0589175 9.40259095,15.571677 C9.66740018,15.219024 9.59616681,14.7183673 9.24351375,14.4536646 C8.89075421,14.1888554 8.39020408,14.2600887 8.12539485,14.6127418 C7.94427684,14.853913 7.74037267,15.07315 7.51613132,15.2678971 C7.17444543,14.9757232 6.75545697,14.792795 6.31102041,14.7373203 C6.15801242,14.1358296 6.07975155,13.5207098 6.07975155,12.9019698 C6.07975155,8.60475599 9.74342502,5.10857143 14.2467791,5.10857143 C18.7500266,5.10857143 22.4137001,8.60464951 22.4137001,12.9019698 C22.4137001,13.5195386 22.3358651,14.1333807 22.1833895,14.7338066 C21.9732032,14.7505235 21.7596096,14.7849157 21.5618811,14.8362378 L20.9615617,14.3426087 C20.6599113,14.0945164 20.280213,13.9703638 19.8959361,13.9932564 C18.7221295,14.0625732 12.71063,14.221331 9.62640639,10.5301863 C9.34360248,10.1918012 8.84007098,10.1466548 8.50157941,10.4294587 C8.16308784,10.7122626 8.11804791,11.2159006 8.40085182,11.5542857 C9.92198758,13.3747294 12.153008,14.6057143 15.0318367,15.2130612 C17.2360248,15.6780479 19.1954215,15.6329015 19.9631233,15.5891393 L20.8996983,16.3592902 C21.15748,16.5712866 21.5189707,16.6012067 21.8076309,16.4331854 C21.9430701,16.3593966 22.3966637,16.2889086 22.5946051,16.3284117 C22.917551,16.3926176 23.1609583,16.7148181 23.1609583,17.0780124 L23.1609583,17.6602307 C23.1609583,18.0296007 22.9312866,18.362449 22.6267613,18.4344277 C22.5561668,18.4511446 22.4859982,18.4572138 22.4181721,18.4521029 C21.6534516,18.3965217 20.9418634,18.9526531 20.8009938,19.7195031 C20.2200532,22.8824135 17.4636735,25.1780657 14.2468855,25.1780657 C11.0299911,25.1780657 8.27350488,22.8824135 7.69256433,19.7196096 Z M10.9354392,33.7294765 L8.53352263,29.830701 L9.76397516,28.6002484 L13.0709494,31.9072227 L10.9354392,33.7294765 Z M14.2467791,30.8242413 L11.3097072,27.8871695 L11.3097072,26.2350665 C12.2265839,26.5840994 13.2173558,26.7752263 14.2467791,26.7752263 C15.2762023,26.7752263 16.2669743,26.5840994 17.1838509,26.235173 L17.1838509,27.8871695 L14.2467791,30.8242413 Z M17.5581189,33.7294765 L15.4226087,31.9072227 L18.729583,28.6002484 L19.9600355,29.830701 L17.5581189,33.7294765 Z" id="Shape"></path>
                        <path d="M11.2582786,38.6263709 L9.0169299,38.6263709 C8.57590062,38.6263709 8.2183496,38.9839219 8.2183496,39.4249512 C8.2183496,39.8659805 8.57590062,40.2235315 9.0169299,40.2235315 L11.2582786,40.2235315 C11.6993079,40.2235315 12.0568589,39.8659805 12.0568589,39.4249512 C12.0568589,38.9839219 11.6993079,38.6263709 11.2582786,38.6263709 Z" id="Path"></path>
                    </g>
                </g>
            </g>
        </g>
    </g>
</svg>