<svg id="Group" xmlns="http://www.w3.org/2000/svg" width="80" height="80" viewBox="0 0 80 80">
  <circle id="Oval" cx="40" cy="40" r="40" fill="#fff"/>
  <g id="mute" transform="translate(25 25)">
    <path id="Path" d="M9.794.281h0a.946.946,0,0,0-1.345,0L5.038,3.693,1.625.281a.946.946,0,0,0-1.345,0h0a.946.946,0,0,0,0,1.345L3.693,5.038.281,8.45a.946.946,0,0,0,0,1.345h0a.946.946,0,0,0,1.345,0L5.038,6.382,8.45,9.794a.946.946,0,0,0,1.345,0h0a.946.946,0,0,0,0-1.345L6.382,5.044,9.794,1.632A.965.965,0,0,0,9.794.281Z" transform="translate(19.47 10.115)" fill="#eb2a74"/>
    <path id="Shape" d="M15.228,29.707,6.666,21.621H.831A.834.834,0,0,1,0,20.79V9.145a.834.834,0,0,1,.831-.831H6.666L15.228.228a.832.832,0,0,1,1.4.6V29.105a.832.832,0,0,1-.5.76.747.747,0,0,1-.329.07A.819.819,0,0,1,15.228,29.707Z" transform="translate(0 0.052)" fill="#eb2a74"/>
  </g>
</svg>
