<?xml version="1.0" encoding="UTF-8"?>
<svg width="27px" height="24px" viewBox="0 0 27 24" version="1.1" xmlns="http://www.w3.org/2000/svg" xmlns:xlink="http://www.w3.org/1999/xlink">
    <title>heart</title>
    <g id="Design" stroke="none" stroke-width="1" fill="none" fill-rule="evenodd">
        <g id="4-Profile" transform="translate(-1551.000000, -258.000000)" fill="#EB2A74" fill-rule="nonzero">
            <g id="Group-12" transform="translate(144.000000, 200.000000)">
                <g id="Group-7" transform="translate(1149.000000, 40.000000)">
                    <g id="Group-7-Copy-3" transform="translate(209.000000, 0.000000)">
                        <g id="heart" transform="translate(49.000000, 18.000000)">
                            <path d="M13.5,24 C13.1156159,24 12.7450333,23.860872 12.4562302,23.6081364 C11.3654938,22.6552328 10.3138962,21.7597503 9.38610076,20.9698487 L9.38136294,20.9657325 C6.66121672,18.6497445 4.31227114,16.6496758 2.67791748,14.6794498 C0.850959791,12.4768635 3.83693077e-13,10.388502 3.83693077e-13,8.10709019 C3.83693077e-13,5.89050868 0.760734545,3.84557334 2.14192202,2.34871197 C3.53958894,0.834150846 5.45738982,1.42108547e-14 7.54266357,1.42108547e-14 C9.10121157,1.42108547e-14 10.5285416,0.492299249 11.7848968,1.46310841 C12.4189453,1.95314373 12.9936676,2.5528762 13.5,3.25242686 C14.0065384,2.5528762 14.5810547,1.95314373 15.2153092,1.46310841 C16.4716644,0.492299249 17.8989945,1.42108547e-14 19.4575424,1.42108547e-14 C21.5426102,1.42108547e-14 23.460617,0.834150846 24.858284,2.34871197 C26.2394714,3.84557334 27,5.89050868 27,8.10709019 C27,10.388502 26.1492462,12.4768635 24.3222885,14.679244 C22.6879349,16.6496758 20.3391952,18.6495387 17.6194611,20.9653209 C16.6900177,21.7564573 15.6367721,22.6533804 14.5435638,23.608548 C14.2549667,23.860872 13.8841781,24 13.5,24 L13.5,24 Z M8.00197031,2 C6.35251216,2 4.83724226,2.65829158 3.73490726,3.85375246 C2.61618764,5.06725726 2,6.74471866 2,8.57731622 C2,10.5109181 2.71864364,12.2402299 4.32994005,14.1844093 C5.88731227,16.0636722 8.20377123,18.0377174 10.8858777,20.3234867 L10.8908553,20.3276347 C11.8285141,21.1267518 12.891443,22.0326805 13.9977186,23 C15.110631,22.0308139 16.1752191,21.1234334 17.1147444,20.3230719 C19.7966435,18.0373026 22.1128951,16.0636722 23.6702673,14.1844093 C25.2813564,12.2402299 26,10.5109181 26,8.57731622 C26,6.74471866 25.3838124,5.06725726 24.2650927,3.85375246 C23.1629651,2.65829158 21.6474878,2 19.9982371,2 C18.7899203,2 17.6805337,2.38410708 16.70098,3.14153655 C15.8280302,3.81683506 15.2199312,4.6704986 14.8634093,5.26781424 C14.6800671,5.57497555 14.3573515,5.75831826 14,5.75831826 C13.6426485,5.75831826 13.3199329,5.57497555 13.1365907,5.26781424 C12.7802762,4.6704986 12.1721772,3.81683506 11.29902,3.14153655 C10.3194663,2.38410708 9.21007967,2 8.00197031,2 Z" id="Shape"></path>
                        </g>
                    </g>
                </g>
            </g>
        </g>
    </g>
</svg>