<?xml version="1.0" encoding="UTF-8"?>
<svg width="16px" height="16px" viewBox="0 0 16 16" version="1.1" xmlns="http://www.w3.org/2000/svg" xmlns:xlink="http://www.w3.org/1999/xlink">
    <title>letter-x</title>
    <g id="Design" stroke="none" stroke-width="1" fill="none" fill-rule="evenodd">
        <g id="13-Celebrity-profile" transform="translate(-709.000000, -895.000000)" fill="#EB2A74" fill-rule="nonzero">
            <g id="Group-2-Copy-3" transform="translate(626.000000, 755.000000)">
                <g id="Group-7-Copy-3" transform="translate(40.000000, 125.000000)">
                    <g id="letter-x" transform="translate(43.000000, 15.000000)">
                        <path d="M0.225391304,1.328 C-0.0730434783,1.02956522 -0.0730434783,0.532869565 0.225391304,0.224 C0.53426087,-0.0744347826 1.02052174,-0.0744347826 1.3293913,0.224 L7.95408696,6.85982609 L14.589913,0.224 C14.8883478,-0.0744347826 15.3850435,-0.0744347826 15.6827826,0.224 C15.9916522,0.532869565 15.9916522,1.03026087 15.6827826,1.328 L9.05808696,7.9533913 L15.6827826,14.5892174 C15.9916522,14.8876522 15.9916522,15.3843478 15.6827826,15.6932174 C15.3843478,15.9916522 14.8876522,15.9916522 14.589913,15.6932174 L7.95408696,9.0573913 L1.3293913,15.6932174 C1.02052174,15.9916522 0.53426087,15.9916522 0.225391304,15.6932174 C-0.0730434783,15.3843478 -0.0730434783,14.8869565 0.225391304,14.5892174 L6.85008696,7.9533913 L0.225391304,1.328 Z" id="Path"></path>
                    </g>
                </g>
            </g>
        </g>
    </g>
</svg>