<?xml version="1.0" encoding="UTF-8"?>
<svg width="36px" height="48px" viewBox="0 0 36 48" version="1.1" xmlns="http://www.w3.org/2000/svg" xmlns:xlink="http://www.w3.org/1999/xlink">
    <title>lock</title>
    <g id="Design" stroke="none" stroke-width="1" fill="none" fill-rule="evenodd">
        <g id="9-Settings" transform="translate(-576.000000, -250.000000)" fill="#EB2A74" fill-rule="nonzero">
            <g id="Group-11" transform="translate(208.000000, 125.000000)">
                <g id="Group-15-Copy" transform="translate(41.000000, 98.000000)">
                    <g id="lock" transform="translate(327.000000, 27.000000)">
                        <path d="M15.63675,33.2168437 L15.0059063,38.8896562 C14.9746875,39.1718437 15.0654375,39.4550625 15.2549063,39.6670312 C15.444375,39.8789062 15.715875,40.0000312 16.0000313,40.0000312 L20.0000625,40.0000312 C20.2842188,40.0000312 20.5557188,39.8789062 20.7451875,39.6670312 C20.9346563,39.4551562 21.0255,39.1719375 20.9941875,38.8896562 L20.3633438,33.2168437 C21.38775,32.4717187 22.0000313,31.293 22.0000313,30 C22.0000313,27.7939688 20.206125,25.9999688 18,25.9999688 C15.793875,25.9999688 13.9999688,27.7939688 13.9999688,30 C13.9999688,31.293 14.6123438,32.4717187 15.63675,33.2168437 Z M18,28.0000312 C19.1025,28.0000312 19.9999688,28.8975 19.9999688,30 C19.9999688,30.7665937 19.5644062,31.453125 18.86325,31.7929687 C18.4814063,31.9785 18.2578125,32.3828437 18.3046875,32.8036875 L18.8828437,37.9999687 L17.11725,37.9999687 L17.6954062,32.8036875 C17.7422812,32.38275 17.5186875,31.9785 17.1368437,31.7929687 C16.4356875,31.453125 16.000125,30.7665937 16.000125,30 C16.0000313,28.8975 16.8975,28.0000312 18,28.0000312 Z" id="Shape"></path>
                        <path d="M34.9999688,18 L31.9999688,18 L31.9999688,13.9999688 C31.9999688,6.2803125 25.71975,0 18,0 C10.28025,0 4.00003125,6.2803125 4.00003125,13.9999688 L4.00003125,18 L1.00003125,18 C0.44728125,18 0,18.4472812 0,19.0000312 L0,44.0000625 C0,46.2060938 1.79390625,48 4.00003125,48 L32.0000625,48 C34.2060938,48 36,46.2060938 36,43.9999688 L36,19.0000312 C36,18.4472812 35.5527187,18 34.9999688,18 Z M6,13.9999688 C6,7.3828125 11.3828437,1.99996875 18,1.99996875 C24.6171562,1.99996875 30,7.3828125 30,13.9999688 L30,18 L28.0000313,18 L28.0000313,13.9999688 C28.0000313,8.48625 23.5137188,3.9999375 18,3.9999375 C12.4862812,3.9999375 7.99996875,8.48634375 7.99996875,13.9999688 L7.99996875,18 L6,18 L6,13.9999688 Z M25.9999688,13.9999688 L25.9999688,18 L10.0000312,18 L10.0000312,13.9999688 C10.0000312,9.58884375 13.588875,6 18,6 C22.411125,6 25.9999688,9.58884375 25.9999688,13.9999688 Z M34.0000312,43.9999688 C34.0000312,45.1024687 33.1025625,45.9999375 32.0000625,45.9999375 L4.00003125,45.9999375 C2.89753125,45.9999375 2.0000625,45.1024687 2.0000625,43.9999688 L2.0000625,19.9999688 L34.0000312,19.9999688 L34.0000312,43.9999688 L34.0000312,43.9999688 Z" id="Shape"></path>
                    </g>
                </g>
            </g>
        </g>
    </g>
</svg>