<?xml version="1.0" encoding="UTF-8"?>
<svg width="156px" height="120px" viewBox="0 0 156 120" version="1.1" xmlns="http://www.w3.org/2000/svg" xmlns:xlink="http://www.w3.org/1999/xlink">
    <title>Group 4</title>
    <g id="Design" stroke="none" stroke-width="1" fill="none" fill-rule="evenodd">
        <g id="10-My-profile-no-videos" transform="translate(-882.000000, -760.000000)" fill="#EB2A74" fill-rule="nonzero">
            <g id="icon-video" transform="translate(882.000000, 760.000000)">
                <path d="M155.524476,30.7692308 C155.518081,17.5960255 147.126549,5.88830652 134.653591,1.65053675 C122.180633,-2.58723302 108.393711,1.58521013 100.363636,12.027972 C85.6167832,11.5132867 71.8321678,11.4237762 71.6335664,11.4237762 L71.5832168,11.4237762 C71.3034965,11.4237762 42.7020979,11.613986 23.6,12.9902098 L23.3482517,13.0153846 C23.1440559,13.0433566 22.9202797,13.0685315 22.6769231,13.0965035 C19.5804196,13.4545455 13.1076923,14.2013986 7.33146853,20.5566434 C2.57622378,25.7174825 1.21118881,35.751049 1.07132867,36.8783217 L1.05454545,37.0237762 C1.00979021,37.5048951 0,48.9230769 0,60.3888112 L0,71.1048951 C0,82.5734266 1.00979021,93.9888112 1.05454545,94.4699301 L1.05454545,94.5426573 C1.17482517,95.6755245 2.38321678,105.731469 7.34265734,110.959441 C12.7608392,116.88951 19.6111888,117.672727 23.2867133,118.095105 C23.8685315,118.162238 24.372028,118.218182 24.7132867,118.27972 L25.0433566,118.324476 C35.9748252,119.365035 70.2517483,119.876923 71.7034965,119.899301 L71.7902098,119.899301 C72.0699301,119.899301 100.668531,119.709091 119.602797,118.332867 L119.851748,118.307692 C120.092308,118.276923 120.360839,118.248951 120.654545,118.218182 C123.731469,117.890909 130.165035,117.208392 135.868531,110.945455 C140.623776,105.784615 141.988811,95.751049 142.128671,94.6237762 L142.145455,94.4783217 C142.187413,93.9972028 143.2,82.579021 143.2,71.1160839 L143.2,60.3888112 C143.2,58.7104895 143.177622,57.0461538 143.141259,55.4097902 C150.928177,49.6123352 155.519029,40.4772968 155.524476,30.7692308 Z M124.755245,8.39160839 C137.114064,8.39160839 147.132867,18.4104112 147.132867,30.7692308 C147.132867,43.1280503 137.114064,53.1468531 124.755245,53.1468531 C112.396425,53.1468531 102.377622,43.1280503 102.377622,30.7692308 C102.391496,18.4161625 112.402176,8.40548219 124.755245,8.39160839 Z M134.825175,60.3888112 L134.825175,71.1048951 C134.825175,81.7146853 133.899301,92.6433566 133.812587,93.6475524 C133.457343,96.4111888 132.008392,102.758042 129.695105,105.272727 C126.128671,109.188811 122.464336,109.586014 119.79021,109.868531 C119.465734,109.902098 119.166434,109.935664 118.895105,109.969231 C100.581818,111.292308 73.0685315,111.496503 71.8013986,111.504895 C70.3804196,111.485315 36.606993,110.967832 26.0083916,109.983217 C25.4657343,109.893706 24.8895105,109.826573 24.2601399,109.756643 C21.1244755,109.395804 16.827972,108.917483 13.5272727,105.281119 L13.448951,105.197203 C11.1776224,102.830769 9.77062937,96.8923077 9.41258741,93.6867133 C9.34265734,92.9202797 8.39160839,81.8629371 8.39160839,71.1048951 L8.39160839,60.3888112 C8.39160839,49.7902098 9.31468531,38.8755245 9.40699301,37.8517483 C9.83216783,34.5958042 11.3062937,28.620979 13.5244755,26.2237762 C17.2,22.1818182 21.0769231,21.7342657 23.6391608,21.4377622 L24.3356643,21.351049 C42.9146853,20.0195804 70.6265734,19.8237762 71.6083916,19.8153846 C72.2265734,19.8153846 83.1916084,19.8993007 95.8237762,20.2769231 C91.7765857,31.4319622 94.5047577,43.9201207 102.835105,52.3711541 C111.165452,60.8221875 123.61308,63.7296898 134.825175,59.8433566 C134.825175,60.0251748 134.825175,60.206993 134.825175,60.3888112 Z" id="Shape"></path>
                <path d="M136.948252,18.5706294 C135.309791,16.9326632 132.653846,16.9326632 131.015385,18.5706294 L124.755245,24.8363636 L118.486713,18.5706294 C116.840368,16.9805362 114.223421,17.0032768 112.604957,18.6217402 C110.986494,20.2402037 110.963753,22.8571515 112.553846,24.5034965 L118.816783,30.7692308 L112.553846,37.0321678 C111.463119,38.0856271 111.025681,39.6456415 111.409662,41.1126181 C111.793643,42.5795948 112.939286,43.725238 114.406263,44.1092188 C115.87324,44.4931997 117.433254,44.0557619 118.486713,42.965035 L124.755245,36.7020979 L131.018182,42.965035 C132.071641,44.0557619 133.631655,44.4931997 135.098632,44.1092188 C136.565609,43.725238 137.711252,42.5795948 138.095233,41.1126181 C138.479214,39.6456415 138.041776,38.0856271 136.951049,37.0321678 L130.682517,30.7692308 L136.945455,24.5062937 C137.733273,23.7197218 138.176202,22.6523035 138.176727,21.5390411 C138.177251,20.4257787 137.735329,19.3579435 136.948252,18.5706294 L136.948252,18.5706294 Z" id="Path"></path>
                <path d="M93.6531469,59.2531469 L62.013986,41.9412587 C60.2131721,40.9565028 58.0265033,40.9944769 56.2609679,42.0411667 C54.4954325,43.0878565 53.4125592,44.9880793 53.4125592,47.0405594 L53.4125592,81.365035 C53.4062127,83.4128608 54.4799518,85.3123489 56.2377774,86.3629109 C57.995603,87.413473 60.1770831,87.4594621 61.9776224,86.4839161 L93.6195804,69.4713287 C95.4969806,68.4614227 96.6709157,66.5048384 96.6785391,64.3730589 C96.6860885,62.2412794 95.5261088,60.2763894 93.6559441,59.2531469 L93.6531469,59.2531469 Z M61.8041958,77.0461538 L61.8041958,51.393007 L85.4517483,64.3356643 L61.8041958,77.0461538 Z" id="Shape"></path>
            </g>
        </g>
    </g>
</svg>