<?xml version="1.0" encoding="UTF-8"?>
<svg width="25px" height="32px" viewBox="0 0 25 32" version="1.1" xmlns="http://www.w3.org/2000/svg" xmlns:xlink="http://www.w3.org/1999/xlink">
    <title>Shape</title>
    <g id="Design" stroke="none" stroke-width="1" fill="none" fill-rule="evenodd">
        <g id="9-Settings" transform="translate(-319.000000, -52.000000)" fill="#8F9094" fill-rule="nonzero">
            <g id="Group-10">
                <g id="Group-3" transform="translate(144.000000, 0.000000)">
                    <g id="notifications" transform="translate(169.000000, 52.000000)">
                        <g id="not-active">
                            <path d="M29.9575,22.2825 L28.5,21.3108125 L28.5,12.875 C28.5,7.5046875 24.3735625,3.0808125 19.125,2.6055625 L19.125,0.9375 C19.125,0.41975 18.70525,0 18.1875,0 C17.66975,0 17.25,0.41975 17.25,0.9375 L17.25,2.6055625 C12.0014375,3.0808125 7.875,7.5046875 7.875,12.875 L7.875,21.3108125 L6.4175,22.2825 C6.156625,22.456375 6,22.749 6,23.0625 L6,26.8125 C6,27.33025 6.41975,27.75 6.9375,27.75 L13.1171875,27.75 C13.55725,30.1641875 15.6625625,32 18.1875,32 C20.712375,32 22.81775,30.1641875 23.2578125,27.75 L29.4375,27.75 C29.95525,27.75 30.375,27.33025 30.375,26.8125 L30.375,23.0625 C30.375,22.749 30.2183125,22.4563125 29.9575,22.2825 Z M18.1875,30.125 C16.7006875,30.125 15.4415625,29.1213125 15.0400625,27.75 L21.335,27.75 C20.9334375,29.1213125 19.6743125,30.125 18.1875,30.125 Z M28.5,25.875 C27.6299375,25.875 8.899125,25.875 7.875,25.875 L7.875,23.5641875 L9.3325,22.5925 C9.5933125,22.4186875 9.75,22.1259375 9.75,21.8125 L9.75,12.875 C9.75,8.2225625 13.5350625,4.4375 18.1875,4.4375 C22.8399375,4.4375 26.625,8.2225625 26.625,12.875 L26.625,21.8125 C26.625,22.126 26.7816875,22.4186875 27.0425,22.5925 L28.5,23.5641875 L28.5,25.875 Z" id="Shape"></path>
                        </g>
                    </g>
                </g>
            </g>
        </g>
    </g>
</svg>