<?xml version="1.0" encoding="UTF-8"?>
<svg width="37px" height="48px" viewBox="0 0 37 48" version="1.1" xmlns="http://www.w3.org/2000/svg" xmlns:xlink="http://www.w3.org/1999/xlink">
    <title>Shape</title>
    <g id="design" stroke="none" stroke-width="1" fill="none" fill-rule="evenodd">
        <g id="0-Menu-logged-in" transform="translate(-157.000000, -514.000000)" fill="#FFFFFF" fill-rule="nonzero">
            <g id="Group" transform="translate(157.000000, 514.000000)">
                <g id="not-active">
                    <path d="M35.93625,33.42375 L33.75,31.9662188 L33.75,19.3125 C33.75,11.2570313 27.5603437,4.62121875 19.6875,3.90834375 L19.6875,1.40625 C19.6875,0.629625 19.057875,0 18.28125,0 C17.504625,0 16.875,0.629625 16.875,1.40625 L16.875,3.90834375 C9.00215625,4.62121875 2.8125,11.2570313 2.8125,19.3125 L2.8125,31.9662188 L0.62625,33.42375 C0.2349375,33.6845625 0,34.1235 0,34.59375 L0,40.21875 C0,40.995375 0.629625,41.625 1.40625,41.625 L10.6757812,41.625 C11.335875,45.2462813 14.4938437,48 18.28125,48 C22.0685625,48 25.226625,45.2462813 25.8867188,41.625 L35.15625,41.625 C35.932875,41.625 36.5625,40.995375 36.5625,40.21875 L36.5625,34.59375 C36.5625,34.1235 36.3274688,33.6844688 35.93625,33.42375 Z M18.28125,45.1875 C16.0510313,45.1875 14.1623437,43.6819687 13.5600938,41.625 L23.0025,41.625 C22.4001562,43.6819687 20.5114687,45.1875 18.28125,45.1875 Z M33.75,38.8125 C32.4449063,38.8125 4.3486875,38.8125 2.8125,38.8125 L2.8125,35.3462813 L4.99875,33.88875 C5.38996875,33.6280312 5.625,33.1889063 5.625,32.71875 L5.625,19.3125 C5.625,12.3338437 11.3025937,6.65625 18.28125,6.65625 C25.2599062,6.65625 30.9375,12.3338437 30.9375,19.3125 L30.9375,32.71875 C30.9375,33.189 31.1725313,33.6280312 31.56375,33.88875 L33.75,35.3462813 L33.75,38.8125 Z" id="Shape"></path>
                </g>
            </g>
        </g>
    </g>
</svg>