<?xml version="1.0" encoding="UTF-8"?>
<svg width="24px" height="24px" viewBox="0 0 24 24" version="1.1" xmlns="http://www.w3.org/2000/svg" xmlns:xlink="http://www.w3.org/1999/xlink">
    <title>pen</title>
    <g id="Design" stroke="none" stroke-width="1" fill="none" fill-rule="evenodd">
        <g id="10-My-profile-no-videos" transform="translate(-1554.000000, -258.000000)" fill="#EB2A74" fill-rule="nonzero">
            <g id="Group-5" transform="translate(144.000000, 200.000000)">
                <g id="Group-7-Copy-3" transform="translate(1358.000000, 40.000000)">
                    <g id="pen" transform="translate(52.000000, 18.000000)">
                        <path d="M21.1858517,1.01456044 C19.8991071,-0.269917609 17.8153846,-0.269917609 16.5286401,1.01456044 L15.3628434,2.18674449 L2.95302198,14.5899725 L2.92664835,14.6165522 C2.92026098,14.6229395 2.92026098,14.629739 2.91346154,14.629739 C2.90027473,14.6495192 2.88049451,14.6690934 2.86751372,14.6888736 C2.86751372,14.695467 2.86071429,14.695467 2.86071429,14.7020604 C2.84752747,14.7218406 2.8411401,14.7350274 2.82774725,14.7548077 C2.82135988,14.7614011 2.82135988,14.7677884 2.81476647,14.7745879 C2.80817306,14.7943681 2.80157966,14.8075549 2.79478022,14.8273351 C2.79478022,14.8337225 2.78839284,14.8337225 2.78839284,14.840522 L0.0350274462,23.1201923 C-0.0457417846,23.3559066 0.0156593407,23.6169643 0.193063174,23.7918956 C0.317719807,23.9149039 0.485851675,23.9837225 0.66078298,23.9831085 C0.732280193,23.9818681 0.803159314,23.9707417 0.87156596,23.9501374 L9.14484891,21.1901786 C9.15123629,21.1901786 9.15123629,21.1901786 9.15803573,21.1837912 C9.17884615,21.1776099 9.1988324,21.16875 9.21717036,21.1572116 C9.22232144,21.1565934 9.22685438,21.1543269 9.2305632,21.1508242 C9.25013739,21.1376374 9.27651102,21.1242445 9.29629124,21.1110577 C9.31586537,21.0980769 9.33585167,21.0782967 9.35563189,21.0651099 C9.3622253,21.0583105 9.36861262,21.0583105 9.36861262,21.0519231 C9.37541211,21.0453297 9.38859893,21.0389423 9.39519233,21.0255495 L22.9708104,7.44993131 C24.2552885,6.16318681 24.2552885,4.0794643 22.9708104,2.79292584 L21.1858517,1.01456044 Z M8.93406593,19.6421703 L4.34958794,15.0578983 L15.8239698,3.58351648 L20.4084478,8.16778845 L8.93406593,19.6421703 Z M3.70384615,16.2764423 L7.7089286,20.2813187 L1.69491756,22.2836539 L3.70384615,16.2764423 Z M22.0421703,6.52767856 L21.3438873,7.23255497 L16.7592033,2.64787089 L17.4642857,1.94320056 C18.2355083,1.17259617 19.4855769,1.17259617 20.2570055,1.94320056 L22.0485577,3.73475277 C22.814011,4.50947805 22.8111264,5.7566621 22.0421703,6.52767856 Z" id="Shape"></path>
                    </g>
                </g>
            </g>
        </g>
    </g>
</svg>