<?xml version="1.0" encoding="UTF-8"?>
<svg width="24px" height="24px" viewBox="0 0 24 24" version="1.1" xmlns="http://www.w3.org/2000/svg" xmlns:xlink="http://www.w3.org/1999/xlink">
    <title>button</title>
    <g id="Design" stroke="none" stroke-width="1" fill="none" fill-rule="evenodd">
        <g id="15-Booking-request" transform="translate(-877.000000, -962.000000)" fill="#EB2A74" fill-rule="nonzero">
            <g id="Group-8" transform="translate(353.000000, 320.000000)">
                <g id="Group" transform="translate(378.000000, 624.000000)">
                    <g id="button" transform="translate(146.000000, 18.000000)">
                        <path d="M11.9906136,5.99533489 C8.68119906,5.99533489 5.99527869,8.68125527 5.99527869,11.9906698 C5.99527869,15.3000843 8.68119906,17.9859485 11.9906136,17.9859485 C15.3000281,17.9859485 17.9859485,15.3000281 17.9859485,11.9906136 C17.9859485,8.68119906 15.3000281,5.99533489 11.9906136,5.99533489 Z" id="Path"></path>
                        <path d="M11.9906136,0 C5.3658267,0 0,5.3658267 0,11.9906136 C0,18.6154005 5.3658267,23.9812272 11.9906136,23.9812272 C18.6154005,23.9812272 23.9812834,18.6154567 23.9812834,11.9906136 C23.9812834,5.36577049 18.6154567,0 11.9906136,0 Z M11.9906136,21.5831382 C6.69077283,21.5831382 2.39808899,17.2905105 2.39808899,11.9906136 C2.39808899,6.69071663 6.69077283,2.3981452 11.9906136,2.3981452 C17.2904543,2.3981452 21.5831382,6.69077283 21.5831382,11.9906136 C21.5831382,17.2904543 17.2905105,21.5831382 11.9906136,21.5831382 Z" id="Shape"></path>
                    </g>
                </g>
            </g>
        </g>
    </g>
</svg>