<?xml version="1.0" encoding="UTF-8"?>
<svg width="32px" height="32px" viewBox="0 0 32 32" version="1.1" xmlns="http://www.w3.org/2000/svg" xmlns:xlink="http://www.w3.org/1999/xlink">
    <title>settings</title>
    <g id="Design" stroke="none" stroke-width="1" fill="none" fill-rule="evenodd">
        <g id="9-Settings" transform="translate(-248.000000, -52.000000)" fill="#EB2A74" fill-rule="nonzero">
            <g id="Group-10">
                <g id="Group-3" transform="translate(144.000000, 0.000000)">
                    <g id="settings" transform="translate(104.000000, 52.000000)">
                        <g id="active">
                            <path d="M30.6661875,19.5066875 L27.724875,17.2066875 C27.7621875,16.852 27.7941875,16.437375 27.7941875,15.9986875 C27.7941875,15.56 27.7635,15.145375 27.724875,14.7906875 L30.668875,12.489375 C31.2155625,12.057375 31.364875,11.2906875 31.016875,10.6520625 L27.9581875,5.36 C27.6315,4.7626875 26.9155,4.456 26.188875,4.724 L22.7181875,6.1173125 C22.052875,5.6373125 21.3555,5.232 20.6341875,4.908 L20.1061875,1.2266875 C20.0195,0.528 19.4115,0 18.692875,0 L12.5595625,0 C11.840875,0 11.23425,0.528 11.148875,1.216 L10.6195625,4.9106875 C9.920875,5.225375 9.23425,5.625375 8.5395625,6.12 L5.0595625,4.7226875 C4.4075,4.4706875 3.6275,4.7533125 3.3035,5.348 L0.240875,10.6466875 C-0.1204375,11.257375 0.028875,12.0506875 0.5875625,12.493375 L3.528875,14.793375 C3.4821875,15.2426875 3.4595625,15.633375 3.4595625,16.0000625 C3.4595625,16.36675 3.48225,16.757375 3.528875,17.2080625 L0.584875,19.509375 C0.0381875,19.9426875 -0.1098125,20.709375 0.2381875,21.3466875 L3.296875,26.6386875 C3.6235625,27.2346875 4.332875,27.544 5.0661875,27.2746875 L8.536875,25.881375 C9.200875,26.3600625 9.8981875,26.765375 10.6195625,27.0906875 L11.1475625,30.7706875 C11.2341875,31.472 11.840875,32 12.560875,32 L18.6941875,32 C19.412875,32 20.020875,31.472 20.1061875,30.784 L20.6355,27.0906875 C21.3341875,26.7746875 22.0195,26.376 22.7155,25.88 L26.1955,27.2773125 C26.3635,27.342625 26.5381875,27.376 26.7181875,27.376 C27.2355,27.376 27.7115,27.0933125 27.9515,26.6533125 L31.0235,21.3333125 C31.364875,20.7093125 31.2155,19.9426875 30.6661875,19.5066875 Z M15.6261875,21.3333125 C12.684875,21.3333125 10.292875,18.9413125 10.292875,16 C10.292875,13.0586875 12.684875,10.6666875 15.6261875,10.6666875 C18.5675,10.6666875 20.9595,13.0586875 20.9595,16 C20.9595,18.9413125 18.5675,21.3333125 15.6261875,21.3333125 Z" id="Shape"></path>
                        </g>
                    </g>
                </g>
            </g>
        </g>
    </g>
</svg>