<?xml version="1.0" encoding="UTF-8"?>
<svg width="32px" height="32px" viewBox="0 0 32 32" version="1.1" xmlns="http://www.w3.org/2000/svg" xmlns:xlink="http://www.w3.org/1999/xlink">
    <title>settings</title>
    <g id="Design" stroke="none" stroke-width="1" fill="none" fill-rule="evenodd">
        <g id="8-Notifications" transform="translate(-248.000000, -52.000000)" fill="#8F9094" fill-rule="nonzero">
            <g id="Group-3" transform="translate(144.000000, 0.000000)">
                <g id="not-active" transform="translate(104.000000, 52.000000)">
                    <path d="M30.6661875,19.508 L27.724875,17.208 C27.7635625,16.8533125 27.7941875,16.4386875 27.7941875,16 C27.7941875,15.5613125 27.7621875,15.1466875 27.724875,14.792 L30.668875,12.4906875 C31.2155625,12.0586875 31.3661875,11.292 31.016875,10.653375 L27.9581875,5.361375 C27.6235,4.7520625 26.872875,4.473375 26.188875,4.725375 L22.7181875,6.1186875 C22.0541875,5.6386875 21.356875,5.233375 20.6355,4.909375 L20.1075,1.2280625 C20.020875,0.528 19.412875,0 18.6941875,0 L12.560875,0 C11.8421875,0 11.2341875,0.528 11.148875,1.2146875 L10.6195625,4.909375 C9.920875,5.225375 9.23425,5.6240625 8.5395625,6.1200625 L5.0595625,4.72275 C4.39425,4.46275 3.636875,4.7374375 3.3035625,5.3480625 L0.240875,10.6480625 C-0.1204375,11.25875 0.0275625,12.05075 0.5875625,12.493375 L3.528875,14.7920625 C3.4821875,15.24275 3.4595625,15.633375 3.4595625,16.0000625 C3.4595625,16.36675 3.48225,16.757375 3.52625,17.2080625 L0.58225,19.51075 C0.036875,19.9426875 -0.1125,20.7093125 0.2355,21.348 L3.2941875,26.64 C3.6261875,27.248 4.3755,27.5253125 5.0635,27.276 L8.5341875,25.8826875 C9.1981875,26.361375 9.896875,26.7666875 10.6181875,27.092 L11.1461875,30.772 C11.232875,31.472 11.840875,32 12.5595,32 L18.6928125,32 C19.4115,32 20.0195,31.472 20.1048125,30.7853125 L20.634125,27.092 C21.3328125,26.776 22.0194375,26.3773125 22.714125,25.8813125 L26.194125,27.278625 C26.8568125,27.5359375 27.6168125,27.2639375 27.950125,26.6533125 L31.0248125,21.334625 C31.364875,20.7106875 31.2155,19.944 30.6661875,19.508 Z M29.8595,20.6813125 L26.6835,26.038625 L22.8661875,24.5053125 C22.6501875,24.418625 22.404875,24.452 22.2181875,24.590625 C21.3915,25.2093125 20.592875,25.674625 19.7741875,26.0093125 C19.5555,26.098625 19.3995,26.2973125 19.3661875,26.532 L18.692875,30.6666875 L12.4701875,30.596 L11.8875,26.5333125 C11.8528125,26.298625 11.6981875,26.1 11.4795,26.010625 C10.6275,25.6613125 9.8075,25.1853125 9.0408125,24.5959375 C8.922125,24.5039375 8.778125,24.45725 8.634125,24.45725 C8.550125,24.45725 8.466125,24.4719375 8.3848125,24.50525 L4.458125,25.9865625 L1.3994375,20.6945625 C1.3714375,20.6425625 1.37675,20.5825625 1.40875,20.55725 L4.64475,18.0279375 C4.82875,17.8839375 4.92475,17.6519375 4.8954375,17.4199375 C4.82475,16.86125 4.79275,16.40925 4.79275,15.9999375 C4.79275,15.590625 4.8260625,15.1399375 4.8954375,14.5799375 C4.92475,14.346625 4.82875,14.1159375 4.64475,13.9719375 L1.392875,11.32 L4.568875,5.9626875 L8.3861875,7.496 C8.6035,7.584 8.8475,7.5506875 9.0355,7.4106875 C9.8608125,6.7906875 10.6608125,6.3266875 11.4795,5.992 C11.6981875,5.9013125 11.8528125,5.7026875 11.8861875,5.4693125 L12.560875,1.3333125 L18.784875,1.4053125 L19.3661875,5.4693125 C19.400875,5.704 19.5555,5.902625 19.7741875,5.992 C20.624875,6.34 21.444875,6.816 22.212875,7.4066875 C22.400875,7.5506875 22.6475625,7.585375 22.8675625,7.496 L26.79425,6.0146875 L29.8529375,11.3066875 C29.8809375,11.3586875 29.875625,11.417375 29.843625,11.4426875 L26.607625,13.972 C26.423625,14.116 26.327625,14.3466875 26.3569375,14.58 C26.407625,14.9853125 26.459625,15.472 26.459625,16 C26.459625,16.5293125 26.407625,17.0146875 26.3569375,17.42 C26.327625,17.652 26.423625,17.884 26.607625,18.028 L29.839625,20.556 C29.8741875,20.584 29.880875,20.644 29.8595,20.6813125 Z" id="Shape"></path>
                    <path d="M15.6261875,9.3333125 C11.9501875,9.3333125 8.9595,12.324 8.9595,16 C8.9595,19.676 11.9501875,22.6666875 15.6261875,22.6666875 C19.3021875,22.6666875 22.292875,19.676 22.292875,16 C22.292875,12.324 19.3021875,9.3333125 15.6261875,9.3333125 Z M15.6261875,21.3333125 C12.684875,21.3333125 10.292875,18.9413125 10.292875,16 C10.292875,13.0586875 12.684875,10.6666875 15.6261875,10.6666875 C18.5675,10.6666875 20.9595,13.0586875 20.9595,16 C20.9595,18.9413125 18.5675,21.3333125 15.6261875,21.3333125 Z" id="Shape"></path>
                </g>
            </g>
        </g>
    </g>
</svg>