<?xml version="1.0" encoding="UTF-8"?>
<svg width="41px" height="48px" viewBox="0 0 41 48" version="1.1" xmlns="http://www.w3.org/2000/svg" xmlns:xlink="http://www.w3.org/1999/xlink">
    <title>shield</title>
    <g id="Design" stroke="none" stroke-width="1" fill="none" fill-rule="evenodd">
        <g id="9-Settings" transform="translate(-574.000000, -446.000000)" fill="#EB2A74" fill-rule="nonzero">
            <g id="Group-11" transform="translate(208.000000, 125.000000)">
                <g id="Group-15-Copy-3" transform="translate(41.000000, 294.000000)">
                    <g id="shield" transform="translate(325.000000, 27.000000)">
                        <path d="M40.8270263,13.0235596 L40.8255615,12.986206 C40.8046875,12.5251464 40.7907714,12.0373536 40.7823487,11.4946289 C40.7431641,8.84802244 38.6392823,6.6588135 35.9923096,6.51086428 C30.4735107,6.20288081 26.2042237,4.40332031 22.5563964,0.847778344 L22.5252685,0.818115187 C21.3354492,-0.272827125 19.5406494,-0.272827125 18.3504638,0.818115187 L18.3193359,0.847778344 C14.6715088,4.40332031 10.4022217,6.20288081 4.88342287,6.51123047 C2.23681641,6.6588135 0.132568312,8.84802244 0.0933838125,11.4949951 C0.085327125,12.0340576 0.071044875,12.5218506 0.050170875,12.986206 L0.0479736562,13.072998 C-0.059326125,18.7005615 -0.192627,25.7043457 2.15039062,32.0614013 C3.43872075,35.557251 5.38989262,38.5960693 7.94934084,41.0939942 C10.8643799,43.9387207 14.6824951,46.1971435 19.2974854,47.8062744 C19.4476318,47.8586426 19.6036377,47.901123 19.7625732,47.9329834 C19.9866943,47.9776612 20.2122802,48 20.4378662,48 C20.6634521,48 20.8894042,47.9776612 21.1131592,47.9329834 C21.2720947,47.901123 21.4291992,47.8582763 21.5800781,47.805542 C26.1895752,46.1934815 30.0036621,43.9339599 32.9161377,41.0895996 C35.4744873,38.5909424 37.4256592,35.5513916 38.7150879,32.0548096 C41.0668945,25.6787109 40.9339599,18.6617432 40.8270263,13.0235596 Z M36.0725098,31.0803223 C33.6013183,37.7805176 28.5567627,42.381958 20.6506348,45.1468506 C20.6224365,45.1563721 20.5924072,45.1647949 20.5612792,45.1710205 C20.4796143,45.1871338 20.3964844,45.1871338 20.3137207,45.1706542 C20.2829589,45.1644287 20.2529297,45.1563721 20.2250977,45.1468506 C12.3105469,42.3870849 7.26269531,37.788208 4.79333494,31.0876464 C2.63378906,25.2279052 2.75610356,18.798706 2.86413572,13.126831 L2.86486819,13.0953369 C2.88684084,12.6079102 2.90148928,12.0974121 2.90954587,11.536377 C2.927124,10.361206 3.86315916,9.38891606 5.04052734,9.32336428 C8.16357422,9.14904788 10.9072266,8.54553225 13.4282227,7.47839353 C15.9459229,6.41271975 18.1820068,4.91052244 20.2635498,2.88610838 C20.3693848,2.79675291 20.5067138,2.79638672 20.6121826,2.88610838 C22.6940917,4.91052244 24.9301758,6.41271975 27.4475098,7.47839353 C29.9685058,8.54553225 32.7121582,9.14904788 35.8355713,9.32336428 C37.0129395,9.38891606 37.9489746,10.361206 37.9661865,11.5367432 C37.9746094,12.100708 37.9892578,12.611206 38.0112305,13.0953369 C38.1188964,18.7738037 38.2382812,25.2081299 36.0725098,31.0803223 Z" id="Shape"></path>
                        <path d="M20.4371338,12.0384521 C13.8409424,12.0384521 8.47485356,17.4049073 8.47485356,24.0007324 C8.47485356,30.5969239 13.8409424,35.9633789 20.4371338,35.9633789 C27.0329589,35.9633789 32.3994141,30.5969239 32.3994141,24.0007324 C32.3994141,17.4049073 27.0329589,12.0384521 20.4371338,12.0384521 Z M20.4371338,33.1464844 C15.394043,33.1464844 11.2913818,29.0438232 11.2913818,24.0007324 C11.2913818,18.9576416 15.394043,14.8549805 20.4371338,14.8549805 C25.4798584,14.8549805 29.5825195,18.9576416 29.5825195,24.0007324 C29.5825195,29.0438232 25.4798584,33.1464844 20.4371338,33.1464844 Z" id="Shape"></path>
                        <path d="M23.8751221,20.2869873 L18.3189698,25.8431396 L16.8109131,24.335083 C16.2608643,23.7850342 15.3691406,23.7850342 14.8190918,24.335083 C14.2694092,24.8851318 14.2694092,25.7768555 14.8190918,26.3265381 L17.3232422,28.8306885 C17.5982666,29.1057129 17.9586182,29.243042 18.3189698,29.243042 C18.6793213,29.243042 19.0396729,29.1057129 19.3146973,28.8306885 L25.8669433,22.2784424 C26.416626,21.7283935 26.416626,20.8366699 25.8669433,20.2869873 C25.3168945,19.7365723 24.4251709,19.7365723 23.8751221,20.2869873 Z" id="Path"></path>
                    </g>
                </g>
            </g>
        </g>
    </g>
</svg>