<?xml version="1.0" encoding="UTF-8"?>
<svg width="28px" height="24px" viewBox="0 0 28 24" version="1.1" xmlns="http://www.w3.org/2000/svg" xmlns:xlink="http://www.w3.org/1999/xlink">
    <title>sort</title>
    <g id="design" stroke="none" stroke-width="1" fill="none" fill-rule="evenodd">
        <g id="2-Category-overview" transform="translate(-46.000000, -153.000000)" fill="#EB2A74" fill-rule="nonzero">
            <g id="Group-7-Copy-3" transform="translate(30.000000, 135.000000)">
                <g id="sort" transform="translate(16.000000, 18.000000)">
                    <path d="M12.7719858,15.9723429 C12.3654552,15.6147918 11.7042307,15.6686694 11.3466797,16.0752 L7.57525115,20.3266286 L7.57525115,3.33560816 C7.57525115,2.77724082 7.11484298,2.31683265 6.55647564,2.31683265 C5.99810829,2.31683265 5.53770013,2.77724082 5.53770013,3.33560816 L5.53770013,20.3266286 L1.76627155,16.0752 C1.35974094,15.6686694 0.747496044,15.6147918 0.340965432,15.9723429 C-0.06556518,16.3788735 -0.119442731,16.9911184 0.238108289,17.397649 L5.792394,23.6131592 C6.20872053,24.1274449 6.94341441,24.0490776 7.27157768,23.6131592 L12.874843,17.397649 C13.232394,16.9960163 13.1834144,16.3298939 12.7719858,15.9723429 Z" id="Path"></path>
                    <path d="M27.6487554,6.59764898 L22.1434492,0.382138776 C21.6536533,-0.112555102 21.0414084,-0.141942857 20.615286,0.382138776 L15.0120207,6.59764898 C14.6544696,7.00417959 14.7083472,7.66540408 15.1148778,8.0229551 C15.7418166,8.52254694 16.3736533,8.1796898 16.5401839,7.92009796 L20.3116125,3.66866939 L20.3116125,20.6107102 C20.3116125,21.1690776 20.7720207,21.6294857 21.330388,21.6294857 C21.8887554,21.6294857 22.3491635,21.2229551 22.3491635,20.6596898 L22.3491635,3.67356735 L26.1205921,7.92499592 C26.5271227,8.33152653 27.1393676,8.38540408 27.5458982,8.02785306 C27.9524288,7.61642449 28.0063064,7.00417959 27.6487554,6.59764898 Z" id="Path"></path>
                </g>
            </g>
        </g>
    </g>
</svg>