<?xml version="1.0" encoding="UTF-8"?>
<svg width="30px" height="30px" viewBox="0 0 30 30" version="1.1" xmlns="http://www.w3.org/2000/svg" xmlns:xlink="http://www.w3.org/1999/xlink">
    <title>delete</title>
    <g id="Design" stroke="none" stroke-width="1" fill="none" fill-rule="evenodd">
        <g id="12-Leave-review" transform="translate(-1193.000000, -115.000000)" fill="#08091E" fill-rule="nonzero">
            <g id="delete" transform="translate(1193.000000, 115.000000)">
                <path d="M28.9305731,5.8977937 L19.8581089,14.9712034 L28.9305731,24.0441834 C30.2800573,25.3941834 30.2800573,27.5810029 28.9305731,28.9310029 C28.2563037,29.6052722 27.3722923,29.9426648 26.4887106,29.9426648 C25.6036676,29.9426648 24.7195702,29.605788 24.0458166,28.9310029 L14.9713754,19.8569914 L5.89762178,28.9309169 C5.2234384,29.6051862 4.33934097,29.9426648 3.45498567,29.9426648 C2.57088825,29.9426648 1.68739255,29.605702 1.01260745,28.9309169 C-0.336876791,27.5815186 -0.336876791,25.3946132 1.01260745,24.0440974 L10.0848138,14.9711175 L1.01209169,5.8977937 C-0.33739255,4.54830946 -0.33739255,2.36097421 1.01209169,1.01148997 C2.36131805,-0.336962751 4.5473639,-0.336962751 5.89710602,1.01148997 L14.9712894,10.0848997 L24.0447851,1.01148997 C25.3947851,-0.336962751 27.5810888,-0.336962751 28.9300573,1.01148997 C30.2800573,2.36097421 30.2800573,4.54830946 28.9305731,5.8977937 Z" id="Path"></path>
            </g>
        </g>
    </g>
</svg>