<?xml version="1.0" encoding="UTF-8"?>
<svg width="101px" height="100px" viewBox="0 0 101 100" version="1.1" xmlns="http://www.w3.org/2000/svg" xmlns:xlink="http://www.w3.org/1999/xlink">
    <title>feedback</title>
    <g id="Design" stroke="none" stroke-width="1" fill="none" fill-rule="evenodd">
        <g id="12-Leave-review" transform="translate(-910.000000, -140.000000)" fill="#EB2A74" fill-rule="nonzero">
            <g id="feedback" transform="translate(910.000000, 140.000000)">
                <path d="M32.1289063,24.0039062 C31.953125,23.4765625 31.5039063,23.0859375 30.9375,23.0078125 L21.6601563,21.6601562 L17.5,13.2421875 C17.2460938,12.734375 16.7382813,12.421875 16.1914063,12.421875 C15.6445313,12.421875 15.1171875,12.734375 14.8828125,13.2421875 L10.7226562,21.6601562 L1.4453125,23.0078125 C0.8984375,23.0859375 0.4296875,23.4765625 0.25390625,24.0039062 C0.078125,24.53125 0.234375,25.1171875 0.625,25.5078125 L7.34375,32.0507812 L5.76171875,41.2890625 C5.6640625,41.8359375 5.8984375,42.4023437 6.34765625,42.7148438 C6.6015625,42.890625 6.9140625,42.9882812 7.20703125,42.9882812 C7.44140625,42.9882812 7.67578125,42.9296875 7.890625,42.8125 L16.1914063,38.4765625 L24.4921875,42.8320312 C24.9804688,43.0859375 25.5859375,43.046875 26.0351563,42.7148438 C26.484375,42.3828125 26.71875,41.8359375 26.6210938,41.2890625 L25.0390625,32.0507812 L31.7578125,25.5078125 C32.1484375,25.1171875 32.3046875,24.53125 32.1289063,24.0039062 Z M22.4414063,30.4882812 C22.0898438,30.8203125 21.9335938,31.3085937 22.0117188,31.7773437 L23.2421875,38.8671875 L16.8945313,35.5273438 C16.6796875,35.4101562 16.4453125,35.3515625 16.2109375,35.3515625 C15.9765625,35.3515625 15.7421875,35.4101562 15.5273438,35.5273438 L9.16015625,38.8671875 L10.3710938,31.796875 C10.4492188,31.328125 10.2929688,30.8398438 9.94140625,30.5078125 L4.8046875,25.4882813 L11.9140625,24.453125 C12.3828125,24.375 12.8125,24.0820313 13.0078125,23.6523438 L16.1914062,17.2070313 L19.375,23.6523438 C19.5898437,24.0820313 20,24.375 20.46875,24.453125 L27.578125,25.4882813 L22.4414063,30.4882812 Z" id="Shape"></path>
                <path d="M100.117188,24.0039062 C99.9414063,23.4765625 99.4921875,23.0859375 98.9257813,23.0078125 L89.6484375,21.6601562 L85.4882813,13.2421875 C85.234375,12.734375 84.7265625,12.421875 84.1796875,12.421875 C83.6328125,12.421875 83.1054688,12.734375 82.8710938,13.2421875 L78.7109375,21.6601562 L69.4335938,23.0078125 C68.8867188,23.0859375 68.4179688,23.4765625 68.2421875,24.0039062 C68.0664062,24.53125 68.2226562,25.1171875 68.6132812,25.5078125 L75.3320312,32.0507812 L73.75,41.2890625 C73.6523437,41.8359375 73.8867187,42.4023437 74.3359375,42.7148437 C74.7851562,43.046875 75.390625,43.0859375 75.8789062,42.8320312 L84.1796875,38.4765625 L92.4804688,42.8320312 C92.6953125,42.9492187 92.9296875,43.0078125 93.1640625,43.0078125 C93.4765625,43.0078125 93.7695312,42.9101562 94.0234375,42.734375 C94.4726562,42.4023438 94.7070312,41.8554687 94.609375,41.3085937 L93.0273437,32.0703125 L99.7460937,25.5273437 C100.15625,25.1171875 100.292969,24.53125 100.117188,24.0039062 L100.117188,24.0039062 Z M90.4492188,30.4882812 C90.0976563,30.8203125 89.9414063,31.3085937 90.0195313,31.7773437 L91.2304688,38.8476562 L84.8828125,35.5078125 C84.453125,35.2929687 83.9453125,35.2929687 83.515625,35.5078125 L77.1484375,38.8671875 L78.359375,31.796875 C78.4375,31.328125 78.28125,30.8398438 77.9296875,30.5078125 L72.7929688,25.4882813 L79.9023438,24.453125 C80.3710938,24.375 80.8007812,24.0820313 80.9960938,23.6523438 L84.1796875,17.2070313 L87.3632813,23.6523438 C87.578125,24.0820313 87.9882813,24.375 88.4570313,24.453125 L95.5664063,25.4882813 L90.4492188,30.4882812 Z" id="Shape"></path>
                <path d="M41.3476562,19.6289063 L39.765625,28.8671875 C39.6679688,29.4140625 39.9023438,29.9804688 40.3515625,30.2929688 C40.8007813,30.625 41.40625,30.6640625 41.8945313,30.4101563 L50.1953125,26.0546875 L58.4960938,30.4101563 C58.7109375,30.5273438 58.9453125,30.5859375 59.1796875,30.5859375 C59.4921875,30.5859375 59.7851563,30.4882813 60.0390625,30.3125 C60.4882813,29.9804688 60.7226563,29.4335938 60.625,28.8867188 L59.0429688,19.6484375 L65.7617188,13.1054688 C66.1523438,12.7148438 66.3085938,12.1289063 66.1328125,11.6015625 C65.9570312,11.0742188 65.5078125,10.6835938 64.9414062,10.6054688 L55.6640625,9.21875 L51.5039063,0.8203125 C51.2695313,0.3125 50.7617188,0 50.1953125,0 C49.6289063,0 49.1210938,0.3125 48.8867188,0.8203125 L44.7265625,9.21875 L35.4492188,10.5664063 C34.9023438,10.6445313 34.4335938,11.0351563 34.2578125,11.5625 C34.0820312,12.0898438 34.2382812,12.6757813 34.6289062,13.0664063 L41.3476562,19.6289063 Z M45.9179688,12.0117188 C46.3867188,11.9335938 46.8164062,11.640625 47.0117188,11.2109375 L50.1953125,4.765625 L53.3789063,11.2109375 C53.59375,11.640625 54.0039063,11.9335938 54.4726563,12.0117188 L61.5820313,13.046875 L56.4453125,18.0664062 C56.09375,18.3984375 55.9375,18.8867188 56.015625,19.3554688 L57.2265625,26.4257812 L50.8789062,23.0859375 C50.6640625,22.96875 50.4296875,22.9101562 50.1953125,22.9101562 C49.9609375,22.9101562 49.7265625,22.96875 49.5117188,23.0859375 L43.1640625,26.4453125 L44.375,19.375 C44.453125,18.90625 44.296875,18.4179688 43.9453125,18.0859375 L38.8085938,13.0664063 L45.9179688,12.0117188 Z" id="Shape"></path>
                <path d="M77.4804687,55.6835938 L77.4804687,55.6835938 C76.3085938,55.6835938 75.234375,56.015625 74.296875,56.6015625 C73.7695312,53.8085937 71.328125,51.6992187 68.3984375,51.6992187 C67.2265625,51.6992187 66.1328125,52.03125 65.2148437,52.6171875 C64.6875,49.84375 62.2460937,47.7539062 59.3164062,47.7539062 C58.203125,47.7539062 57.1484375,48.0664062 56.25,48.59375 L56.25,39.9414062 C56.25,36.640625 53.5546875,33.9453125 50.2539062,33.9453125 C46.953125,33.9453125 44.2578125,36.640625 44.2578125,39.9414062 L44.2578125,58.1054687 L44.2578125,58.4570312 L44.2578125,66.640625 L42.5195312,64.9023438 C40.15625,62.5390625 36.3085938,62.5390625 33.9453125,64.9023438 C31.6015625,67.2460938 31.5820312,71.0351562 33.8671875,73.3984375 L45.1953125,88.75 L45.1953125,98.5351562 C45.1953125,99.3359375 45.859375,100 46.6601562,100 L79.8632812,100 C80.6640625,100 81.328125,99.3359375 81.328125,98.5351562 L81.328125,90.4492188 L82.734375,85.3125 C83.2421875,83.4765625 83.4960937,81.5820312 83.4960937,79.6875 L83.4960937,74.7070312 L83.4960937,73.7304688 L83.4960937,61.6796875 C83.4960937,58.3789062 80.8007812,55.6835938 77.4804687,55.6835938 Z M80.5664062,79.6875 C80.5664062,81.328125 80.3515625,82.9492188 79.921875,84.53125 L78.4570312,89.8632813 C78.4179688,89.9804688 78.3984375,90.1171875 78.3984375,90.2539063 L78.3984375,97.0703125 L48.125,97.0703125 L48.125,88.28125 C48.125,87.96875 48.0273437,87.65625 47.8320312,87.4023438 L36.1523437,71.5820312 C36.1132812,71.5234375 36.0546875,71.4648438 36.015625,71.40625 C34.7851562,70.1757812 34.7851562,68.1835938 36.015625,66.9726562 C37.2460937,65.7421875 39.2382812,65.7421875 40.4492187,66.9726562 L44.6875,71.2109375 C45.0976562,71.6210938 45.7421875,71.7578125 46.2890625,71.5234375 C46.8359375,71.2890625 47.1875,70.7617188 47.1875,70.1757813 L47.1875,58.4570313 L47.1875,58.1054688 L47.1875,39.9414063 C47.1875,38.2421875 48.5742187,36.875 50.2539062,36.875 C51.953125,36.875 53.3203125,38.2617188 53.3203125,39.9414063 L53.3203125,64.609375 C53.3203125,65.4101563 53.984375,66.0742188 54.7851562,66.0742188 C55.5859375,66.0742188 56.25,65.4101563 56.25,64.609375 L56.25,53.75 C56.25,52.0507813 57.6367187,50.6835938 59.3164062,50.6835938 C61.015625,50.6835938 62.3828125,52.0703125 62.3828125,53.75 L62.3828125,64.609375 C62.3828125,65.4101563 63.046875,66.0742188 63.8476562,66.0742188 C64.6484375,66.0742188 65.3125,65.4101563 65.3125,64.609375 L65.3125,57.6953125 C65.3125,55.9960938 66.6992187,54.6289063 68.3789062,54.6289063 C70.078125,54.6289063 71.4453125,56.015625 71.4453125,57.6953125 L71.4453125,64.609375 C71.4453125,65.4101563 72.109375,66.0742188 72.9101562,66.0742188 C73.7109375,66.0742188 74.375,65.4101563 74.375,64.609375 L74.375,61.6992188 C74.375,60 75.7617187,58.6328125 77.4414062,58.6328125 C79.140625,58.6328125 80.5078125,60.0195313 80.5078125,61.6992188 L80.5078125,73.75 C80.5078125,73.75 80.5078125,73.75 80.5078125,73.75 L80.5078125,79.6875 L80.5664062,79.6875 Z" id="Shape"></path>
            </g>
        </g>
    </g>
</svg>