<?xml version="1.0" encoding="UTF-8"?>
<svg width="123px" height="100px" viewBox="0 0 123 100" version="1.1" xmlns="http://www.w3.org/2000/svg" xmlns:xlink="http://www.w3.org/1999/xlink">
    <title>like</title>
    <g id="Design" stroke="none" stroke-width="1" fill="none" fill-rule="evenodd">
        <g id="12-Leave-review-success" transform="translate(-899.000000, -291.000000)" fill="#FFFFFF" fill-rule="nonzero">
            <g id="like" transform="translate(899.000000, 291.000000)">
                <circle id="Oval" cx="23.68" cy="69.56" r="2"></circle>
                <path d="M102.4,52.86 L102.4,52.66 C102.4,48.02 98.64,44.26 94,44.26 L70.02,44.26 C73.1,38.92 74.76,32.92 74.86,26.72 C74.88,25.68 74.86,24.6 74.86,23.48 C74.86,22.74 74.84,21.98 74.84,21.14 C74.84,16.8 71.32,13.28 67,13.26 C66.2,13.26 63.5,13.38 61.38,15.6 C60.42,16.6 59.76,17.88 59.46,19.26 C58.88,21.96 58.18,24.26 57.28,26.3 C54,33.76 49.32,40 43.38,44.84 C41.8,46.12 40.12,47.32 38.36,48.4 C37.7,46.02 35.52,44.28 32.94,44.28 L2,44.28 C0.9,44.28 0,45.18 0,46.28 L0,97.98 C0,99.08 0.9,99.98 2,99.98 L32.96,99.98 C35.9,99.98 38.3,97.72 38.56,94.84 C42.4,98.16 47.26,99.98 52.38,99.98 L94,99.98 C98.64,99.98 102.4,96.22 102.4,91.58 C102.4,89.02 101.24,86.72 99.44,85.18 C101.26,83.64 102.4,81.34 102.4,78.78 L102.4,78.52 C102.4,75.96 101.24,73.66 99.44,72.12 C101.26,70.58 102.4,68.28 102.4,65.72 L102.4,65.68 C102.4,63.12 101.24,60.82 99.44,59.28 C101.24,57.72 102.4,55.42 102.4,52.86 Z M34.58,51.68 C34.58,51.68 34.58,51.68 34.58,51.68 L34.58,94.34 C34.58,95.24 33.86,95.96 32.96,95.96 L25.68,95.96 L25.68,78.54 C25.68,77.44 24.78,76.54 23.68,76.54 C22.58,76.54 21.68,77.44 21.68,78.54 L21.68,95.96 L4,95.96 L4,48.26 L32.96,48.26 C33.86,48.26 34.58,48.98 34.58,49.88 L34.58,51.68 L34.58,51.68 Z M88.46,61.26 L94,61.26 C96.42,61.26 98.4,63.24 98.4,65.66 L98.4,65.7 C98.4,68.12 96.42,70.1 94,70.1 L88.46,70.1 C87.36,70.1 86.46,71 86.46,72.1 C86.46,73.2 87.36,74.1 88.46,74.1 L94,74.1 C96.42,74.1 98.4,76.08 98.4,78.5 L98.4,78.76 C98.4,81.18 96.42,83.16 94,83.16 L88.46,83.16 C87.36,83.16 86.46,84.06 86.46,85.16 C86.46,86.26 87.36,87.16 88.46,87.16 L94,87.16 C96.42,87.16 98.4,89.14 98.4,91.56 C98.4,93.98 96.42,95.96 94,95.96 L52.38,95.96 C47.92,95.96 43.68,94.26 40.48,91.16 L38.6,89.34 L38.6,52.9 C41.2,51.46 43.66,49.78 45.94,47.94 C52.38,42.7 57.44,35.96 60.98,27.9 C61.98,25.6 62.78,23.06 63.42,20.1 C63.56,19.42 63.86,18.84 64.32,18.36 C65.3,17.34 66.6,17.26 66.94,17.26 C66.98,17.26 67,17.26 67.02,17.26 C69.16,17.26 70.88,19 70.88,21.14 C70.88,21.98 70.88,22.78 70.9,23.52 C70.9,24.64 70.92,25.68 70.9,26.68 C70.8,33.32 68.68,39.68 64.76,45.12 C64.32,45.72 64.26,46.54 64.6,47.2 C64.94,47.86 65.62,48.28 66.38,48.28 L94,48.28 C96.42,48.28 98.4,50.26 98.4,52.68 L98.4,52.88 L98.4,52.88 C98.4,55.3 96.42,57.28 94,57.28 L88.46,57.28 C87.36,57.28 86.46,58.18 86.46,59.28 C86.46,60.36 87.36,61.26 88.46,61.26 Z" id="Shape"></path>
                <path d="M122.62,14.52 C122.4,13.86 121.84,13.38 121.16,13.28 L109.62,11.6 L104.46,1.14 C104.16,0.52 103.52,0.12 102.82,0.12 C102.12,0.12 101.5,0.52 101.18,1.14 L96.02,11.6 L84.48,13.28 C83.8,13.38 83.22,13.86 83.02,14.52 C82.8,15.18 82.98,15.9 83.48,16.38 L91.82,24.52 L89.84,36 C89.72,36.68 90,37.38 90.56,37.78 C91.12,38.18 91.86,38.24 92.48,37.92 L102.8,32.5 L113.12,37.92 C113.38,38.06 113.68,38.12 113.96,38.12 C114.34,38.12 114.72,38 115.04,37.78 C115.6,37.38 115.88,36.68 115.76,36 L113.78,24.52 L122.12,16.38 C122.66,15.9 122.84,15.18 122.62,14.52 L122.62,14.52 Z M110.58,22.58 C110.16,23 109.96,23.6 110.06,24.2 L111.56,33 L103.66,28.84 C103.12,28.56 102.5,28.56 101.96,28.84 L94.06,33 L95.56,24.2 C95.66,23.6 95.46,23 95.04,22.58 L88.64,16.34 L97.48,15.06 C98.08,14.98 98.58,14.6 98.86,14.06 L102.82,6.06 L106.78,14.06 C107.04,14.6 107.56,14.96 108.16,15.06 L117,16.34 L110.58,22.58 Z" id="Shape"></path>
            </g>
        </g>
    </g>
</svg>