<?xml version="1.0" encoding="UTF-8"?>
<svg width="24px" height="24px" viewBox="0 0 24 24" version="1.1" xmlns="http://www.w3.org/2000/svg" xmlns:xlink="http://www.w3.org/1999/xlink">
    <title>mute</title>
    <g id="Design" stroke="none" stroke-width="1" fill="none" fill-rule="evenodd">
        <g id="11-Video-2" transform="translate(-714.000000, -858.000000)" fill="#EB2A74" fill-rule="nonzero">
            <g id="Group-9" transform="translate(666.000000, 60.000000)">
                <g id="Group" transform="translate(30.000000, 780.000000)">
                    <g id="mute" transform="translate(18.000000, 18.000000)">
                        <path d="M23.4114165,8.31627907 L23.4114165,8.31627907 C23.1120507,8.01691332 22.6300211,8.01691332 22.3357294,8.31627907 L19.6059197,11.0460888 L16.8761099,8.31627907 C16.5767442,8.01691332 16.0947146,8.01691332 15.8004228,8.31627907 L15.8004228,8.31627907 C15.5010571,8.61564482 15.5010571,9.09767442 15.8004228,9.39196617 L18.5302326,12.1217759 L15.8004228,14.8515856 C15.5010571,15.1509514 15.5010571,15.632981 15.8004228,15.9272727 L15.8004228,15.9272727 C16.0997886,16.2266385 16.5818182,16.2266385 16.8761099,15.9272727 L19.6059197,13.197463 L22.3357294,15.9272727 C22.6350951,16.2266385 23.1171247,16.2266385 23.4114165,15.9272727 L23.4114165,15.9272727 C23.7107822,15.627907 23.7107822,15.1458774 23.4114165,14.8515856 L20.6816068,12.1268499 L23.4114165,9.39704017 C23.7057082,9.09767442 23.7057082,8.61564482 23.4114165,8.31627907 Z" id="Path"></path>
                        <path d="M12.9031712,0.0964059197 C12.6596195,-0.0101479915 12.3754757,0.0405919662 12.1826638,0.223255814 L5.33276956,6.69260042 L0.664693446,6.69260042 C0.299365751,6.69260042 1.44211633e-15,6.99196617 1.44211633e-15,7.35729387 L1.44211633e-15,16.6731501 C1.44211633e-15,17.0384778 0.299365751,17.3378436 0.664693446,17.3378436 L5.33276956,17.3378436 L12.1826638,23.8071882 C12.3095137,23.9289641 12.4718816,23.989852 12.6393235,23.989852 C12.7306554,23.989852 12.8169133,23.97463 12.9031712,23.9340381 C13.146723,23.8274841 13.3040169,23.5890063 13.3040169,23.3251586 L13.3040169,0.705285412 C13.3040169,0.441437632 13.146723,0.197885835 12.9031712,0.0964059197 Z M1.32938689,8.02198732 L4.66807611,8.02198732 L4.66807611,16.0033827 L1.32938689,16.0033827 L1.32938689,8.02198732 Z M11.97463,21.7826638 L6.05327696,16.1911205 C6.03805497,16.1758985 6.01775899,16.1606765 5.997463,16.1454545 L5.997463,7.89006342 C6.01775899,7.87484144 6.03298097,7.85961945 6.05327696,7.84439746 L11.97463,2.24778013 L11.97463,21.7826638 Z" id="Shape"></path>
                    </g>
                </g>
            </g>
        </g>
    </g>
</svg>