<?xml version="1.0" encoding="UTF-8"?>
<svg width="42px" height="40px" viewBox="0 0 42 40" version="1.1" xmlns="http://www.w3.org/2000/svg" xmlns:xlink="http://www.w3.org/1999/xlink">
    <title>rotating-arrow-to-the-left</title>
    <g id="Design" stroke="none" stroke-width="1" fill="none" fill-rule="evenodd">
        <g id="11-Video-2" transform="translate(-939.000000, -850.000000)" fill="#F0672A" fill-rule="nonzero">
            <g id="Group-9" transform="translate(666.000000, 60.000000)">
                <g id="circular" transform="translate(244.000000, 760.000000)">
                    <g id="rotating-arrow-to-the-left" transform="translate(29.000000, 30.000000)">
                        <path d="M20.6654054,39.9659459 C32.0598649,39.9659459 41.3291892,30.6956757 41.3291892,19.3013514 C41.3291892,13.9667568 39.26,8.86472973 35.6067568,5.03594595 C35.6067568,5.03594595 36.1389189,3.83905405 36.7978378,2.36256757 C37.4551351,0.886081081 36.5089189,-0.155810811 34.6832432,0.0344594595 L23.9906757,1.15459459 C22.1648649,1.34527027 21.5583784,2.70418919 22.6364865,4.18986486 L28.9528378,12.8916216 C30.032027,14.377027 31.3628378,14.5551351 31.9268919,13.2885135 L32.9485135,10.9960811 C34.5933784,13.4301351 35.5128378,16.3108108 35.5128378,19.3013514 C35.5128378,27.4897297 28.8522973,34.1493243 20.6655405,34.1493243 C12.4775676,34.1493243 5.81662162,27.4889189 5.81662162,19.3013514 C5.81662162,16.7221622 6.48689189,14.1827027 7.75675676,11.9585135 C8.55283784,10.5632432 8.06756757,8.7872973 6.6722973,7.99135135 C5.27662162,7.19459459 3.50148649,7.68054054 2.70472973,9.07662162 C0.935540541,12.1766216 0,15.7121622 0,19.3012162 C0,30.6956757 9.27054054,39.9659459 20.6654054,39.9659459 Z" id="Path"></path>
                    </g>
                </g>
            </g>
        </g>
    </g>
</svg>