<?xml version="1.0" encoding="UTF-8"?>
<svg width="24px" height="24px" viewBox="0 0 24 24" version="1.1" xmlns="http://www.w3.org/2000/svg" xmlns:xlink="http://www.w3.org/1999/xlink">
    <title>share</title>
    <g id="Design" stroke="none" stroke-width="1" fill="none" fill-rule="evenodd">
        <g id="11-Video-1" transform="translate(-713.000000, -118.000000)" fill="#08091E" fill-rule="nonzero">
            <g id="Group-9" transform="translate(666.000000, 60.000000)">
                <g id="Group-4" transform="translate(31.000000, 40.000000)">
                    <g id="share" transform="translate(16.000000, 18.000000)">
                        <path d="M18.8571393,13.7142786 C17.1559248,13.7142786 15.6567677,14.5540614 14.7200869,15.8304575 L10.0397189,13.489726 C10.1846429,13.0149905 10.2857214,12.5214427 10.2857214,11.9999751 C10.2857214,11.4785075 10.1846429,10.9848602 10.0397189,10.5102242 L14.7200869,8.16949272 C15.6567677,9.44588886 17.1559248,10.2856716 18.8571393,10.2856716 C21.6930609,10.2856716 24,7.97873254 24,5.14281093 C24,2.30688932 21.6931107,0 18.8571393,0 C16.0211679,0 13.7142786,2.30693909 13.7142786,5.1428607 C13.7142786,5.66432827 13.8154567,6.15787607 13.9603806,6.63251209 L9.2798633,8.97334309 C8.34318253,7.69694695 6.84402547,6.85716419 5.14281093,6.85716419 C2.30688932,6.85716419 0,9.16405351 0,12.0000249 C0,14.8359963 2.30688932,17.1428856 5.1428607,17.1428856 C6.84407524,17.1428856 8.3432323,16.3031028 9.27991307,15.0267067 L13.9602811,17.3675377 C13.8153571,17.8421239 13.7142786,18.3356717 13.7142786,18.8571891 C13.7142786,21.6931107 16.0211679,24.0000498 18.8571393,24.0000498 C21.6931107,24.0000498 24,21.6931107 24,18.8571891 C24,16.0212675 21.6930609,13.7142786 18.8571393,13.7142786 Z M18.8571393,1.71430349 C20.7480689,1.71430349 22.2856965,3.25282692 22.2856965,5.1428607 C22.2856965,7.03294425 20.7480191,8.57141791 18.8571393,8.57141791 C16.9662097,8.57141791 15.4285821,7.03289448 15.4285821,5.1428607 C15.4285821,3.25282692 16.9662595,1.71430349 18.8571393,1.71430349 Z M5.1428607,15.4285821 C3.2519311,15.4285821 1.71430349,13.8900587 1.71430349,12.0000249 C1.71430349,10.1099413 3.25198086,8.57146767 5.1428607,8.57146767 C7.0337903,8.57146767 8.57141791,10.1099911 8.57141791,12.0000249 C8.57141791,13.8900587 7.0337903,15.4285821 5.1428607,15.4285821 Z M18.8571393,22.2856965 C16.9662097,22.2856965 15.4285821,20.7471731 15.4285821,18.8571393 C15.4285821,16.9671055 16.9662595,15.4285821 18.8571393,15.4285821 C20.7480689,15.4285821 22.2856965,16.9671055 22.2856965,18.8571393 C22.2856965,20.7472229 20.7480689,22.2856965 18.8571393,22.2856965 Z" id="Shape"></path>
                    </g>
                </g>
            </g>
        </g>
    </g>
</svg>