<?xml version="1.0" encoding="UTF-8"?>
<svg width="30px" height="24px" viewBox="0 0 30 24" version="1.1" xmlns="http://www.w3.org/2000/svg" xmlns:xlink="http://www.w3.org/1999/xlink">
    <title>volume</title>
    <g id="Design" stroke="none" stroke-width="1" fill="none" fill-rule="evenodd">
        <g id="11-Video-1" transform="translate(-711.000000, -858.000000)" fill="#08091E" fill-rule="nonzero">
            <g id="Group-9" transform="translate(666.000000, 60.000000)">
                <g id="Group" transform="translate(30.000000, 780.000000)">
                    <g id="volume" transform="translate(15.000000, 18.000000)">
                        <path d="M12.8976623,0.0935064935 C12.6545455,-0.0124675325 12.374026,0.0374025974 12.1807792,0.218181818 L5.32987013,6.68883117 L0.667012987,6.68883117 C0.299220779,6.68883117 0,6.98805195 0,7.35584416 L0,16.6628571 C0,17.0306494 0.299220779,17.3298701 0.667012987,17.3298701 L5.32987013,17.3298701 L12.1807792,23.8005195 C12.3054545,23.918961 12.4737662,23.9812987 12.6358442,23.9812987 C12.7231169,23.9812987 12.8166234,23.9625974 12.8976623,23.9251948 C13.1407792,23.8192208 13.2966234,23.5823377 13.2966234,23.3142857 L13.2966234,0.704415584 C13.2966234,0.442597403 13.1407792,0.199480519 12.8976623,0.0935064935 Z M1.32779221,8.02285714 L4.66285714,8.02285714 L4.66285714,16.0020779 L1.32779221,16.0020779 L1.32779221,8.02285714 Z M11.9688312,21.7745455 L6.05298701,16.1828571 C6.03428571,16.1641558 6.01558442,16.1516883 5.99688312,16.1392208 L5.99688312,7.88571429 C6.01558442,7.87324675 6.03428571,7.85454545 6.05298701,7.84207792 L11.9688312,2.25038961 L11.9688312,21.7745455 Z" id="Shape"></path>
                        <path d="M23.1958442,0.168311688 C22.8966234,-0.0498701299 22.478961,0.0187012987 22.267013,0.317922078 C22.0488312,0.617142857 22.1174026,1.02857143 22.4166234,1.24675325 C25.8701299,3.74649351 27.9335065,7.77350649 27.9335065,12.0124675 C27.9335065,16.2514286 25.8701299,20.2784416 22.4166234,22.7781818 C22.1174026,22.9963636 22.0550649,23.4077922 22.267013,23.707013 C22.3979221,23.8877922 22.5974026,23.9812987 22.8031169,23.9812987 C22.9402597,23.9812987 23.0774026,23.9376623 23.1896104,23.8566234 C26.985974,21.1075325 29.2550649,16.6815584 29.2550649,12.0124675 C29.2550649,7.34337662 26.9922078,2.9174026 23.1958442,0.168311688 Z" id="Path"></path>
                        <path d="M19.574026,4.13298701 C19.2685714,3.93974026 18.8509091,4.03324675 18.6576623,4.34493506 C18.4644156,4.65662338 18.5579221,5.06805195 18.8696104,5.2612987 C21.2135065,6.73246753 22.6098701,9.25714286 22.6098701,12.0124675 C22.6098701,14.7677922 21.2135065,17.2924675 18.8696104,18.7636364 C18.5579221,18.9568831 18.4644156,19.3683117 18.6576623,19.68 C18.7823377,19.8794805 19.0005195,19.9916883 19.2187013,19.9916883 C19.3371429,19.9916883 19.4618182,19.9605195 19.574026,19.8919481 C22.3044156,18.1714286 23.9376623,15.2290909 23.9376623,12.0124675 C23.9376623,8.79584416 22.3044156,5.85350649 19.574026,4.13298701 Z" id="Path"></path>
                        <path d="M17.0057143,8.82077922 C16.7127273,8.6025974 16.2950649,8.66493506 16.0768831,8.95792208 C15.8587013,9.25090909 15.921039,9.66857143 16.214026,9.88675325 C16.8997403,10.3979221 17.2924675,11.1709091 17.2924675,12.0124675 C17.2924675,12.854026 16.8997403,13.627013 16.214026,14.1381818 C15.921039,14.3563636 15.8587013,14.774026 16.0768831,15.067013 C16.2077922,15.2415584 16.4072727,15.3350649 16.612987,15.3350649 C16.7501299,15.3350649 16.8872727,15.2914286 17.0119481,15.2041558 C18.0405195,14.4374026 18.6264935,13.2779221 18.6264935,12.0124675 C18.6264935,10.747013 18.0280519,9.5812987 17.0057143,8.82077922 Z" id="Path"></path>
                    </g>
                </g>
            </g>
        </g>
    </g>
</svg>