<?xml version="1.0" encoding="UTF-8"?>
<svg width="100px" height="100px" viewBox="0 0 100 100" version="1.1" xmlns="http://www.w3.org/2000/svg" xmlns:xlink="http://www.w3.org/1999/xlink">
    <title>architecture-and-city</title>
    <g id="Design" stroke="none" stroke-width="1" fill="none" fill-rule="evenodd">
        <g id="17-Settings-celebrity-profile-wallet-no-bank-info-added" transform="translate(-1223.000000, -541.000000)" fill="#FFFFFF" fill-rule="nonzero">
            <g id="architecture-and-city" transform="translate(1223.000000, 541.000000)">
                <path d="M97.862381,87.8764238 L93.8679981,87.8764238 L93.8679981,81.8848494 C93.8679981,80.7820003 92.9736558,79.887658 91.8708067,79.887658 L87.8764238,79.887658 L87.8764238,43.9382119 L91.8708067,43.9382119 C92.9736558,43.9382119 93.8679981,43.0440693 93.8679981,41.9410204 L93.8679981,35.9494461 L97.862381,35.9494461 C98.7423436,35.9494461 99.5188516,35.3732564 99.773893,34.5310407 C100.028735,33.6886254 99.7025932,32.7787049 98.9702231,32.2905914 L51.0376283,0.335528164 C50.3667717,-0.111643002 49.4928007,-0.111643002 48.8219441,0.335528164 L0.889349352,32.2905914 C0.156979248,32.7787049 -0.169361835,33.6886254 0.0856795132,34.5310407 C0.34092058,35.3732564 1.1172289,35.9494461 1.99719145,35.9494461 L5.99157435,35.9494461 L5.99157435,41.9410204 C5.99157435,43.0440693 6.88571696,43.9382119 7.9887658,43.9382119 L11.9831487,43.9382119 L11.9831487,79.887658 L7.9887658,79.887658 C6.88571696,79.887658 5.99157435,80.7820003 5.99157435,81.8848494 L5.99157435,87.8764238 L1.99719145,87.8764238 C0.894142612,87.8764238 -0.000180625631,88.7707661 -0.000180625631,89.8736152 L-0.000180625631,97.862381 C-0.000180625631,98.9652301 0.894142612,99.8595725 1.99719145,99.8595725 L97.862381,99.8595725 C98.9652301,99.8595725 99.8596718,98.9652301 99.8596718,97.862381 L99.8596718,89.8736152 C99.8596718,88.7707661 98.9652301,87.8764238 97.862381,87.8764238 Z M89.8736152,87.8764238 L73.8960836,87.8764238 L73.8960836,83.8820409 L89.8736152,83.8820409 L89.8736152,87.8764238 Z M61.9129349,87.8764238 L61.9129349,81.8848494 C61.9129349,80.7820003 61.0185926,79.887658 59.9157435,79.887658 L55.9213606,79.887658 L55.9213606,43.9382119 L59.9157435,43.9382119 C61.0185926,43.9382119 61.9129349,43.0440693 61.9129349,41.9410204 L61.9129349,35.9494461 L69.9017007,35.9494461 L69.9017007,41.9410204 C69.9017007,43.0440693 70.7960431,43.9382119 71.8988922,43.9382119 L75.8932751,43.9382119 L75.8932751,79.887658 L71.8988922,79.887658 C70.7960431,79.887658 69.9017007,80.7820003 69.9017007,81.8848494 L69.9017007,87.8764238 L61.9129349,87.8764238 Z M29.9578717,87.8764238 L29.9578717,81.8848494 C29.9578717,80.7820003 29.0637291,79.887658 27.9606803,79.887658 L23.9662974,79.887658 L23.9662974,43.9382119 L27.9606803,43.9382119 C29.0637291,43.9382119 29.9578717,43.0440693 29.9578717,41.9410204 L29.9578717,35.9494461 L37.9466375,35.9494461 L37.9466375,41.9410204 C37.9466375,43.0440693 38.8407802,43.9382119 39.943829,43.9382119 L43.9382119,43.9382119 L43.9382119,79.887658 L39.943829,79.887658 C38.8407802,79.887658 37.9466375,80.7820003 37.9466375,81.8848494 L37.9466375,87.8764238 L29.9578717,87.8764238 Z M51.9269777,79.887658 L47.9325948,79.887658 L47.9325948,43.9382119 L51.9269777,43.9382119 L51.9269777,79.887658 Z M41.9410204,39.943829 L41.9410204,35.9494461 L57.918552,35.9494461 L57.918552,39.943829 C54.3252052,39.943829 45.5397597,39.943829 41.9410204,39.943829 Z M41.9410204,83.8820409 L57.918552,83.8820409 L57.918552,87.8764238 L41.9410204,87.8764238 L41.9410204,83.8820409 Z M83.8820409,79.887658 L79.887658,79.887658 L79.887658,43.9382119 L83.8820409,43.9382119 L83.8820409,79.887658 Z M89.8736152,39.943829 C84.8882259,39.943829 78.5788984,39.943829 73.8960836,39.943829 L73.8960836,35.9494461 L89.8736152,35.9494461 L89.8736152,39.943829 Z M49.9297862,4.39761585 L91.2662568,31.9550632 C62.6668747,31.9550632 38.3093275,31.9550632 8.59371509,31.9550632 L49.9297862,4.39761585 Z M9.98595725,35.9494461 L25.9634888,35.9494461 L25.9634888,39.943829 C21.2782774,39.943829 14.9699485,39.943829 9.98595725,39.943829 L9.98595725,35.9494461 Z M15.9775316,43.9382119 L19.9719145,43.9382119 L19.9719145,79.887658 L15.9775316,79.887658 L15.9775316,43.9382119 Z M9.98595725,83.8820409 L25.9634888,83.8820409 L25.9634888,87.8764238 L9.98595725,87.8764238 L9.98595725,83.8820409 Z M95.8651896,95.8651896 L3.9943829,95.8651896 L3.9943829,91.8708067 L95.8651896,91.8708067 L95.8651896,95.8651896 Z" id="Shape"></path>
                <path d="M49.9297862,27.9606803 C54.3347917,27.9606803 57.918552,24.37692 57.918552,19.9719145 C57.918552,15.566909 54.3347917,11.9831487 49.9297862,11.9831487 C45.5247808,11.9831487 41.9410204,15.566909 41.9410204,19.9719145 C41.9410204,24.37692 45.5247808,27.9606803 49.9297862,27.9606803 Z M49.9297862,15.9775316 C52.132289,15.9775316 53.9241691,17.7694118 53.9241691,19.9719145 C53.9241691,22.1744172 52.132289,23.9662974 49.9297862,23.9662974 C47.7272835,23.9662974 45.9354033,22.1744172 45.9354033,19.9719145 C45.9354033,17.7694118 47.7272835,15.9775316 49.9297862,15.9775316 Z" id="Shape"></path>
            </g>
        </g>
    </g>
</svg>