<svg xmlns="http://www.w3.org/2000/svg" width="250.954" height="99.564" viewBox="0 0 250.954 99.564">
  <g id="Asset_1" data-name="Asset 1" transform="translate(-0.003 0.001)">
    <path id="Path" d="M0,10.529,1.11,6.888H2.965V5.549C2.965,2.689,4.279,0,7.743,0c3.014,0,4.6,1.5,4.846,4.879H9.027A1.247,1.247,0,0,0,7.743,3.544c-.993,0-1.255.9-1.255,1.985V6.883H9.677a1.453,1.453,0,0,0,1.454-.85l2.423,2.2a4.558,4.558,0,0,1-4.1,2.291H0" transform="translate(113.711 28.748)" fill="#231f20"/>
    <path id="Path-2" data-name="Path" d="M4.9,17.714c-4.589,0-4.9-3.942-4.9-5.5V0H3.649V12.417a1.459,1.459,0,0,0,1.546,1.646h2.36V17.7H4.9" transform="translate(131.164 21.563)" fill="#231f20"/>
    <path id="Shape" d="M0,17.718v-3.64H3.445V0H7.128l-.3,8.544a9.8,9.8,0,0,1,7.06-3.32c3.392,0,7.492,2.15,7.492,6.422a6.571,6.571,0,0,1-.514,2.451H25.1v3.622Z" transform="translate(138.457 21.553)" fill="#231f20"/>
    <path id="Shape-2" data-name="Shape" d="M11.785,13.039a7.2,7.2,0,0,1-3.053-.758,7.52,7.52,0,0,1-3.126.758H0V9.4H4.671a14.877,14.877,0,0,1-2.583-3.34C3.009.708,6.406.049,8.7,0h.034c2.229,0,5.64.724,6.594,6.088A17.18,17.18,0,0,1,12.705,9.4H17.42v3.641ZM8.732,0h0Z" transform="translate(163.32 26.214)" fill="#231f20"/>
    <path id="Path-3" data-name="Path" d="M0,17.714V14.073H3.232A1.465,1.465,0,0,0,4.8,12.427V0H8.475V12.218c0,1.549-.339,5.5-4.938,5.5H0" transform="translate(180.613 21.563)" fill="#231f20"/>
    <rect id="Rectangle" width="3.663" height="17.714" transform="translate(193.028 21.563)" fill="#231f20"/>
    <path id="Shape-3" data-name="Shape" d="M11.13,20.8V18.937h1.715V20.8Zm-3.74,0V18.937h1.7l0,1.859Zm-.538-4.748c-4.705,0-6.72-3.3-6.842-5.777A6.582,6.582,0,0,1,.979,6.2c.334.3.789.689,1.013.874a5.66,5.66,0,0,0-.581,3.146c.184,1.777,1.667,4.4,5.543,4.4h6.053c2.423,0,5.151-1.014,5.151-4.028,0-2.258-1.876-3.461-4.254-4.889C9.73,3.194,11.993,0,14.614,0h7.37V6.558a3.054,3.054,0,0,0,3.252,3.4h1.652v1.388H24.878l.009-.019c-4.037,0-4.361-3.549-4.361-4.981V1.335H14.9c-2.049,0-2.752,1.724-.455,3.039C17.12,5.937,19.5,7.558,19.625,10.6c.16,3.931-3.658,5.451-6.474,5.451Z" transform="translate(204.361 27.951)" fill="#231f20"/>
    <path id="Shape-4" data-name="Shape" d="M3.765,16.937V15.092H5.486v1.845ZM0,12.2V10.791H2.345c2.016,0,3.242-1.223,3.242-3.4V0H7.041V7.223c0,1.432-.305,4.981-4.313,4.981Zm0,0H0Z" transform="translate(231.162 27.073)" fill="#231f20"/>
    <path id="Path-4" data-name="Path" d="M7.792,4.01C7.622,1.99,6.658,1.379,4.942,1.379c-1.541,0-2.825.432-3.024,2.117H.339C.712.971,2.6,0,4.942,0,7.675,0,9.3,1.262,9.3,4.078v8.141H0V10.806H7.753V4.01" transform="translate(241.653 27.058)" fill="#231f20"/>
    <path id="Shape-5" data-name="Shape" d="M.15,16.069q.073-1.828.073-3.723V7.4c0-1.252,0-2.475-.073-3.7l-.01,0Q.068,1.89,0,.006L2.151.113C2.859.138,3.576.152,4.3.152A19.459,19.459,0,0,0,6.445.075,19.418,19.418,0,0,1,8.6,0a12.743,12.743,0,0,1,4.288.67,7.2,7.2,0,0,1,2.907,1.869,7.373,7.373,0,0,1,1.672,2.947,14.035,14.035,0,0,1,.533,4,10.78,10.78,0,0,1-.969,4.8,9.119,9.119,0,0,1-2.5,3.16,9.507,9.507,0,0,1-3.368,1.7,13.391,13.391,0,0,1-3.513.485h-1.9c-.616,0-1.255-.043-1.895-.043H1.909c-.63,0-1.265.043-1.9.063C.053,18.482.1,17.288.15,16.069Z" transform="translate(113.672 59.29)" fill="#231f20"/>
    <path id="Path-5" data-name="Path" d="M0,6.665c0-.7.034-1.413.034-2.117V0a5.35,5.35,0,0,0,1.2.141A5.171,5.171,0,0,0,2.394,0C2.3,1.141,2.219,2.393,2.171,3.762s-.082,2.762-.082,4.175A7.357,7.357,0,0,0,2.345,10.2a2.885,2.885,0,0,0,.63,1.194,3.339,3.339,0,0,0,1.008.767,3.15,3.15,0,0,0,1.454.3,3.416,3.416,0,0,0,1.987-.539,3.211,3.211,0,0,0,1.182-1.291c.126-.335.233-.617.305-.835A4.045,4.045,0,0,0,9.1,8.893a13.719,13.719,0,0,0,.082-1.549V.01c.208.039.4.063.591.107a2.707,2.707,0,0,0,.6.034,3.537,3.537,0,0,0,.606-.034c.2-.034.378-.068.562-.107-.1,1.456-.15,2.913-.189,4.3s0,2.825,0,4.369V11.2c0,.835.034,1.612.087,2.354-.368,0-.741-.053-1.114-.053s-.746.034-1.119.053a3.89,3.89,0,0,0,.048-.539V11.2H9.221a4.666,4.666,0,0,1-1.938,1.981,4.8,4.8,0,0,1-2.525.665A4.9,4.9,0,0,1,1.27,12.665a4.41,4.41,0,0,1-1.26-3.4c0-.971,0-1.854.029-2.578" transform="translate(133.956 65.354)" fill="#231f20"/>
    <path id="Shape-6" data-name="Shape" d="M4.094,21.267A4.744,4.744,0,0,1,2.433,19.85c-.674.549-1.323,1.1-1.9,1.651H0c.043-.485.068-1.01.083-1.651S.136,18.5.16,17.771.2,16.315.2,15.534V6.112c0-.772,0-1.5-.039-2.253S.116,2.4.083,1.742.039.481,0,0A9.18,9.18,0,0,0,1.294.131,4.356,4.356,0,0,0,1.943.083L2.689,0c-.059.379-.122.971-.165,1.811L2.433,4.587c0,1.024-.039,2.073-.063,3.141S2.34,9.8,2.3,10.641H2.37A7.007,7.007,0,0,1,4.5,8.4,5.28,5.28,0,0,1,7.23,7.709,5.616,5.616,0,0,1,9.8,8.258a5.415,5.415,0,0,1,1.8,1.456,6.076,6.076,0,0,1,1.08,2.111,9.047,9.047,0,0,1,.359,2.568,9.45,9.45,0,0,1-.485,3.044l.005.015a7.311,7.311,0,0,1-1.391,2.33A5.374,5.374,0,0,1,9.124,21.3a6.075,6.075,0,0,1-2.553.534H6.462A5.216,5.216,0,0,1,4.094,21.267Z" transform="translate(147.717 57.374)" fill="#231f20"/>
    <path id="Shape-7" data-name="Shape" d="M3.79,14.113a5.449,5.449,0,0,1-1.4-.19,3.471,3.471,0,0,1-1.2-.651,3.868,3.868,0,0,1-.862-1.121,3.257,3.257,0,0,1-.32-1.456A3.4,3.4,0,0,1,1.052,8.04,5.657,5.657,0,0,1,4,6.8c1.022-.2,1.827-.335,2.423-.456A6.386,6.386,0,0,0,7.7,5.947a.836.836,0,0,0,.484-.485,2.292,2.292,0,0,0,.093-.689,6.218,6.218,0,0,0-.16-1.364,3.536,3.536,0,0,0-.553-1.146,2.911,2.911,0,0,0-.969-.8,3.248,3.248,0,0,0-1.453-.292,4.611,4.611,0,0,0-2.127.51A3.293,3.293,0,0,0,1.561,3.142H1.241v-1.5A7.843,7.843,0,0,1,3.615.35L3.591.341A7.261,7.261,0,0,1,5.816,0,5.585,5.585,0,0,1,7.681.287a3.935,3.935,0,0,1,2.423,2.2,4.254,4.254,0,0,1,.335,1.723c0,1.093,0,2.17-.039,3.218s-.068,2.219-.068,3.443v.718a3.028,3.028,0,0,0,.126.675,1.465,1.465,0,0,0,.345.485.848.848,0,0,0,.615.2,2.528,2.528,0,0,0,.33,0,.9.9,0,0,0,.291-.092v.616a2.439,2.439,0,0,1-.78.247,6.252,6.252,0,0,1-1.037.083,1.94,1.94,0,0,1-1.406-.462,1.983,1.983,0,0,1-.586-1.223,7.787,7.787,0,0,1-2.016,1.5,5.327,5.327,0,0,1-2.232.489Q3.885,14.116,3.79,14.113Z" transform="translate(161.642 65.082)" fill="#231f20"/>
    <path id="Shape-8" data-name="Shape" d="M1.454,19.951c-.417,0-.843.044-1.279.063.077-.743.14-1.607.159-2.558s.03-1.84.03-2.679V11.8c0-.864,0-1.771-.03-2.689v0c0-.97-.082-1.85-.159-2.66a8.475,8.475,0,0,0,1.279.14,8.119,8.119,0,0,0,1.26-.14c-.092.81-.165,1.679-.194,2.66s-.054,1.826-.054,2.685v2.976c0,.834,0,1.742.054,2.679s.1,1.821.194,2.558C2.287,20.014,1.87,19.951,1.454,19.951Zm0-17.029A1.456,1.456,0,0,1,.421.442V.437A1.459,1.459,0,0,1,1.454,0,1.369,1.369,0,0,1,2.466.437a1.421,1.421,0,0,1,.422,1.025,1.393,1.393,0,0,1-.422,1.033,1.374,1.374,0,0,1-1,.428Z" transform="translate(175.676 58.903)" fill="#231f20"/>
    <path id="Path-6" data-name="Path" d="M16.564,17.99a6.6,6.6,0,0,0-.223,1.214,12.758,12.758,0,0,1-5.815,1.17A12.379,12.379,0,0,1,6.1,19.665a9.077,9.077,0,0,1-3.319-1.942A8.539,8.539,0,0,1,.714,14.7a9.943,9.943,0,0,1-.707-3.748A11.99,11.99,0,0,1,.937,5.9,9.3,9.3,0,0,1,3.409,2.51a10.61,10.61,0,0,1,3.62-1.9A15.654,15.654,0,0,1,11.331,0,12.7,12.7,0,0,1,12.9.126c.562.092,1.09.17,1.6.306a14.609,14.609,0,0,1,1.454.451,7,7,0,0,1,1.177.553A7.379,7.379,0,0,0,16.7,2.893a12.506,12.506,0,0,0-.237,1.456h-.383a7.234,7.234,0,0,0-2.234-1.966,6,6,0,0,0-2.675-.563,5.322,5.322,0,0,0-2.287.519A5.656,5.656,0,0,0,6.786,3.9,8.145,8.145,0,0,0,5.26,6.592a11.641,11.641,0,0,0-.591,3.927,10.3,10.3,0,0,0,.615,3.748A6.91,6.91,0,0,0,6.82,16.806,5.848,5.848,0,0,0,9,18.262a7.136,7.136,0,0,0,2.423.485,7.377,7.377,0,0,0,1.391-.17A11.971,11.971,0,0,0,14.2,18.16a7.956,7.956,0,0,0,1.3-.68,5.972,5.972,0,0,0,1.071-.879l.359.218c-.155.408-.276.806-.392,1.209" transform="translate(188.476 58.898)" fill="#231f20"/>
    <path id="Shape-9" data-name="Shape" d="M4.075,14.49A5.169,5.169,0,0,1,2.234,14.2a3.2,3.2,0,0,1-1.259-.8,2.944,2.944,0,0,1-.732-1.209A3.93,3.93,0,0,1,0,10.84,4.25,4.25,0,0,1,.3,9.219a3.238,3.238,0,0,1,.872-1.16,4.765,4.765,0,0,1,1.309-.825,11.059,11.059,0,0,1,1.734-.549c.815-.2,1.454-.369,1.9-.485a5.7,5.7,0,0,0,1.051-.428A1.336,1.336,0,0,0,7.6,5.287a1.725,1.725,0,0,0,.1-.622,2.367,2.367,0,0,0-.732-1.757,2.674,2.674,0,0,0-2-.728A3.15,3.15,0,0,0,4,2.32a4.348,4.348,0,0,0-.969.345,3.39,3.39,0,0,0-.858.51,1.627,1.627,0,0,0-.577.572H1.386L1.013,2.039A8.969,8.969,0,0,1,3.581.582L3.538.515A7.832,7.832,0,0,1,6.3,0,8.9,8.9,0,0,1,8.4.252a4.54,4.54,0,0,1,1.628.825A3.564,3.564,0,0,1,11.116,2.5,5.312,5.312,0,0,1,11.5,4.64c0,1.214,0,2.354-.023,3.4s-.049,2.078-.049,3.117a5.618,5.618,0,0,0,.1,1.063,1.358,1.358,0,0,0,.305.568.83.83,0,0,0,.538.267,4.8,4.8,0,0,0,.736.049v.689a14.606,14.606,0,0,1-1.391.519,4.378,4.378,0,0,1-1.221.16,2.634,2.634,0,0,1-1.7-.486,3.153,3.153,0,0,1-1-1.485,5.685,5.685,0,0,1-1.521,1.456,4.052,4.052,0,0,1-2.016.538Q4.167,14.494,4.075,14.49Z" transform="translate(205.854 64.83)" fill="#231f20"/>
    <path id="Path-7" data-name="Path" d="M3.925,3.851A7.143,7.143,0,0,1,5.718.939,3.548,3.548,0,0,1,8.237,0h.446A6.044,6.044,0,0,0,8.557.91,11.185,11.185,0,0,0,8.5,2.05V3.439a4.163,4.163,0,0,0,.044.485l-.262.243a2.785,2.785,0,0,0-3.474.456,2.77,2.77,0,0,0-.741,1.942V7.706c0,1.16,0,2.248.029,3.277s.1,2,.2,2.956c-.237,0-.567-.063-.93-.063H.969c-.373,0-.683.044-.969.063.087-.971.145-1.942.174-2.956S.208,8.851.208,7.706V6.541c0-1.155,0-2.243-.034-3.252S.087,1.249,0,.191c.325.049.669.1.969.126s.664.024.969.024.64,0,.969-.024S3.557.24,3.876.191L3.8,3.711l.068.058" transform="translate(219.77 64.896)" fill="#231f20"/>
    <path id="Shape-10" data-name="Shape" d="M6.923,14.467a9.019,9.019,0,0,1-2.632-.379,5.325,5.325,0,0,1-2.21-1.272A5.88,5.88,0,0,1,.561,10.563,8.26,8.26,0,0,1,0,7.345,9.95,9.95,0,0,1,.488,4.117a6.746,6.746,0,0,1,1.4-2.276A5.811,5.811,0,0,1,3.991.486,6.92,6.92,0,0,1,6.6,0a5.43,5.43,0,0,1,4.333,1.656,6.787,6.787,0,0,1,1.507,4.689v.588a1.417,1.417,0,0,1-.034.354H4.228A9.282,9.282,0,0,0,4.47,9.418v.014a5.432,5.432,0,0,0,.684,1.719,3.912,3.912,0,0,0,1.187,1.131,3.561,3.561,0,0,0,1.705.412,5.377,5.377,0,0,0,3.5-1.292l.339.233-.62,1.626a5.945,5.945,0,0,1-1.71.869,8.5,8.5,0,0,1-2.377.339Q7.052,14.471,6.923,14.467Z" transform="translate(228.761 64.81)" fill="#231f20"/>
    <path id="Path-8" data-name="Path" d="M1.551,11.423a3.92,3.92,0,0,0,.669.752,3.012,3.012,0,0,0,.969.515,3.556,3.556,0,0,0,1.279.218,2.217,2.217,0,0,0,1.551-.515,1.569,1.569,0,0,0,.533-1.121,1.341,1.341,0,0,0-.485-1.058A4.9,4.9,0,0,0,4.875,9.5c-.485-.214-1.027-.456-1.594-.68a7.482,7.482,0,0,1-1.58-.85A4.366,4.366,0,0,1,.494,6.636,3.738,3.738,0,0,1,.01,4.583a4.217,4.217,0,0,1,1.6-3.5A5.094,5.094,0,0,1,3.232.272,6.26,6.26,0,0,1,5.005,0,6.328,6.328,0,0,1,7.133.34,9.2,9.2,0,0,1,9.027,1.355a7.6,7.6,0,0,0-.436,1.223c-.092.485-.194.879-.247,1.306h-.8a3.159,3.159,0,0,0-.276-.762,2.612,2.612,0,0,0-.552-.772A2.084,2.084,0,0,0,5.9,1.724a2.8,2.8,0,0,0-1.173-.252,2.183,2.183,0,0,0-1.454.485,1.379,1.379,0,0,0-.6,1.189,1.341,1.341,0,0,0,.485,1.087,5.415,5.415,0,0,0,1.236.733c.485.214,1.051.417,1.633.621a8.4,8.4,0,0,1,1.618.806A4.273,4.273,0,0,1,8.882,7.7a3.845,3.845,0,0,1,.485,2.044,4.784,4.784,0,0,1-.4,2.107,4.517,4.517,0,0,1-1.231,1.456,5.4,5.4,0,0,1-1.74.85,9.428,9.428,0,0,1-2.069.238,6.739,6.739,0,0,1-2.311-.359A8.715,8.715,0,0,1,0,13.263,16.863,16.863,0,0,0,.417,10.52h.712a5.6,5.6,0,0,0,.431.874" transform="translate(241.546 64.849)" fill="#231f20"/>
    <path id="Path-9" data-name="Path" d="M35.245,16.632c-5.4.563-6.164,8.864-9.42,7.718s4.211-20.7-.538-21.665S22.38,18.7,19.74,18.812C17.423,18.3,21.978.156,17.307,0s-1.7,19.029-3.324,18.966S13.445,1.86,9.1,3.4s1.909,17.121-.087,18.893S4.592,8.661.978,10.312,4.936,24.516,4.936,26.6c.078,13.447,16.286,24.612,25.386,6.126,4.191-8.553,10.3-16.655,4.918-16.092" transform="translate(25.537 -0.001)" fill="#e36f1e"/>
    <path id="Path-10" data-name="Path" d="M30.294,35.072C28.079,30.1,19.978,31.951,20.05,28.514S41,26.087,40.441,21.276,24.334,23.494,23.4,20.994c-.252-2.388,18.37-3.68,17.081-8.189S21.906,17.116,21.46,15.533,37.523,9.708,34.694,6.077s-15.641,7.15-17.933,5.791S28.322,3.436,25.637.494,13.393,8.674,11.4,9.344C-1.333,13.582-6.876,32.5,13.494,35.412c9.4,1.354,19,4.626,16.8-.311" transform="translate(56.626 14.443)" fill="#0093d0"/>
    <path id="Path-11" data-name="Path" d="M5.888,32.932c4.041-3.66-.228-10.806,3.062-11.8s8.785,19.243,13.146,17.2-7.084-14.65-4.991-16.3c2.176-.971,9.158,16.345,13.03,13.733S20.318,19.4,21.67,18.5,32.165,32,34.753,28.2,23.172,15.471,23.744,12.874s11.586,8.417,13.543,4.961S25.75,8.66,24.519,7C16.563-3.825-3.1-3.272.417,17.034,2.04,26.408,1.871,36.573,5.9,32.956" transform="translate(57.856 51.738)" fill="#ffc425"/>
    <path id="Path-12" data-name="Path" d="M1.2,12.806c4.715,2.723,10.176-3.544,12.138-.714S-2.213,26.383,1.072,29.942,12.793,18.67,15.012,20.16c1.6,1.772-12.71,13.772-9.027,16.655s12.531-14.422,13.8-13.393-9.57,14.165-5.156,15.451S23.119,23.9,25.77,23.65s-4.409,13.592-.514,14.432S30.378,24.247,31.6,22.548C39.42,11.616,32.83-6.942,14.639,2.679,6.232,7.116-3.459,10.107,1.222,12.815" transform="translate(22.027 60.617)" fill="#5e9732"/>
    <path id="Path-13" data-name="Path" d="M21.4,1.694C20.271,7,27.908,10.3,25.839,13.019S7.455,2.607,5.1,6.845s14.314,7.7,13.6,10.257C17.5,19.194,1.689,9.243.094,13.655s17.546,7.481,16.959,9.019S.656,17.9.8,22.51s16.838,3.485,17.885,5.922-14.29,0-13.853,3.951,14.711.617,16.7,1.252c12.792,4.087,28.385-7.917,13.635-22.306C28.388,4.7,22.544-3.622,21.405,1.689" transform="translate(0.003 29.67)" fill="#79496a"/>
  </g>
</svg>
