<?xml version="1.0" encoding="UTF-8"?>
<svg width="761px" height="260px" viewBox="0 0 761 260" version="1.1" xmlns="http://www.w3.org/2000/svg" xmlns:xlink="http://www.w3.org/1999/xlink">
    <title>confetti-2</title>
    <g id="Design" stroke="none" stroke-width="1" fill="none" fill-rule="evenodd">
        <g id="3-Booking-3-successful-booking" transform="translate(-579.000000, -235.000000)" fill-rule="nonzero">
            <g id="confetti-2" transform="translate(579.000000, 235.000000)">
                <path d="M14.2982499,121.903661 L7.80318421,138.246581 C7.37224186,139.330251 7.38677288,140.541815 7.84358014,141.614702 C8.3003874,142.68759 9.16204536,143.533901 10.2389705,143.967429 L38.6593927,155.409123 L37.4420462,158.470876 C36.4724867,160.909272 36.5053366,163.635406 37.5333677,166.049426 C38.5613988,168.463446 40.5003791,170.367557 42.9236586,171.342783 L74.3926401,184.007858 C76.0349544,184.668953 77.9112942,184.269336 79.1466393,182.995367 C80.3819844,181.721398 80.7330249,179.823993 80.0360553,178.187996 L76.8858227,170.792701 L84.2352721,167.623132 C85.8609694,166.921916 86.906834,165.304264 86.8855066,163.524491 C86.8635192,161.744718 85.7786049,160.153323 84.136332,159.492378 L63.8328287,151.318717 L65.0545483,148.251463 C67.0642739,143.173058 64.6105875,137.41583 59.5691094,135.380657 L19.9821157,119.450298 C18.9051062,119.016696 17.7010275,119.031475 16.6348478,119.491382 C15.568668,119.951289 14.7277541,120.818638 14.2971567,121.902561 L14.2982499,121.903661 Z M71.0860712,163.717003 L69.4210341,164.43486 C67.2029036,165.392624 66.1753361,167.977759 67.1251853,170.210715 L67.8390849,171.886263 L46.1744713,163.165822 C45.90524,163.05744 45.6898255,162.845862 45.5756237,162.57764 C45.4614219,162.309418 45.4577891,162.006527 45.5655247,161.73561 L48.4080042,154.584551 L56.5145372,157.847634 L56.5227366,157.851485 L56.5314827,157.851485 L71.0860712,163.717003 Z M20.7960488,129.25715 L56.3232164,143.553767 C56.5933389,143.661192 56.8098789,143.87237 56.9250478,144.140696 C57.0402167,144.409021 57.0445469,144.712436 56.9370827,144.983979 L55.7153631,148.052333 L47.5951644,144.783749 C46.5182929,144.350087 45.3143296,144.364709 44.2481726,144.8244 C43.1820156,145.284091 42.3410136,146.151189 41.9102054,147.234912 L17.5496092,137.42861 L20.7960488,129.25715 Z" id="Shape" fill="#EB2A74"></path>
                <path d="M236.755927,52.9699435 L230.260861,69.3128637 C229.829919,70.3965334 229.84445,71.6080971 230.301257,72.6809845 C230.758065,73.753872 231.619723,74.600183 232.696648,75.0337109 L261.11707,86.4754054 L259.899723,89.5371588 C258.930164,91.9755543 258.963014,94.7016887 259.991045,97.1157084 C261.019076,99.529728 262.958056,101.433839 265.381336,102.409065 L296.850317,115.074141 C298.492632,115.735235 300.368971,115.335619 301.604316,114.061649 C302.839662,112.78768 303.190702,110.890275 302.493732,109.254279 L299.3435,101.858984 L306.692949,98.6894142 C308.318647,97.9881988 309.364511,96.3705467 309.343184,94.5907734 C309.321196,92.811 308.236282,91.2196051 306.594009,90.5586601 L286.290506,82.3849996 L287.512225,79.3177454 C289.521951,74.2393409 287.068265,68.4821129 282.026787,66.4469393 L242.439793,50.5165802 C241.362783,50.0829785 240.158705,50.0977573 239.092525,50.5576645 C238.026345,51.0175716 237.185431,51.8849205 236.754834,52.9688433 L236.755927,52.9699435 Z M293.543748,94.7832857 L291.878711,95.501142 C289.660581,96.458906 288.633013,99.0440419 289.582862,101.276997 L290.296762,102.952545 L268.632148,94.2321041 C268.362917,94.1237221 268.147503,93.9121443 268.033301,93.6439225 C267.919099,93.3757006 267.915466,93.0728097 268.023202,92.8018923 L270.865681,85.6508333 L278.972214,88.9139165 L278.980414,88.9177671 L278.98916,88.9177671 L293.543748,94.7832857 Z M243.253726,60.3234325 L278.780894,74.6200497 C279.051016,74.7274747 279.267556,74.9386527 279.382725,75.2069781 C279.497894,75.4753036 279.502224,75.7787185 279.39476,76.0502615 L278.17304,79.1186159 L270.052842,75.8500318 C268.97597,75.416369 267.772007,75.4309918 266.70585,75.8906828 C265.639693,76.3503738 264.798691,77.2174712 264.367883,78.3011948 L240.007286,68.4948926 L243.253726,60.3234325 Z" id="Shape-Copy-2" fill="#AD3784" transform="translate(269.645669, 82.795389) rotate(105.000000) translate(-269.645669, -82.795389) "></path>
                <path d="M510.749232,91.3475171 C511.242087,93.686623 513.535881,95.1830007 515.872741,94.6898852 L532.799023,91.1186322 C533.92132,90.8817277 534.903627,90.2082431 535.529834,89.2463468 C536.15604,88.2844505 536.374846,87.1129417 536.138114,85.9895554 L529.892386,56.3373337 L533.069307,55.666371 C538.321427,54.5517344 541.681378,49.3922532 540.580507,44.132306 L533.666635,11.3038335 C533.305968,9.59058908 531.949772,8.26352755 530.230463,7.94147747 C528.511154,7.61942738 526.767335,8.36581375 525.812174,9.83258552 L521.494113,16.4648352 L514.872689,12.1425369 C513.407416,11.1853035 511.510275,11.2062165 510.066418,12.1955185 C508.62256,13.1848205 507.916535,14.9475442 508.277753,16.6612541 L512.737443,37.8409487 L509.563765,38.5102881 C507.038622,39.0431195 504.828364,40.5582291 503.419231,42.7223049 C502.010098,44.8863806 501.517521,47.5221497 502.049862,50.049764 L510.749232,91.3475171 Z M520.391353,26.0817866 C521.352125,26.7088701 522.522414,26.9282187 523.644758,26.6915758 C524.767101,26.4549329 525.749558,25.7816841 526.375987,24.8199439 L527.356579,23.3140655 L532.117906,45.9190147 C532.237877,46.5020031 531.864979,47.072536 531.283268,47.1960082 L528.107969,47.8664298 L526.324093,39.3971492 C525.831482,37.058081 523.537972,35.5614889 521.201125,36.05424 L518.8956,25.105103 L520.391353,26.0817866 Z M511.348182,46.981733 L518.748025,45.4201215 L518.75289,45.4201215 L526.783035,83.5405416 L518.320435,85.3261681 L510.513544,48.2635964 C510.390548,47.6789436 510.764162,47.105135 511.348182,46.981733 L511.348182,46.981733 Z" id="Shape" fill="#F0672A"></path>
                <path d="M111.114898,131.250117 C111.905635,132.58205 113.3429,133.388895 114.885289,133.367166 C116.427678,133.344545 117.840867,132.496719 118.592519,131.142611 C119.344172,129.788502 119.320095,128.133832 118.529358,126.801899 L111.355558,114.71233 L123.377344,107.502962 C124.360644,106.913317 125.070568,105.955 125.350938,104.838836 C125.631307,103.722672 125.459153,102.540094 124.87235,101.551263 L117.698011,89.4616945 L129.719797,82.2523273 C131.044262,81.4577297 131.846266,80.0129131 131.823701,78.4621259 C131.801135,76.9113387 130.957429,75.4901825 129.610398,74.733993 C128.263367,73.9778035 126.617657,74.001464 125.293192,74.7960617 L109.563636,84.2284527 C107.51621,85.4565103 106.847119,88.1211572 108.069169,90.1801518 L115.243509,102.269721 L103.221723,109.479088 C102.238422,110.068733 101.528498,111.02705 101.248129,112.143214 C100.967759,113.259378 101.139913,114.441956 101.726716,115.430787 L111.114898,131.250117 Z" id="Path" fill="#AD3784" transform="translate(116.470432, 103.775102) rotate(35.000000) translate(-116.470432, -103.775102) "></path>
                <path d="M344.059159,153.588084 L332.109965,145.400715 C330.07515,144.053544 327.307357,144.546005 325.892594,146.506945 C324.477831,148.467884 324.939366,151.172023 326.929354,152.581328 L342.562976,163.292994 C344.597879,164.687213 347.407507,164.210465 348.838837,162.228082 L357.242127,150.585921 L369.191321,158.77329 C371.226371,160.167396 374.03603,159.690397 375.467182,157.707829 L386.461904,142.47591 C387.844603,140.493378 387.339155,137.796703 385.3265,136.418292 C383.313846,135.039881 380.538393,135.489557 379.091921,137.428413 L370.68863,149.070026 L358.739437,140.882656 C357.762317,140.212436 356.551919,139.947927 355.374602,140.147336 C354.197286,140.346746 353.149524,140.993733 352.461887,141.945922 L344.059159,153.588084 Z" id="Path" fill="#F0672A"></path>
                <path d="M703.700295,60.3170029 C711.35319,60.3170029 717.557087,54.1109212 717.557087,46.4553314 C717.557087,38.7997417 711.35319,32.5936599 703.700295,32.5936599 C696.047401,32.5936599 689.843504,38.7997417 689.843504,46.4553314 C689.852095,54.1073586 696.050962,60.3084088 703.700295,60.3170029 L703.700295,60.3170029 Z M703.700295,41.8347743 C706.25126,41.8347743 708.319226,43.9034682 708.319226,46.4553314 C708.319226,49.0071947 706.25126,51.0758886 703.700295,51.0758886 C701.14933,51.0758886 699.081365,49.0071947 699.081365,46.4553314 C699.084228,43.9046557 701.150518,41.8376389 703.700295,41.8347743 L703.700295,41.8347743 Z" id="Shape" fill="#F0672A"></path>
                <path d="M192.871555,164.841499 C200.52445,164.841499 206.728346,158.635417 206.728346,150.979827 C206.728346,143.324237 200.52445,137.118156 192.871555,137.118156 C185.218661,137.118156 179.014764,143.324237 179.014764,150.979827 C179.023355,158.631854 185.222222,164.832905 192.871555,164.841499 L192.871555,164.841499 Z M192.871555,146.35927 C195.42252,146.35927 197.490486,148.427964 197.490486,150.979827 C197.490486,153.53169 195.42252,155.600384 192.871555,155.600384 C190.32059,155.600384 188.252625,153.53169 188.252625,150.979827 C188.255488,148.429151 190.321777,146.362135 192.871555,146.35927 L192.871555,146.35927 Z" id="Shape-Copy-3" fill="#EB2A74"></path>
                <path d="M747.143209,207.925072 C754.796103,207.925072 761,201.71899 761,194.063401 C761,186.407811 754.796103,180.201729 747.143209,180.201729 C739.490314,180.201729 733.286417,186.407811 733.286417,194.063401 C733.295008,201.715428 739.493875,207.916478 747.143209,207.925072 L747.143209,207.925072 Z M747.143209,189.442843 C749.694174,189.442843 751.762139,191.511537 751.762139,194.063401 C751.762139,196.615264 749.694174,198.683958 747.143209,198.683958 C744.592244,198.683958 742.524278,196.615264 742.524278,194.063401 C742.527142,191.512725 744.593431,189.445708 747.143209,189.442843 L747.143209,189.442843 Z" id="Shape" fill="#EB2A74"></path>
                <path d="M541.912894,177.579251 C549.565788,177.579251 555.769685,171.373169 555.769685,163.717579 C555.769685,156.061989 549.565788,149.855908 541.912894,149.855908 C534.259999,149.855908 528.056102,156.061989 528.056102,163.717579 C528.064693,171.369606 534.263561,177.570657 541.912894,177.579251 L541.912894,177.579251 Z M541.912894,159.097022 C544.463859,159.097022 546.531824,161.165716 546.531824,163.717579 C546.531824,166.269443 544.463859,168.338136 541.912894,168.338136 C539.361929,168.338136 537.293963,166.269443 537.293963,163.717579 C537.296827,161.166904 539.363116,159.099887 541.912894,159.097022 L541.912894,159.097022 Z" id="Shape-Copy-5" fill="#EB2A74"></path>
                <path d="M38.9488189,246.138329 C38.9488189,253.793918 45.1527157,260 52.8056102,260 C60.4585048,260 66.6624016,253.793918 66.6624016,246.138329 C66.6624016,238.482739 60.4585048,232.276657 52.8056102,232.276657 C45.156277,232.285251 38.9574099,238.486301 38.9488189,246.138329 Z M57.4245407,246.138329 C57.4245407,248.690192 55.3565751,250.758886 52.8056102,250.758886 C50.2546454,250.758886 48.1866798,248.690192 48.1866798,246.138329 C48.1866798,243.586465 50.2546454,241.517771 52.8056102,241.517771 C55.355388,241.520636 57.421677,243.587653 57.4245407,246.138329 L57.4245407,246.138329 Z" id="Shape" fill="#F0672A"></path>
                <path d="M591.847277,60.3170029 L610.322999,60.3170029 C612.873964,60.3170029 614.941929,58.248309 614.941929,55.6964457 L614.941929,37.2142171 C614.941929,34.6623538 612.873964,32.5936599 610.322999,32.5936599 L591.847277,32.5936599 C589.296312,32.5936599 587.228346,34.6623538 587.228346,37.2142171 L587.228346,55.6964457 C587.228346,58.248309 589.296312,60.3170029 591.847277,60.3170029 Z M596.466207,41.8347743 L605.704068,41.8347743 L605.704068,51.0758886 L596.466207,51.0758886 L596.466207,41.8347743 Z" id="Shape" fill="#AD3784"></path>
                <path d="M388.114993,27.7233429 L406.590715,27.7233429 C409.14168,27.7233429 411.209646,25.654649 411.209646,23.1027858 L411.209646,4.62055716 C411.209646,2.0686939 409.14168,0 406.590715,0 L388.114993,0 C385.564029,0 383.496063,2.0686939 383.496063,4.62055716 L383.496063,23.1027858 C383.496063,25.654649 385.564029,27.7233429 388.114993,27.7233429 Z M392.733924,9.24111431 L401.971785,9.24111431 L401.971785,18.4822286 L392.733924,18.4822286 L392.733924,9.24111431 Z" id="Shape-Copy-4" fill="#AD3784"></path>
                <path d="M165.53248,37.339097 C165.53248,39.8909603 167.600446,41.9596542 170.151411,41.9596542 L188.627133,41.9596542 C191.178097,41.9596542 193.246063,39.8909603 193.246063,37.339097 L193.246063,18.8568684 C193.246063,16.3050051 191.178097,14.2363112 188.627133,14.2363112 L170.151411,14.2363112 C167.600446,14.2363112 165.53248,16.3050051 165.53248,18.8568684 L165.53248,37.339097 Z M174.770341,23.4774256 L184.008202,23.4774256 L184.008202,32.7185399 L174.770341,32.7185399 L174.770341,23.4774256 Z" id="Shape" fill="#EB2A74" transform="translate(179.389272, 28.097983) rotate(39.000000) translate(-179.389272, -28.097983) "></path>
                <path d="M641.532837,131.387408 L637.575834,136.983651 C635.653194,139.70273 635.69842,143.351694 637.687859,146.022198 C639.677297,148.692702 643.158461,149.777355 646.310763,148.708902 L652.798031,146.511928 L656.89222,152.007659 C658.881696,154.677967 662.36272,155.762498 665.514898,154.694097 C668.667076,153.625697 670.773522,150.647347 670.732676,147.31657 L670.64817,140.460912 L677.135986,138.263937 C680.288068,137.195085 682.394116,134.21637 682.352748,130.885545 C682.31138,127.55472 680.132004,124.629325 676.954352,123.639229 L670.41605,121.597691 L670.331543,114.742582 C670.290701,111.410753 668.110527,108.484376 664.931735,107.49459 C661.752942,106.504804 658.298946,107.676861 656.376948,110.397516 L652.419945,115.99321 L645.880546,113.955516 C642.703146,112.96536 639.250093,114.135379 637.327003,116.853765 C635.403913,119.572152 635.448097,123.220744 637.436452,125.891677 L641.532837,131.387408 Z M650.571771,124.61908 C653.749759,125.615232 657.206769,124.443501 659.126163,121.719623 L661.592224,118.231377 L661.647099,122.504492 C661.681926,125.837673 663.863905,128.76664 667.045656,129.751212 L671.121737,131.021063 L667.077483,132.394172 C663.921778,133.457847 661.813597,136.439638 661.86111,139.77216 L661.91324,144.044726 L659.361026,140.618545 C657.374178,137.94432 653.890108,136.859137 650.738041,137.932744 L646.694884,139.303106 L649.160946,135.815959 C651.090785,133.09908 651.046429,129.445646 649.051197,126.776508 L646.499531,123.351426 L650.571771,124.61908 Z" id="Shape" fill="#EB2A74"></path>
                <path d="M16.104687,36.2289067 L12.147684,41.8251492 C10.2250448,44.5442284 10.2702706,48.1931926 12.259709,50.8636968 C14.2491474,53.534201 17.7303116,54.6188539 20.8826131,53.5504006 L27.3698811,51.3534264 L31.4640705,56.8491574 C33.4535468,59.5194657 36.9345707,60.6039961 40.0867483,59.5355959 C43.2389259,58.4671957 45.3453727,55.4888459 45.3045267,52.1580682 L45.22002,45.3024102 L51.7078367,43.105436 C54.8599181,42.036584 56.9659661,39.0578685 56.9245982,35.7270435 C56.8832303,32.3962186 54.7038549,29.4708235 51.526202,28.4807279 L44.9879007,26.4391896 L44.9033939,19.5840808 C44.862551,16.252252 42.6823778,13.3258745 39.5035851,12.3360884 C36.3247924,11.3463024 32.8707966,12.5183593 30.9487986,15.239015 L26.9917955,20.8347084 L20.4523967,18.7970148 C17.2749964,17.8068582 13.8219439,18.9768771 11.8988536,21.6952641 C9.97576332,24.413651 10.0199477,28.0622424 12.0083026,30.7331757 L16.104687,36.2289067 Z M25.1436211,29.4605784 C28.3216094,30.4567306 31.7786189,29.2849993 33.698013,26.5611216 L36.1640748,23.0728758 L36.2189493,27.3459907 C36.253776,30.6791714 38.4357557,33.6081382 41.6175065,34.5927101 L45.6935872,35.8625612 L41.6493337,37.2356701 C38.4936288,38.2993453 36.3854477,41.2811363 36.43296,44.6136588 L36.4850908,48.8862244 L33.932876,45.4600431 C31.9460285,42.7858184 28.4619589,41.7006353 25.3098909,42.7742421 L21.2667349,44.1446048 L23.7327967,40.6574574 C25.6626357,37.9405784 25.6182789,34.2871448 23.6230476,31.618007 L21.0713815,28.1929242 L25.1436211,29.4605784 Z" id="Shape-Copy" fill="#F0672A" transform="translate(33.705709, 35.965418) rotate(-50.000000) translate(-33.705709, -35.965418) "></path>
            </g>
        </g>
    </g>
</svg>