<?xml version="1.0" encoding="UTF-8"?>
<svg width="91px" height="80px" viewBox="0 0 91 80" version="1.1" xmlns="http://www.w3.org/2000/svg" xmlns:xlink="http://www.w3.org/1999/xlink">
    <title>confetti-2</title>
    <g id="Design" stroke="none" stroke-width="1" fill="none" fill-rule="evenodd">
        <g id="8-Notifications" transform="translate(-1580.000000, -155.000000)" fill-rule="nonzero">
            <g id="Group-16" transform="translate(1148.000000, 125.000000)">
                <g id="Group-12" transform="translate(40.000000, 30.000000)">
                    <g id="confetti-2" transform="translate(392.000000, 0.000000)">
                        <path d="M39.4771572,57.8481685 L37.1933981,63.5935382 C37.0418725,63.9745034 37.0469818,64.4004298 37.2076019,64.7776044 C37.3682219,65.1547791 37.6711933,65.4523006 38.0498558,65.6047077 L48.0428877,69.6270467 L47.614851,70.7034091 C47.2739398,71.5606295 47.2854903,72.5190047 47.646961,73.3676557 C48.0084316,74.2163067 48.6902051,74.8856989 49.5422653,75.2285405 L60.6072147,79.6809603 C61.1846762,79.9133689 61.8444244,79.7728832 62.2787896,79.325018 C62.7131549,78.8771529 62.8365858,78.2101183 62.5915212,77.6349821 L61.4838538,75.0351588 L64.0680266,73.9208936 C64.6396453,73.6743806 65.0073864,73.1056934 64.9998874,72.4800123 C64.9921563,71.8543313 64.6106847,71.2948748 64.0332378,71.0625189 L56.8942322,68.1890605 L57.3238064,67.1107643 C58.0304551,65.3254461 57.1677034,63.301487 55.3950467,62.5860197 L41.4756867,56.9856862 C41.0969946,56.8332531 40.6736231,56.8384486 40.2987388,57.0001294 C39.9238546,57.1618103 39.6281771,57.4667276 39.4767728,57.8477817 L39.4771572,57.8481685 Z M59.4445772,72.5476902 L58.8591261,72.8000533 C58.0791993,73.1367562 57.7178917,74.0455633 58.0518724,74.830561 L58.3028898,75.4196016 L50.6852981,72.3539218 C50.5906324,72.31582 50.5148896,72.2414396 50.4747346,72.147146 C50.4345796,72.0528523 50.4333022,71.9463707 50.4711836,71.8511294 L51.4706406,69.3371676 L54.3210149,70.4843077 L54.323898,70.4856614 L54.3269732,70.4856614 L59.4445772,72.5476902 Z M41.7618773,60.4332948 L54.2537438,65.4592847 C54.3487227,65.4970501 54.4248613,65.5712899 54.4653564,65.66562 C54.5058515,65.7599501 54.507374,65.8666159 54.469588,65.9620771 L54.0400138,67.0407601 L51.1848343,65.8916861 C50.8061907,65.7392316 50.3828598,65.7443722 50.0079836,65.905977 C49.6331073,66.0675819 49.3373989,66.3724108 49.1859204,66.7533949 L40.6203822,63.3059797 L41.7618773,60.4332948 Z" id="Shape" fill="#EB2A74"></path>
                        <path d="M3.14500833,29.4224408 C3.31899951,30.241018 4.12877164,30.7646799 4.95374722,30.5921127 L10.9291884,29.3423419 C11.3253903,29.2594364 11.6721715,29.0237484 11.8932395,28.6871299 C12.1143075,28.3505114 12.1915521,27.9405383 12.1079793,27.5474059 L9.90306595,17.1705211 L11.0246062,16.9357157 C12.8787486,16.5456452 14.0649034,14.7400692 13.6762655,12.8993347 L11.2354794,1.41091135 C11.1081539,0.811356265 10.6293798,0.346947067 10.0224167,0.234244663 C9.41545355,0.12154226 8.79983756,0.38274243 8.46263959,0.896043655 L6.9382456,3.21701951 L4.60070154,1.70441813 C4.08342006,1.3694314 3.41367752,1.37674997 2.90395629,1.7229592 C2.39423505,2.06916844 2.14498874,2.68603894 2.27250842,3.28575691 L3.84690131,10.6976552 L2.72650608,10.9318925 C1.83506126,11.1183585 1.05477977,11.6485757 0.557317269,12.4059005 C0.0598547715,13.1632254 -0.114038491,14.0856208 0.0738926055,14.9701671 L3.14500833,29.4224408 Z M6.54894118,6.58250078 C6.88811992,6.80195055 7.3012641,6.87871226 7.69748217,6.79589836 C8.09370025,6.71308446 8.44053431,6.47747901 8.66168101,6.1409151 L9.00785661,5.61392841 L10.6887357,13.5245988 C10.7310886,13.7286174 10.5994454,13.9282771 10.3940857,13.9714866 L9.27311796,14.2061026 L8.64336081,11.2422523 C8.46945561,10.4236882 7.659784,9.89995132 6.83481276,10.072391 L6.02089934,6.2407074 L6.54894118,6.58250078 Z M3.35645407,13.8965003 L5.96880125,13.3500096 L5.97051877,13.3500096 L8.80538015,26.6903661 L5.81785037,27.3152515 L3.06180405,14.3450923 C3.01838308,14.1404913 3.15027914,13.9396852 3.35645407,13.8965003 L3.35645407,13.8965003 Z" id="Shape" fill="#F0672A"></path>
                        <path d="M23.1089013,54.8800226 C23.3877367,55.3488122 23.8946498,55.6327348 24.4386913,55.625 C24.9827328,55.6169442 25.4812499,55.3184304 25.746456,54.8417454 C26.0116621,54.3650604 26.0032661,53.782624 25.7244307,53.3138344 L23.1947531,49.0587685 L27.4355656,46.5203977 C27.7824352,46.3127875 28.0328997,45.9754221 28.1318582,45.5825202 C28.2308167,45.1896182 28.1701629,44.7733652 27.9632401,44.4253345 L25.4333722,40.1702686 L29.6741847,37.6318978 C30.141404,37.3521253 30.4243756,36.8435084 30.4165067,36.2976384 C30.4086379,35.7517683 30.111124,35.2515757 29.6360358,34.9854783 C29.1609475,34.7193808 28.5804621,34.727805 28.1132428,35.0075776 L22.5644752,38.3286606 C21.8422241,38.7610515 21.6060632,39.6990364 22.0369911,40.4237237 L24.5668591,44.6787896 L20.3260465,47.2171604 C19.9791769,47.4247706 19.7287124,47.762136 19.6297539,48.155038 C19.5307954,48.5479399 19.5914493,48.9641929 19.7983721,49.3122236 L23.1089013,54.8800226 Z" id="Path" fill="#EB2A74"></path>
                        <path d="M69.1288636,47.4302312 L66.2003764,51.5191281 L62.0358879,48.6436046 C61.3267215,48.1704585 60.3621007,48.3434182 59.8690328,49.0321287 C59.3759648,49.7208393 59.5368173,50.6705721 60.2303604,51.1655406 L65.6789322,54.927634 C66.3881291,55.417304 67.3673302,55.249863 67.8661718,54.5536213 L70.7948553,50.4647245 L74.9593438,53.3402479 C75.6685917,53.8298784 76.6478035,53.6623492 77.1465834,52.9660426 L80.978423,47.6163704 C81.4603162,46.9200765 81.284159,45.9729649 80.5827163,45.4888469 C79.8812735,45.0047288 78.9139829,45.1626617 78.4098639,45.8436159 L75.4811805,49.9323201 L71.316692,47.0567966 C70.9761497,46.8214056 70.5543064,46.7285062 70.1439925,46.7985416 C69.7336785,46.868577 69.3685165,47.0958083 69.1288636,47.4302312 L69.1288636,47.4302312 Z" id="Path" fill="#AD3784"></path>
                        <path d="M70.625,18.5416667 C73.2713644,18.5416667 75.4166667,16.3963644 75.4166667,13.75 C75.4166667,11.1036356 73.2713644,8.95833333 70.625,8.95833333 C67.9786356,8.95833333 65.8333333,11.1036356 65.8333333,13.75 C65.8363041,16.3951329 67.9798671,18.5386959 70.625,18.5416667 L70.625,18.5416667 Z M70.625,12.1527778 C71.5071215,12.1527778 72.2222222,12.8678785 72.2222222,13.75 C72.2222222,14.6321215 71.5071215,15.3472222 70.625,15.3472222 C69.7428785,15.3472222 69.0277778,14.6321215 69.0277778,13.75 C69.028768,12.868289 69.743289,12.153768 70.625,12.1527778 L70.625,12.1527778 Z" id="Shape" fill="#F0672A"></path>
                        <path d="M86.0416667,70.2083333 C88.6880311,70.2083333 90.8333333,68.0630311 90.8333333,65.4166667 C90.8333333,62.7703022 88.6880311,60.625 86.0416667,60.625 C83.3953022,60.625 81.25,62.7703022 81.25,65.4166667 C81.2529708,68.0617996 83.3965337,70.2053626 86.0416667,70.2083333 L86.0416667,70.2083333 Z M86.0416667,63.8194444 C86.9237881,63.8194444 87.6388889,64.5345452 87.6388889,65.4166667 C87.6388889,66.2987881 86.9237881,67.0138889 86.0416667,67.0138889 C85.1595452,67.0138889 84.4444444,66.2987881 84.4444444,65.4166667 C84.4454347,64.5349557 85.1599557,63.8204347 86.0416667,63.8194444 L86.0416667,63.8194444 Z" id="Shape" fill="#EB2A74"></path>
                        <path d="M6.66666667,65.4166667 C6.66666667,68.0630311 8.81196891,70.2083333 11.4583333,70.2083333 C14.1046978,70.2083333 16.25,68.0630311 16.25,65.4166667 C16.25,62.7703022 14.1046978,60.625 11.4583333,60.625 C8.81320042,60.6279708 6.66963743,62.7715337 6.66666667,65.4166667 Z M13.0555556,65.4166667 C13.0555556,66.2987881 12.3404548,67.0138889 11.4583333,67.0138889 C10.5762119,67.0138889 9.86111111,66.2987881 9.86111111,65.4166667 C9.86111111,64.5345452 10.5762119,63.8194444 11.4583333,63.8194444 C12.3400443,63.8204347 13.0545653,64.5349557 13.0555556,65.4166667 L13.0555556,65.4166667 Z" id="Shape" fill="#F0672A"></path>
                        <path d="M31.5972222,18.5416667 L37.9861111,18.5416667 C38.8682326,18.5416667 39.5833333,17.8265659 39.5833333,16.9444444 L39.5833333,10.5555556 C39.5833333,9.67343408 38.8682326,8.95833333 37.9861111,8.95833333 L31.5972222,8.95833333 C30.7151007,8.95833333 30,9.67343408 30,10.5555556 L30,16.9444444 C30,17.8265659 30.7151007,18.5416667 31.5972222,18.5416667 Z M33.1944444,12.1527778 L36.3888889,12.1527778 L36.3888889,15.3472222 L33.1944444,15.3472222 L33.1944444,12.1527778 Z" id="Shape" fill="#AD3784"></path>
                        <path d="M81.25,31.9444444 C81.25,32.8265659 81.9651007,33.5416667 82.8472222,33.5416667 L89.2361111,33.5416667 C90.1182326,33.5416667 90.8333333,32.8265659 90.8333333,31.9444444 L90.8333333,25.5555556 C90.8333333,24.6734341 90.1182326,23.9583333 89.2361111,23.9583333 L82.8472222,23.9583333 C81.9651007,23.9583333 81.25,24.6734341 81.25,25.5555556 L81.25,31.9444444 Z M84.4444444,27.1527778 L87.6388889,27.1527778 L87.6388889,30.3472222 L84.4444444,30.3472222 L84.4444444,27.1527778 Z" id="Shape" fill="#F0672A"></path>
                        <path d="M46.1326893,30.7165771 L44.7480486,32.6615853 C44.0752757,33.6066178 44.0911011,34.8748376 44.7872486,35.8029876 C45.483396,36.7311376 46.7015305,37.1081153 47.8045888,36.7367678 L50.0746239,35.9731961 L51.5072691,37.8832709 C52.2034298,38.8113527 53.4215152,39.1882879 54.5245302,38.8169589 C55.6275451,38.4456299 56.3646363,37.4104863 56.3503434,36.2528542 L56.3207727,33.8701285 L58.5909998,33.1065568 C59.693981,32.7350708 60.4309327,31.6998 60.4164572,30.5421516 C60.4019817,29.3845031 59.6393712,28.3677642 58.5274419,28.0236504 L56.2395491,27.3141013 L56.2099784,24.9315665 C56.1956866,23.7735691 55.4327969,22.7564888 54.3204687,22.4124827 C53.2081406,22.0684765 51.9995129,22.475832 51.3269643,23.4214125 L49.9423236,25.3662298 L47.6540468,24.658017 C46.5422059,24.313882 45.3339083,24.7205292 44.6609775,25.6653211 C43.9880467,26.6101131 44.0035078,27.8782032 44.6992761,28.8065024 L46.1326893,30.7165771 Z M49.2956074,28.3642034 C50.4076541,28.7104222 51.6173364,28.3031798 52.2889738,27.3564796 L53.151902,26.1441185 L53.1711038,27.6292656 C53.1832904,28.7877328 53.9468122,29.8057131 55.0601755,30.1479071 L56.4864841,30.5892515 L55.0713125,31.0664839 C53.9670632,31.4361707 53.2293652,32.4725103 53.2459908,33.6307488 L53.2642325,35.115705 L52.3711574,33.9249148 C51.6759166,32.9954717 50.4567655,32.6183097 49.3537889,32.9914483 L47.9390013,33.4677262 L48.8019295,32.2557469 C49.4772219,31.3114791 49.4617005,30.041706 48.763526,29.1140309 L47.8706429,27.9236225 L49.2956074,28.3642034 Z" id="Shape" fill="#EB2A74"></path>
                    </g>
                </g>
            </g>
        </g>
    </g>
</svg>