<?xml version="1.0" encoding="UTF-8"?>
<svg width="40px" height="40px" viewBox="0 0 40 40" version="1.1" xmlns="http://www.w3.org/2000/svg" xmlns:xlink="http://www.w3.org/1999/xlink">
    <title>check-mark-button</title>
    <g id="Design" stroke="none" stroke-width="1" fill="none" fill-rule="evenodd">
        <g id="3-Booking-1" transform="translate(-1044.000000, -996.000000)" fill="#8F9094" fill-rule="nonzero">
            <g id="Group-8" transform="translate(353.000000, 320.000000)">
                <g id="Group-10" transform="translate(0.000000, 353.000000)">
                    <g id="check-mark-button" transform="translate(691.000000, 323.000000)">
                        <path d="M19.8935714,0 C8.92428571,0 0,8.92428571 0,19.8935714 C0,30.8628571 8.92428571,39.7871429 19.8935714,39.7871429 C30.8628571,39.7871429 39.7871429,30.8628571 39.7871429,19.8935714 C39.7864286,8.92428571 30.8628571,0 19.8935714,0 Z M19.8935714,36.5807143 C10.6921429,36.5807143 3.20642857,29.095 3.20642857,19.8928571 C3.20642857,10.6914286 10.6921429,3.20571429 19.8935714,3.20571429 C29.095,3.20571429 36.5807143,10.6921429 36.5807143,19.8935714 C36.5807143,29.095 29.095,36.5807143 19.8935714,36.5807143 Z" id="Shape"></path>
                        <path d="M26.235,13.55 L16.9492857,22.8364286 L13.5514286,19.4385714 C12.9257143,18.8121429 11.9107143,18.8121429 11.285,19.4385714 C10.6585714,20.0642857 10.6585714,21.0792857 11.285,21.705 L15.8164286,26.2364286 C16.1292857,26.5492857 16.54,26.7064286 16.95,26.7064286 C17.36,26.7064286 17.77,26.55 18.0828571,26.2364286 L28.5021429,15.8171429 C29.1278571,15.1907143 29.1278571,14.1764286 28.5021429,13.55 C27.8757143,12.9242857 26.8614286,12.9242857 26.235,13.55 Z" id="Path"></path>
                    </g>
                </g>
            </g>
        </g>
    </g>
</svg>