<?xml version="1.0" encoding="UTF-8"?>
<svg width="60px" height="60px" viewBox="0 0 60 60" version="1.1" xmlns="http://www.w3.org/2000/svg" xmlns:xlink="http://www.w3.org/1999/xlink">
    <title>clock-circular-outline</title>
    <g id="Design" stroke="none" stroke-width="1" fill="none" fill-rule="evenodd">
        <g id="4-Profile" transform="translate(-1044.000000, -948.000000)" fill="#EB2A74" fill-rule="nonzero">
            <g id="Group-4-Copy" transform="translate(353.000000, 900.000000)">
                <g id="Group-6-Copy" transform="translate(627.000000, 0.000000)">
                    <g id="clock-circular-outline" transform="translate(64.000000, 48.000000)">
                        <path d="M30,-1.42108547e-14 C13.4577306,-1.42108547e-14 5.54223334e-13,13.4577306 5.54223334e-13,30 C5.54223334e-13,46.5423765 13.4577306,60 30,60 C46.5423765,60 60,46.5422694 60,30 C60,13.4577306 46.5423765,-1.42108547e-14 30,-1.42108547e-14 Z M30.5,54 C17.5417569,54 7,43.4582431 7,30.5 C7,17.5424014 17.5417569,7 30.5,7 C43.4582431,7 54,17.5424014 54,30.5 C54,43.4582431 43.4582431,54 30.5,54 Z" id="Shape"></path>
                        <path d="M33.2405283,30.0214503 L33.2405283,17.5258474 C33.2405283,16.1306205 32.0675214,15 30.6205403,15 C29.1731174,15 28,16.1306205 28,17.5258474 L28,30.828367 C28,30.8680846 28.0101636,30.9053532 28.0121521,30.9450708 C27.9776844,31.6318764 28.2231563,32.3292237 28.7673485,32.853858 L38.526903,42.2600069 C39.5505499,43.2466644 41.2096399,43.2466644 42.2325134,42.2600069 C43.2554974,41.2733494 43.2561603,39.6742104 42.2325134,38.6881918 L33.2405283,30.0214503 Z" id="Path"></path>
                    </g>
                </g>
            </g>
        </g>
    </g>
</svg>