<svg xmlns="http://www.w3.org/2000/svg" width="68.125" height="59.687" viewBox="0 0 68.125 59.687">
  <g id="confetti-2" transform="translate(0 -0.157)">
    <path id="Shape" d="M17.643,17.1l-8.3-3.339A2.617,2.617,0,0,1,7.9,10.372l.321-.807L.725,6.548A1.163,1.163,0,0,1,.083,5.039L1.8.73a1.15,1.15,0,0,1,1.5-.647l10.44,4.2A2.62,2.62,0,0,1,15.18,7.677l-.322.808,5.354,2.156a1.163,1.163,0,0,1,.026,2.144L18.3,13.62l.831,1.95a1.165,1.165,0,0,1-.235,1.267,1.146,1.146,0,0,1-1.254.267Z" transform="translate(27.813 42.656)" fill="#eb2a74"/>
    <path id="Shape-2" data-name="Shape" d="M2.359,21.911.056,11.072A2.54,2.54,0,0,1,.418,9.149,2.581,2.581,0,0,1,2.045,8.042l.841-.176L1.7,2.309a1.132,1.132,0,0,1,.473-1.173,1.154,1.154,0,0,1,1.273-.013L5.2,2.256,6.347.516A1.148,1.148,0,0,1,8.427.9l1.831,8.617a2.558,2.558,0,0,1-1.989,3.027l-.841.176L9.081,20.5a1.127,1.127,0,0,1-.161.854,1.142,1.142,0,0,1-.723.491l-4.482.938a1.155,1.155,0,0,1-.237.025A1.144,1.144,0,0,1,2.359,21.911Z" transform="translate(0 0.156)" fill="#f0672a"/>
    <path id="Path" d="M2.644,15.066a1.143,1.143,0,0,0,1.962-1.175L2.709,10.7,5.889,8.8a1.148,1.148,0,0,0,.4-1.571l-1.9-3.191,3.181-1.9A1.145,1.145,0,1,0,6.4.162L2.236,2.653a1.148,1.148,0,0,0-.4,1.571l1.9,3.191L.557,9.319a1.148,1.148,0,0,0-.4,1.571Z" transform="translate(14.688 26.094)" fill="#eb2a74"/>
    <path id="Path-2" data-name="Path" d="M7.159,1.666l-2.2,3.067L1.839,2.576a1.191,1.191,0,0,0-1.625.291,1.143,1.143,0,0,0,.271,1.6L4.572,7.289a1.191,1.191,0,0,0,1.64-.281l2.2-3.067L11.532,6.1a1.191,1.191,0,0,0,1.64-.281l2.874-4.012a1.143,1.143,0,0,0-.3-1.6,1.192,1.192,0,0,0-1.63.266l-2.2,3.067L8.8,1.386a1.2,1.2,0,0,0-.88-.194,1.18,1.18,0,0,0-.761.474Z" transform="translate(44.688 33.906)" fill="#ad3784"/>
    <path id="Shape-3" data-name="Shape" d="M0,3.594A3.594,3.594,0,1,1,3.594,7.187,3.594,3.594,0,0,1,0,3.594Z" transform="translate(49.375 6.719)" fill="#f0672a"/>
    <path id="Shape-4" data-name="Shape" d="M0,3.594A3.594,3.594,0,1,1,3.594,7.187,3.594,3.594,0,0,1,0,3.594Z" transform="translate(60.938 45.469)" fill="#eb2a74"/>
    <path id="Shape-5" data-name="Shape" d="M0,3.594A3.594,3.594,0,1,1,3.594,7.187,3.6,3.6,0,0,1,0,3.594Z" transform="translate(5 45.469)" fill="#f0672a"/>
    <path id="Shape-6" data-name="Shape" d="M1.2,7.187A1.2,1.2,0,0,1,0,5.99V1.2A1.2,1.2,0,0,1,1.2,0H5.99a1.2,1.2,0,0,1,1.2,1.2V5.99a1.2,1.2,0,0,1-1.2,1.2Z" transform="translate(22.5 6.719)" fill="#ad3784"/>
    <path id="Shape-7" data-name="Shape" d="M1.2,7.187A1.2,1.2,0,0,1,0,5.99V1.2A1.2,1.2,0,0,1,1.2,0H5.99a1.2,1.2,0,0,1,1.2,1.2V5.99a1.2,1.2,0,0,1-1.2,1.2Z" transform="translate(60.938 17.969)" fill="#f0672a"/>
    <path id="Shape-8" data-name="Shape" d="M5.505,11.694,4.431,10.261l-1.7.573a2.024,2.024,0,0,1-2.264-.7,2,2,0,0,1-.03-2.355L1.474,6.319.4,4.886A2,2,0,0,1,.371,2.53a2.023,2.023,0,0,1,2.245-.755l1.716.531L5.37.847A2.018,2.018,0,0,1,9.032,1.98l.023,1.786L10.77,4.3a2,2,0,0,1,.048,3.811l-1.7.573.023,1.786a2.018,2.018,0,0,1-3.632,1.223Z" transform="translate(33.125 16.719)" fill="#eb2a74"/>
  </g>
</svg>
