<svg xmlns="http://www.w3.org/2000/svg" width="760.587" height="260" viewBox="0 0 760.587 260">
  <g id="confetti-2" transform="translate(-0.413)">
    <path id="Shape" d="M66.9,64.872,35.434,52.207a9.921,9.921,0,0,1-5.482-12.872l1.217-3.062L2.749,24.832a4.41,4.41,0,0,1-2.435-5.72l6.5-16.343h0A4.363,4.363,0,0,1,12.492.315l39.587,15.93a9.936,9.936,0,0,1,5.485,12.871l-1.221,3.067,20.3,8.174a4.411,4.411,0,0,1,.1,8.131L69.4,51.657l3.151,7.4a4.421,4.421,0,0,1-.89,4.807A4.349,4.349,0,0,1,66.9,64.872Z" transform="translate(7.49 119.135)" fill="#eb2a74"/>
    <path id="Shape_Copy_2" data-name="Shape Copy 2" d="M66.9,64.872,35.434,52.207a9.921,9.921,0,0,1-5.482-12.872l1.217-3.062L2.749,24.832a4.41,4.41,0,0,1-2.435-5.72l6.5-16.343h0A4.363,4.363,0,0,1,12.492.315l39.587,15.93a9.936,9.936,0,0,1,5.485,12.871l-1.221,3.067,20.3,8.174a4.411,4.411,0,0,1,.1,8.131L69.4,51.657l3.151,7.4a4.421,4.421,0,0,1-.89,4.807A4.349,4.349,0,0,1,66.9,64.872Z" transform="matrix(-0.259, 0.966, -0.966, -0.259, 311.403, 52.886)" fill="#ad3784"/>
    <path id="Shape-2" data-name="Shape" d="M8.909,83.48l-8.7-41.3A9.739,9.739,0,0,1,7.723,30.643l3.174-.67L6.437,8.794a4.326,4.326,0,0,1,6.6-4.519L19.653,8.6l4.318-6.632a4.323,4.323,0,0,1,7.854,1.471L38.74,36.265A9.747,9.747,0,0,1,31.229,47.8l-3.177.671L34.3,78.122a4.327,4.327,0,0,1-3.339,5.129L14.032,86.822A4.318,4.318,0,0,1,8.909,83.48Z" transform="translate(501.841 7.867)" fill="#f0672a"/>
    <path id="Path" d="M10,57.067a4.306,4.306,0,0,0,7.478-.108,4.362,4.362,0,0,0-.063-4.341l-7.174-12.09L22.261,33.32a4.353,4.353,0,0,0,1.5-5.952l-7.174-12.09L28.6,8.069A4.353,4.353,0,0,0,28.494.551a4.3,4.3,0,0,0-4.317.062L8.447,10.045A4.353,4.353,0,0,0,6.952,16l7.174,12.09L2.105,35.3a4.353,4.353,0,0,0-1.5,5.952Z" transform="matrix(0.819, 0.574, -0.574, 0.819, 120.867, 70.728)" fill="#ad3784"/>
    <path id="Path-2" data-name="Path" d="M18.986,17.968,7.037,9.781A4.581,4.581,0,0,0,.82,10.887a4.317,4.317,0,0,0,1.037,6.074L17.49,27.673a4.581,4.581,0,0,0,6.276-1.065l8.4-11.642,11.949,8.187a4.581,4.581,0,0,0,6.276-1.065L61.389,6.856A4.318,4.318,0,0,0,60.254.8a4.582,4.582,0,0,0-6.235,1.01l-8.4,11.642L33.667,5.263A4.6,4.6,0,0,0,30.3,4.528a4.519,4.519,0,0,0-2.913,1.8Z" transform="translate(325.073 135.62)" fill="#f0672a"/>
    <path id="Shape-3" data-name="Shape" d="M0,13.862A13.857,13.857,0,1,1,13.856,27.724,13.859,13.859,0,0,1,0,13.862Z" transform="translate(689.844 32.594)" fill="#f0672a"/>
    <path id="Shape_Copy_3" data-name="Shape Copy 3" d="M0,13.862A13.857,13.857,0,1,1,13.856,27.724,13.859,13.859,0,0,1,0,13.862Z" transform="translate(179.015 137.118)" fill="#eb2a74"/>
    <path id="Shape-4" data-name="Shape" d="M0,13.862A13.857,13.857,0,1,1,13.856,27.724,13.859,13.859,0,0,1,0,13.862Z" transform="translate(733.286 180.202)" fill="#eb2a74"/>
    <path id="Shape_Copy_5" data-name="Shape Copy 5" d="M0,13.862A13.857,13.857,0,1,1,13.856,27.724,13.859,13.859,0,0,1,0,13.862Z" transform="translate(528.056 149.856)" fill="#eb2a74"/>
    <path id="Shape-5" data-name="Shape" d="M0,13.862A13.857,13.857,0,1,1,13.856,27.724,13.875,13.875,0,0,1,0,13.862Z" transform="translate(38.949 232.277)" fill="#f0672a"/>
    <path id="Shape-6" data-name="Shape" d="M4.619,27.724A4.62,4.62,0,0,1,0,23.1V4.621A4.62,4.62,0,0,1,4.619,0H23.095a4.62,4.62,0,0,1,4.619,4.621V23.1a4.62,4.62,0,0,1-4.619,4.621Z" transform="translate(587.228 32.594)" fill="#ad3784"/>
    <path id="Shape_Copy_4" data-name="Shape Copy 4" d="M4.619,27.724A4.62,4.62,0,0,1,0,23.1V4.621A4.62,4.62,0,0,1,4.619,0H23.095a4.62,4.62,0,0,1,4.619,4.621V23.1a4.62,4.62,0,0,1-4.619,4.621Z" transform="translate(383.496)" fill="#ad3784"/>
    <path id="Shape-7" data-name="Shape" d="M4.619,27.724A4.62,4.62,0,0,1,0,23.1V4.621A4.62,4.62,0,0,1,4.619,0H23.095a4.62,4.62,0,0,1,4.619,4.621V23.1a4.62,4.62,0,0,1-4.619,4.621Z" transform="translate(177.344 8.605) rotate(39)" fill="#eb2a74"/>
    <path id="Shape-8" data-name="Shape" d="M20.978,44.861l-4.094-5.5-6.487,2.2A7.688,7.688,0,0,1,1.661,29.837l3.957-5.6-4.1-5.5A7.688,7.688,0,0,1,9.967,6.809l6.539,2.038,3.956-5.6A7.681,7.681,0,0,1,34.417,7.6L34.5,14.45l6.539,2.042a7.691,7.691,0,0,1,.182,14.624l-6.488,2.2.085,6.856a7.681,7.681,0,0,1-13.84,4.691Z" transform="translate(635.914 107.147)" fill="#eb2a74"/>
    <path id="Shape_Copy" data-name="Shape Copy" d="M20.978,44.861l-4.094-5.5-6.487,2.2A7.688,7.688,0,0,1,1.661,29.837l3.957-5.6-4.1-5.5A7.688,7.688,0,0,1,9.967,6.809l6.539,2.038,3.956-5.6A7.681,7.681,0,0,1,34.417,7.6L34.5,14.45l6.539,2.042a7.691,7.691,0,0,1,.182,14.624l-6.488,2.2.085,6.856a7.681,7.681,0,0,1-13.84,4.691Z" transform="translate(0.413 38.34) rotate(-50)" fill="#f0672a"/>
  </g>
</svg>
