<?xml version="1.0" encoding="UTF-8"?>
<svg width="60px" height="60px" viewBox="0 0 60 60" version="1.1" xmlns="http://www.w3.org/2000/svg" xmlns:xlink="http://www.w3.org/1999/xlink">
    <title>event</title>
    <g id="Design" stroke="none" stroke-width="1" fill="none" fill-rule="evenodd">
        <g id="3-Booking-3-successful-booking" transform="translate(-720.000000, -976.000000)" fill="#EB2A74" fill-rule="nonzero">
            <g id="Group-4" transform="translate(720.000000, 821.000000)">
                <g id="event" transform="translate(0.000000, 155.000000)">
                    <path d="M55,4 L49,4 L49,3 C49,1.34314575 47.6568542,0 46,0 C44.3431458,0 43,1.34314575 43,3 L43,4 L33,4 L33,3 C33,1.34314575 31.6568542,0 30,0 C28.3431458,0 27,1.34314575 27,3 L27,4 L17,4 L17,3 C17,1.34314575 15.6568542,0 14,0 C12.3431458,0 11,1.34314575 11,3 L11,4 L5,4 C2.2398613,4.00309993 0.00309992784,6.2398613 0,9 L0,55 C0.00309992784,57.7601387 2.2398613,59.9969001 5,60 L55,60 C57.7601387,59.9969001 59.9969001,57.7601387 60,55 L60,9 C59.9969001,6.2398613 57.7601387,4.00309993 55,4 L55,4 Z M45,3 C45,2.44771525 45.4477153,2 46,2 C46.5522847,2 47,2.44771525 47,3 L47,9 C47,9.55228475 46.5522847,10 46,10 C45.4477153,10 45,9.55228475 45,9 L45,3 Z M29,3 C29,2.44771525 29.4477153,2 30,2 C30.5522847,2 31,2.44771525 31,3 L31,9 C31,9.55228475 30.5522847,10 30,10 C29.4477153,10 29,9.55228475 29,9 L29,3 Z M13,3 C13,2.44771525 13.4477153,2 14,2 C14.5522847,2 15,2.44771525 15,3 L15,9 C15,9.55228475 14.5522847,10 14,10 C13.4477153,10 13,9.55228475 13,9 L13,3 Z M5,6 L11,6 L11,9 C11,10.6568542 12.3431458,12 14,12 C15.6568542,12 17,10.6568542 17,9 L17,6 L27,6 L27,9 C27,10.6568542 28.3431458,12 30,12 C31.6568542,12 33,10.6568542 33,9 L33,6 L43,6 L43,9 C43,10.6568542 44.3431458,12 46,12 C47.6568542,12 49,10.6568542 49,9 L49,6 L55,6 C56.6560547,6.00192869 57.9980713,7.3439453 58,9 L58,16 L2,16 L2,9 C2.00192869,7.3439453 3.3439453,6.00192869 5,6 Z M55,58 L5,58 C3.3439453,57.9980713 2.00192869,56.6560547 2,55 L2,18 L58,18 L58,55 C57.9980713,56.6560547 56.6560547,57.9980713 55,58 L55,58 Z" id="Shape"></path>
                    <path d="M53,25 L49,25 C48.4477153,25 48,25.4477153 48,26 L48,30 C48,30.5522847 48.4477153,31 49,31 L53,31 C53.5522847,31 54,30.5522847 54,30 L54,26 C54,25.4477153 53.5522847,25 53,25 Z M52,29 L50,29 L50,27 L52,27 L52,29 Z" id="Shape"></path>
                    <path d="M33,45 L29,45 C28.4477153,45 28,45.4477153 28,46 L28,50 C28,50.5522847 28.4477153,51 29,51 L33,51 C33.5522847,51 34,50.5522847 34,50 L34,46 C34,45.4477153 33.5522847,45 33,45 Z M32,49 L30,49 L30,47 L32,47 L32,49 Z" id="Shape"></path>
                    <path d="M23,25 L19,25 C18.4477153,25 18,25.4477153 18,26 L18,30 C18,30.5522847 18.4477153,31 19,31 L23,31 C23.5522847,31 24,30.5522847 24,30 L24,26 C24,25.4477153 23.5522847,25 23,25 Z M22,29 L20,29 L20,27 L22,27 L22,29 Z" id="Shape"></path>
                    <path d="M13,35 L9,35 C8.44771525,35 8,35.4477153 8,36 L8,40 C8,40.5522847 8.44771525,41 9,41 L13,41 C13.5522847,41 14,40.5522847 14,40 L14,36 C14,35.4477153 13.5522847,35 13,35 Z M12,39 L10,39 L10,37 L12,37 L12,39 Z" id="Shape"></path>
                    <path d="M23,35 L19,35 C18.4477153,35 18,35.4477153 18,36 L18,40 C18,40.5522847 18.4477153,41 19,41 L23,41 C23.5522847,41 24,40.5522847 24,40 L24,36 C24,35.4477153 23.5522847,35 23,35 Z M22,39 L20,39 L20,37 L22,37 L22,39 Z" id="Shape"></path>
                    <path d="M13,45 L9,45 C8.44771525,45 8,45.4477153 8,46 L8,50 C8,50.5522847 8.44771525,51 9,51 L13,51 C13.5522847,51 14,50.5522847 14,50 L14,46 C14,45.4477153 13.5522847,45 13,45 Z M12,49 L10,49 L10,47 L12,47 L12,49 Z" id="Shape"></path>
                    <path d="M23,45 L19,45 C18.4477153,45 18,45.4477153 18,46 L18,50 C18,50.5522847 18.4477153,51 19,51 L23,51 C23.5522847,51 24,50.5522847 24,50 L24,46 C24,45.4477153 23.5522847,45 23,45 Z M22,49 L20,49 L20,47 L22,47 L22,49 Z" id="Shape"></path>
                    <path d="M44.151,29.122875 L39.151,28.358875 L36.90525,23.575 C36.7405121,23.2240087 36.3877286,22.9998793 36,22.9998793 C35.6122714,22.9998793 35.2594879,23.2240087 35.09475,23.575 L32.85,28.358875 L27.85,29.122875 C27.4792273,29.1793122 27.1712044,29.4384673 27.0521786,29.7941223 C26.9331527,30.1497772 27.0231369,30.542132 27.28525,30.810375 L30.932875,34.54875 L30.070375,39.8395 C30.0094959,40.216864 30.1690617,40.5959206 30.4814952,40.8161366 C30.7939288,41.0363527 31.2045664,41.059199 31.5395,40.875 L36,38.4095 L40.4605,40.875 C40.795643,41.0602603 41.207153,41.0378611 41.5202074,40.8173182 C41.8332618,40.5967753 41.9928796,40.2168221 41.93125,39.838875 L41.06875,34.548125 L44.716375,30.80975 C44.9784881,30.541507 45.0684723,30.1491522 44.9494464,29.7934973 C44.8304206,29.4378423 44.5223977,29.1786872 44.151625,29.12225 L44.151,29.122875 Z M39.28425,33.5125 C39.0625692,33.739675 38.9619042,34.0586018 39.013,34.371875 L39.6255,38.12825 L36.4835,36.39075 C36.1824622,36.2243583 35.8170378,36.2243583 35.516,36.39075 L32.374,38.12825 L32.9865,34.371875 C33.0375958,34.0586018 32.9369308,33.739675 32.71525,33.5125 L30.075,30.806 L33.679125,30.256 C34.0087491,30.2056086 34.2915687,29.9942322 34.43325,29.692375 L36,26.3535 L37.566875,29.69175 C37.7085563,29.9936072 37.9913759,30.2049836 38.321,30.255375 L41.925125,30.805375 L39.28425,33.5125 Z" id="Shape"></path>
                    <path d="M53,35 L49,35 C48.4477153,35 48,35.4477153 48,36 L48,40 C48,40.5522847 48.4477153,41 49,41 L53,41 C53.5522847,41 54,40.5522847 54,40 L54,36 C54,35.4477153 53.5522847,35 53,35 Z M52,39 L50,39 L50,37 L52,37 L52,39 Z" id="Shape"></path>
                    <path d="M53,45 L49,45 C48.4477153,45 48,45.4477153 48,46 L48,50 C48,50.5522847 48.4477153,51 49,51 L53,51 C53.5522847,51 54,50.5522847 54,50 L54,46 C54,45.4477153 53.5522847,45 53,45 Z M52,49 L50,49 L50,47 L52,47 L52,49 Z" id="Shape"></path>
                    <path d="M43,45 L39,45 C38.4477153,45 38,45.4477153 38,46 L38,50 C38,50.5522847 38.4477153,51 39,51 L43,51 C43.5522847,51 44,50.5522847 44,50 L44,46 C44,45.4477153 43.5522847,45 43,45 Z M42,49 L40,49 L40,47 L42,47 L42,49 Z" id="Shape"></path>
                </g>
            </g>
        </g>
    </g>
</svg>