<?xml version="1.0" encoding="UTF-8"?>
<svg width="61px" height="60px" viewBox="0 0 61 60" version="1.1" xmlns="http://www.w3.org/2000/svg" xmlns:xlink="http://www.w3.org/1999/xlink">
    <title>hand</title>
    <g id="Design" stroke="none" stroke-width="1" fill="none" fill-rule="evenodd">
        <g id="3-Booking-3-successful-booking" transform="translate(-720.000000, -1196.000000)" fill="#EB2A74" fill-rule="nonzero">
            <g id="Group-4" transform="translate(720.000000, 821.000000)">
                <g id="hand" transform="translate(0.000000, 375.000000)">
                    <path d="M27.6319886,40.6951904 C28.0892944,40.236969 28.0892944,39.4953919 27.6319886,39.0371705 C27.1742249,38.5803223 26.4326477,38.5803223 25.9744263,39.0371705 C25.5175781,39.4953919 25.5175781,40.236969 25.9744263,40.6951904 C26.4326477,41.1520385 27.1742249,41.1520385 27.6319886,40.6951904 Z" id="Path"></path>
                    <path d="M22.0838929,12.8869629 C22.0838929,19.9928284 27.8649902,25.7743835 34.9708557,25.7743835 C42.0767212,25.7743835 47.8578186,19.9928284 47.8578186,12.8869629 C47.8578186,5.78109738 42.0767212,0 34.9708557,0 C27.8649902,0 22.0838929,5.78109738 22.0838929,12.8869629 Z M45.5149841,12.8869629 C45.5149841,18.7010193 40.7849121,23.4310912 34.9708557,23.4310912 C29.1567994,23.4310912 24.4267273,18.7010193 24.4267273,12.8869629 C24.4267273,7.07336426 29.1567994,2.34329227 34.9708557,2.34329227 C40.7849121,2.34329227 45.5149841,7.07336426 45.5149841,12.8869629 Z" id="Shape"></path>
                    <path d="M13.5530091,59.6534729 C14.0071106,60.1112366 14.746399,60.116272 15.2064514,59.6630859 L20.8863831,54.0673828 C21.8513489,53.102417 22.1447754,51.6737366 21.7204284,50.4318237 L22.9421998,49.25354 C23.6000061,48.6181641 24.466095,48.2679749 25.3816223,48.2679749 L40.9561158,48.2679749 C43.7191772,48.2679749 46.330719,47.2068786 48.3105469,45.2801514 C48.3920287,45.2009583 47.6921081,46.0253906 58.9356995,32.5872803 C60.6033326,30.6143189 60.3538513,27.6516724 58.3790589,25.9822083 C56.416626,24.328308 53.4768677,24.5658874 51.804657,26.5049743 L44.89151,33.6103821 C44.0185547,32.5360107 42.6873779,31.8663025 41.2490845,31.8663025 L28.1849671,31.8663025 C26.3259888,31.088562 24.3534851,30.6948853 22.3182679,30.6948853 C16.6767884,30.6948853 11.7507935,33.300476 9.10720828,38.1857299 C7.9934693,37.9747009 6.81884766,38.311615 5.97381586,39.1566468 L0.400543242,44.746399 C-0.0544739063,45.2027893 -0.055389375,45.9411621 0.398712187,46.3989258 L13.5530091,59.6534729 Z M22.31781,33.0377197 C24.1122436,33.0377197 25.847168,33.3988952 27.4754333,34.1111755 C27.6237487,34.176178 27.7835084,34.2095947 27.9450989,34.2095947 L41.2490845,34.2095947 C42.5193786,34.2095947 43.5923767,35.2455139 43.5923767,36.5524291 C43.5923767,37.844696 42.5413513,38.8957214 41.2490845,38.8957214 L31.6905212,38.8957214 C31.0437012,38.8957214 30.5191041,39.4203186 30.5191041,40.0671387 C30.5191041,40.7144166 31.0437012,41.2385559 31.6905212,41.2385559 L41.2490845,41.2385559 C43.8331604,41.2385559 45.9352112,39.1365052 45.9352112,36.5524291 C45.9352112,36.3464355 45.9205628,36.1422729 45.8940124,35.9399414 C52.5814819,29.0657044 53.5244752,28.099823 53.5647584,28.0517578 C54.3997193,27.0661927 55.881958,26.9412232 56.867981,27.772522 C57.8549194,28.6070251 57.9798889,30.0883484 57.1426392,31.0794068 L46.6346741,43.6413574 C45.1002503,45.1144409 43.0856323,45.9251404 40.9561158,45.9251404 L25.3816223,45.9251404 C23.8554382,45.9251404 22.4107361,46.5087891 21.3148499,47.5675964 L20.3192139,48.5284424 L11.1410522,39.3507386 C13.2861328,35.3265381 17.3112487,33.0377197 22.31781,33.0377197 L22.31781,33.0377197 Z M7.63183594,40.8123779 C8.01818848,40.4260254 8.6114502,40.3564453 9.08248898,40.647583 C9.28527832,40.7711791 8.70300293,40.2410889 19.2297363,50.7531738 C19.6980286,51.2214661 19.6728516,51.9676208 19.2361451,52.4043274 L14.3939209,57.1746826 L2.88253781,45.5754089 L7.63183594,40.8123779 Z" id="Shape"></path>
                    <path d="M33.5650635,5.85800168 L33.5650635,7.23083496 C32.2013855,7.7142334 31.2217712,9.01657102 31.2217712,10.5441284 C31.2217712,12.4818421 32.7983093,14.0588379 34.7364807,14.0588379 C35.3823853,14.0588379 35.9078979,14.5843506 35.9078979,15.2302552 C35.9078979,15.8761596 35.3823853,16.4016724 34.7364807,16.4016724 C34.2361451,16.4016724 33.6955261,16.0871887 33.215332,15.515442 C32.798767,15.0201416 32.0599365,14.9565124 31.5646362,15.3726197 C31.0693359,15.7891846 31.005249,16.5280151 31.4218139,17.0233154 C32.0480346,17.768097 32.7845764,18.2872009 33.5650635,18.5490417 L33.5650635,19.9163818 C33.5650635,20.5636596 34.0896607,21.0877991 34.7364807,21.0877991 C35.3833008,21.0877991 35.9078979,20.5636596 35.9078979,19.9163818 L35.9078979,18.5435486 C37.2715759,18.0596924 38.2511902,16.7573548 38.2511902,15.2302552 C38.2511902,13.2920837 36.6746521,11.7155456 34.7364807,11.7155456 C34.0905762,11.7155456 33.5650635,11.1900329 33.5650635,10.5441284 C33.5650635,9.89822391 34.0905762,9.37225336 34.7364807,9.37225336 C35.1516724,9.37225336 35.5897522,9.58419797 36.0035706,9.98474121 C36.4686585,10.4347229 37.2102356,10.4223633 37.6602173,9.95773312 C38.1101989,9.49264523 38.0978393,8.75106809 37.6332093,8.30108648 C37.0385742,7.72567746 36.4434814,7.40020758 35.9078979,7.22259516 L35.9078979,5.85800168 C35.9078979,5.21072391 35.3833008,4.68612668 34.7364807,4.68612668 C34.0896607,4.68612668 33.5650635,5.21072391 33.5650635,5.85800168 L33.5650635,5.85800168 Z" id="Path"></path>
                </g>
            </g>
        </g>
    </g>
</svg>