<?xml version="1.0" encoding="UTF-8"?>
<svg width="167px" height="140px" viewBox="0 0 167 140" version="1.1" xmlns="http://www.w3.org/2000/svg" xmlns:xlink="http://www.w3.org/1999/xlink">
    <title>left-quote</title>
    <g id="Design" stroke="none" stroke-width="1" fill="none" fill-rule="evenodd" opacity="0.179873512">
        <g id="15-Booking-request" transform="translate(-626.000000, -741.000000)" fill="#FFFFFF" fill-rule="nonzero">
            <g id="Group-8" transform="translate(353.000000, 320.000000)">
                <g id="left-quote" transform="translate(273.000000, 421.000000)">
                    <path d="M53.3079467,63.525819 C49.2057227,62.3447698 45.1034987,61.7455096 41.11309,61.7455096 C34.9510184,61.7455096 29.8092615,63.1536836 25.822347,64.8780853 C29.6659981,50.806828 38.8994964,26.5271828 57.2931141,23.7929491 C58.9965503,23.5396176 60.3924945,22.3079021 60.8572269,20.6498908 L64.8773365,6.27114142 C65.2162767,5.05514998 65.0153586,3.75354994 64.3217542,2.698293 C63.6281499,1.64303606 62.5134911,0.938949057 61.2643045,0.767731871 C59.9067968,0.582537772 58.5230824,0.488193609 57.1515978,0.488193609 C35.0733164,0.488193609 13.2081829,23.5326291 3.98167313,56.5286268 C-1.43438071,75.8866515 -3.02250747,104.990079 10.3184561,123.308571 C17.7838748,133.558889 28.6753844,139.032598 42.6907341,139.579445 C42.7483888,139.581192 42.8042965,139.582939 42.8619512,139.582939 C60.154887,139.582939 75.4893078,127.936676 80.1541026,111.263966 C82.9407497,101.29668 81.6810804,90.8436957 76.6039667,81.8233454 C71.5810135,72.9043277 63.308428,66.403316 53.3079467,63.525819 Z" id="Path"></path>
                    <path d="M161.557392,81.8250925 C156.534439,72.9043277 148.261853,66.403316 138.261372,63.525819 C134.159148,62.3447698 130.056924,61.7455096 126.068262,61.7455096 C119.906191,61.7455096 114.762687,63.1536836 110.775772,64.8780853 C114.619423,50.806828 123.852922,26.5271828 142.248286,23.7929491 C143.951723,23.5396176 145.34592,22.3079021 145.812399,20.6498908 L149.832509,6.27114142 C150.171449,5.05514998 149.970531,3.75354994 149.276927,2.698293 C148.585069,1.64303606 147.47041,0.938949057 146.219477,0.767731871 C144.863716,0.582537772 143.480002,0.488193609 142.10677,0.488193609 C120.028489,0.488193609 98.1633552,23.5326291 88.9350983,56.5286268 C83.5207915,75.8866515 81.9326648,104.990079 95.2753755,123.312065 C102.739047,133.560636 113.632304,139.036092 127.645906,139.581192 C127.703561,139.582939 127.759469,139.584686 127.818871,139.584686 C145.110059,139.584686 160.446227,127.938423 165.111022,111.265713 C167.894175,101.298427 166.632758,90.8436957 161.557392,81.8250925 Z" id="Path"></path>
                </g>
            </g>
        </g>
    </g>
</svg>