<?xml version="1.0" encoding="UTF-8"?>
<svg width="53px" height="40px" viewBox="0 0 53 40" version="1.1" xmlns="http://www.w3.org/2000/svg" xmlns:xlink="http://www.w3.org/1999/xlink">
    <title>mail-2</title>
    <g id="Design" stroke="none" stroke-width="1" fill="none" fill-rule="evenodd">
        <g id="3-Booking-3-successful-booking" transform="translate(-720.000000, -876.000000)" fill="#EB2A74" fill-rule="nonzero">
            <g id="Group-4" transform="translate(720.000000, 821.000000)">
                <g id="Group-2" transform="translate(0.000000, 55.000000)">
                    <g id="mail-2" transform="translate(0.000000, -0.000000)">
                        <path d="M45.9945799,0.081300813 L6.40650407,0.081300813 C2.87262873,0.081300813 0,2.95392954 0,6.48780488 L0,33.5447154 C0,37.0785908 2.87262873,39.9512195 6.40650407,39.9512195 L45.9837398,39.9512195 C49.5176152,39.9512195 52.3902745,37.0785908 52.3902745,33.5447154 L52.3902745,6.49864499 C52.401084,2.96476965 49.5284553,0.081300813 45.9945799,0.081300813 Z M49.4742547,33.5447154 C49.4742547,35.4634146 47.9132791,37.0243902 45.9945799,37.0243902 L6.40650407,37.0243902 C4.48780488,37.0243902 2.92682927,35.4634146 2.92682927,33.5447154 L2.92682927,6.49864499 C2.92682927,4.5799458 4.48780488,3.01897019 6.40650407,3.01897019 L45.9837398,3.01897019 C47.902439,3.01897019 49.4634146,4.5799458 49.4634146,6.49864499 L49.4634146,33.5447154 L49.4742547,33.5447154 Z" id="Shape"></path>
                        <path d="M33.0406504,19.6802168 L45.8536585,8.1897019 C46.4498645,7.64769648 46.504065,6.72628726 45.9620596,6.11924119 C45.4200542,5.52303523 44.498645,5.46883469 43.8915989,6.01084011 L26.2222222,21.8699187 L22.7750678,18.7913279 C22.7642276,18.7804878 22.7533875,18.7696477 22.7533875,18.7588076 C22.6775068,18.6829268 22.601626,18.6178862 22.5149051,18.5528455 L8.48780488,6 C7.88075881,5.45799458 6.95934959,5.51219512 6.41734417,6.11924119 C5.87533875,6.72628726 5.9295393,7.64769648 6.53658537,8.1897019 L19.501355,19.7777778 L6.59078591,31.8644986 C6.00542005,32.4173442 5.97289973,33.3387534 6.52574526,33.9349593 C6.81842818,34.2384824 7.20867209,34.401084 7.59891599,34.401084 C7.95663957,34.401084 8.31436314,34.2710027 8.59620596,34.0108401 L21.701897,21.7506775 L25.2574526,24.9268293 C25.5392954,25.1761518 25.8861789,25.295393 26.2330623,25.295393 C26.5799458,25.295393 26.9376694,25.1653117 27.2086721,24.9159892 L30.8617886,21.6422764 L43.8915989,34.0216802 C44.1734417,34.2926829 44.5420054,34.4227642 44.899729,34.4227642 C45.2899729,34.4227642 45.6693767,34.2710027 45.9620596,33.9674797 C46.5149051,33.3821138 46.4932249,32.4498645 45.9078591,31.897019 L33.0406504,19.6802168 Z" id="Path"></path>
                    </g>
                </g>
            </g>
        </g>
    </g>
</svg>