<?xml version="1.0" encoding="UTF-8"?>
<svg width="30px" height="30px" viewBox="0 0 30 30" version="1.1" xmlns="http://www.w3.org/2000/svg" xmlns:xlink="http://www.w3.org/1999/xlink">
    <title>mute</title>
    <g id="Design" stroke="none" stroke-width="1" fill="none" fill-rule="evenodd">
        <g id="4-Profile" transform="translate(-408.000000, -716.000000)" fill="#EB2A74" fill-rule="nonzero">
            <g id="Balqees-2-compressed" transform="translate(353.000000, 240.000000)">
                <g id="Group" transform="translate(30.000000, 451.000000)">
                    <g id="mute" transform="translate(25.000000, 25.000000)">
                        <path d="M28.7214353,10.2785647 L28.7214353,10.2785647 C28.3500157,9.90714511 27.7519673,9.90714511 27.3868429,10.2785647 L24,13.6654076 L20.6131571,10.2785647 C20.2417375,9.90714511 19.643689,9.90714511 19.2785647,10.2785647 L19.2785647,10.2785647 C18.9071451,10.6499843 18.9071451,11.2480327 19.2785647,11.6131571 L22.6654076,15 L19.2785647,18.3868429 C18.9071451,18.7582625 18.9071451,19.356311 19.2785647,19.7214353 L19.2785647,19.7214353 C19.6499843,20.0928549 20.2480327,20.0928549 20.6131571,19.7214353 L24,16.3345924 L27.3868429,19.7214353 C27.7582625,20.0928549 28.356311,20.0928549 28.7214353,19.7214353 L28.7214353,19.7214353 C29.0928549,19.3500157 29.0928549,18.7519673 28.7214353,18.3868429 L25.3345924,15.0062952 L28.7214353,11.6194523 C29.0865596,11.2480327 29.0865596,10.6499843 28.7214353,10.2785647 Z" id="Path"></path>
                        <path d="M16.4877956,0.069104021 C16.1765828,-0.064374173 15.8135011,-0.000813128199 15.5671243,0.228006633 L6.81426392,8.33203984 L0.84935164,8.33203984 C0.382532418,8.33203984 -1.74615877e-12,8.70705 -1.74615877e-12,9.16468953 L-1.74615877e-12,20.8344973 C-1.74615877e-12,21.2921369 0.382532418,21.667147 0.84935164,21.667147 L6.81426392,21.667147 L15.5671243,29.7711802 C15.7292143,29.9237267 15.9366895,30 16.1506484,30 C16.2673532,30 16.3775744,29.9809317 16.4877956,29.9300829 C16.7990084,29.7966047 17,29.4978677 17,29.1673503 L17,0.831836558 C17,0.501319125 16.7990084,0.196226111 16.4877956,0.069104021 Z M2,10 L6,10 L6,20 L2,20 L2,10 Z M16,27 L8.07470289,20.1303896 C8.05432937,20.1116883 8.02716469,20.092987 8,20.0742857 L8,9.93194805 C8.02716469,9.91324675 8.0475382,9.89454545 8.07470289,9.87584416 L16,3 L16,27 Z" id="Shape"></path>
                    </g>
                </g>
            </g>
        </g>
    </g>
</svg>