<svg xmlns="http://www.w3.org/2000/svg" width="23.934" height="23.932" viewBox="0 0 23.934 23.932">
  <path id="Shape" d="M.194,23.741a.647.647,0,0,1-.158-.672L2.788,14.79c0-.007.006-.007.006-.014s.013-.033.021-.053.006-.013.013-.02.02-.032.033-.052.006-.007.006-.014.033-.04.046-.059c.007,0,.007-.006.013-.013l.026-.027,12.41-12.4L16.528.963a3.3,3.3,0,0,1,4.658,0l1.785,1.778a3.3,3.3,0,0,1,0,4.658L9.4,20.975c-.006.014-.02.02-.026.026s-.007.006-.014.014-.04.032-.059.046-.046.026-.066.04a.024.024,0,0,1-.014.006.23.23,0,0,1-.058.027c-.007.006-.007.006-.014.006L.871,23.9a.757.757,0,0,1-.211.033h0A.662.662,0,0,1,.194,23.741Z" transform="translate(0 0)" fill="#eb2a74"/>
</svg>
