<?xml version="1.0" encoding="UTF-8"?>
<svg width="53px" height="40px" viewBox="0 0 53 40" version="1.1" xmlns="http://www.w3.org/2000/svg" xmlns:xlink="http://www.w3.org/1999/xlink">
    <title>youtube</title>
    <g id="Design" stroke="none" stroke-width="1" fill="none" fill-rule="evenodd">
        <g id="3-Booking-3-successful-booking" transform="translate(-720.000000, -1096.000000)" fill="#EB2A74" fill-rule="nonzero">
            <g id="Group-4" transform="translate(720.000000, 821.000000)">
                <g id="Group-2-Copy-2" transform="translate(0.000000, 275.000000)">
                    <g id="youtube" transform="translate(0.000000, 0.000000)">
                        <path d="M34.5163499,17.6280606 L22.8551868,11.2475837 C22.184681,10.8807185 21.3921553,10.8944104 20.7349388,11.2838273 C20.0773196,11.6736469 19.6850837,12.3622744 19.6850837,13.1266108 L19.6850837,25.7780284 C19.6850837,26.5387403 20.0749033,27.2261598 20.7280928,27.6163821 C21.0691849,27.8201514 21.447326,27.9224388 21.8262726,27.9224388 C22.1734053,27.9224388 22.5213434,27.8366624 22.8414948,27.6643041 L34.5030606,21.3937661 C35.1953125,21.0212629 35.6274163,20.3016269 35.6306518,19.5151418 C35.6334568,18.7286566 35.2065882,18.005799 34.5163499,17.6280606 L34.5163499,17.6280606 Z M22.77827,24.1865335 L22.77827,14.7309923 L31.4936372,19.499839 L22.77827,24.1865335 Z" id="Shape"></path>
                        <path d="M52.3952964,9.43580866 L52.3928802,9.41164629 C52.3481798,8.98679124 51.9031895,5.20779639 50.0660438,3.28567979 C47.9425741,1.02488722 45.5351965,0.750241649 44.3774163,0.618556701 C44.2815722,0.607683608 44.1937823,0.597615979 44.1152545,0.587145567 L44.0230348,0.577480619 C37.0449421,0.0700709278 26.5065238,0.000805412371 26.4010148,0.000402706186 L26.3917526,0 L26.3824903,0.000402706186 C26.2769813,0.000805412371 15.7385631,0.0700709278 8.69764825,0.577480619 L8.60462309,0.587145567 C8.52971969,0.597213299 8.44716495,0.606475464 8.35736144,0.616945876 C7.21287052,0.749033505 4.83126608,1.02408186 2.70175577,3.36662371 C0.951997423,5.26820227 0.446198454,8.9662532 0.394249381,9.38184598 L0.388208763,9.43580866 C0.372503196,9.6125967 -5.86014627e-15,13.821279 -5.86014627e-15,18.0464723 L-5.86014627e-15,21.9962145 C-5.86014627e-15,26.2214078 0.372503196,30.4300902 0.388208763,30.6072809 L0.391027732,30.6338596 C0.435728041,31.0518686 0.88031567,34.7615979 2.70900454,36.68452 C4.70562175,38.8696037 7.2301868,39.1587468 8.58811216,39.3141913 C8.80275454,39.3387565 8.9875967,39.3596971 9.11364371,39.381846 L9.23566371,39.3987597 C13.2647391,39.782136 25.8972294,39.9710052 26.4328287,39.9786566 L26.4489369,39.9790593 L26.4650452,39.9786566 C26.5705541,39.9782538 37.1085696,39.9089885 44.0866624,39.4015786 L44.1788821,39.3919136 C44.2670747,39.3802352 44.3661404,39.3697648 44.4748711,39.3584891 C45.6129188,39.2376772 47.9816366,38.9867912 50.0817494,36.6760631 C51.8315077,34.7740819 52.3377094,31.0760309 52.3892558,30.6608408 L52.3952964,30.6068782 C52.411002,30.4296875 52.7839078,26.2214078 52.7839078,21.9962145 L52.7839078,18.0464723 C52.7839078,13.821279 52.411002,9.61299938 52.3952964,9.43580866 L52.3952964,9.43580866 Z M49.690319,21.9962145 C49.690319,25.9068943 49.3488241,29.9343589 49.3166076,30.3040432 C49.1853254,31.3224871 48.6517397,33.6622101 47.7992107,34.588837 C46.4847777,36.0349548 45.1345039,36.1783184 44.1486792,36.2826192 C44.0294781,36.2951031 43.9191366,36.3071843 43.8192655,36.3196681 C37.0699098,36.807748 26.9293654,36.8826514 26.4622262,36.8854703 C25.9383054,36.877819 13.4906572,36.687339 9.58440722,36.3245006 C9.38426227,36.2918814 9.16800907,36.2669136 8.94007732,36.2411404 C7.78390784,36.1086501 6.20127258,35.9274324 4.98429443,34.588837 L4.95570227,34.5582313 C4.1180734,33.685567 3.59979062,31.4976643 3.46810567,30.3161243 C3.44354062,30.0366463 3.09318619,25.9616624 3.09318619,21.9962145 L3.09318619,18.0464723 C3.09318619,14.1402223 3.43387567,10.1171875 3.46689753,9.73985175 C3.62355031,8.5401901 4.16720361,6.34221969 4.98429443,5.4538499 C6.33899804,3.96383701 7.76739691,3.79872742 8.71214557,3.68959402 C8.80235175,3.67912371 8.88651742,3.66945876 8.96423969,3.65939113 C15.8118557,3.16889495 26.0252899,3.09600515 26.3917526,3.09318619 C26.7582153,3.09560247 36.9680252,3.16889495 43.7548325,3.65939113 C43.8381927,3.66986144 43.9292042,3.68033186 44.0270619,3.69160763 C44.9987919,3.80235175 46.4674613,3.96987753 47.815319,5.40753866 L47.8278029,5.42082794 C48.6654318,6.29349227 49.1837145,8.51965206 49.3153995,9.72495165 C49.3387565,9.98872423 49.690319,14.0725676 49.690319,18.0464723 L49.690319,21.9962145 Z" id="Shape"></path>
                    </g>
                </g>
            </g>
        </g>
    </g>
</svg>